<svg xmlns="http://www.w3.org/2000/svg" width="94.197" height="97.429" viewBox="0 0 94.197 97.429">
  <g id="All_Time" data-name="All Time" transform="translate(-3 -2)">
    <path id="Path_3535" data-name="Path 3535" d="M54.962,2A42.268,42.268,0,0,0,12.743,44.219a41.732,41.732,0,0,0,1,9.014A11.344,11.344,0,0,0,9.5,62.081v3.248a1.624,1.624,0,0,0,1.624,1.624v1.624A9.743,9.743,0,0,0,15.991,77v3.442l-5.864,2.2A10.985,10.985,0,0,0,3,92.934V97.8a1.624,1.624,0,0,0,1.624,1.624H37.1A1.624,1.624,0,0,0,38.724,97.8V92.917a11.042,11.042,0,0,0-7.145-10.29l-5.846-2.186V77a9.851,9.851,0,0,0,1.435-1.012A42.219,42.219,0,1,0,54.962,2ZM12.743,62.081a8.119,8.119,0,0,1,16.238,0V63.7h-.952l-2.772-2.772a1.624,1.624,0,0,0-2.049-.2L18.751,63.7H12.743Zm9.743-17.862a32.484,32.484,0,1,1,9,22.436,1.593,1.593,0,0,0,.742-1.327V62.081A11.385,11.385,0,0,0,23.205,50.96a32.392,32.392,0,0,1-.719-6.74ZM14.367,66.953h4.871a1.634,1.634,0,0,0,.9-.273L23.9,64.171l2.306,2.306a1.624,1.624,0,0,0,1.148.476v1.624a6.5,6.5,0,1,1-12.991,0ZM30.442,85.67a7.778,7.778,0,0,1,5.034,7.263v3.248H6.248V92.934a7.739,7.739,0,0,1,5.021-7.249l5.937-2.229,2.509,2.507a1.624,1.624,0,0,0,2.3,0l2.509-2.509Zm-7.957-4.776-1.624,1.624-1.624-1.624V78.173a9.094,9.094,0,0,0,3.248,0Zm32.476,2.3a38.759,38.759,0,0,1-25.69-9.719,9.66,9.66,0,0,0,1.185-3.261A35.7,35.7,0,1,0,19.842,50.766a11.308,11.308,0,0,0-3.15.75,38.541,38.541,0,0,1-.7-7.3A38.972,38.972,0,1,1,54.962,83.191Z" transform="translate(0)" fill="#fff"/>
    <path id="Path_3536" data-name="Path 3536" d="M26.624,43.733H37.991V40.486H28.248V38.862a4.871,4.871,0,0,1,4.871-4.871,4.871,4.871,0,0,0,4.871-4.871V25.871A4.871,4.871,0,0,0,33.119,21H29.871A4.871,4.871,0,0,0,25,25.871v3.248h3.248V25.871a1.624,1.624,0,0,1,1.624-1.624h3.248a1.624,1.624,0,0,1,1.624,1.624v3.248a1.624,1.624,0,0,1-1.624,1.624A8.129,8.129,0,0,0,25,38.862V42.11A1.624,1.624,0,0,0,26.624,43.733Z" transform="translate(13.724 11.852)" fill="#fff"/>
    <path id="Path_3537" data-name="Path 3537" d="M35.624,37.238h8.119v6.5h3.248v-6.5h3.248V33.991H46.991V22.624a1.624,1.624,0,0,0-2.923-.974L34.325,34.64a1.624,1.624,0,0,0,1.3,2.6ZM43.743,27.5v6.5H38.871Z" transform="translate(19.338 11.852)" fill="#fff"/>
  </g>
</svg>
