<svg xmlns="http://www.w3.org/2000/svg" width="298.537" height="201.913" viewBox="0 0 298.537 201.913">
  <g id="bike" transform="translate(0 -0.005)">
    <path id="Path_157" data-name="Path 157" d="M75.448,131.567a.781.781,0,0,0,.69.82.8.8,0,0,0,.9-.606,84.045,84.045,0,0,1,11.1-30.7,81.458,81.458,0,0,1,21.614-23.894.749.749,0,0,0,.15-1.076.819.819,0,0,0-1.119-.144,82.933,82.933,0,0,0-22.04,24.351,85.8,85.8,0,0,0-11.3,31.247Z" transform="translate(149.937 -54.562)" fill="#5a5858" fill-rule="evenodd"/>
    <path id="Path_158" data-name="Path 158" d="M298.874,126.743c-2.335,4.5-17.361,46.13-21.662,48.46S239.8,158.7,239.8,158.7l.513-5.405s30.575,8.685,31,8.387,11.16-39.662,12.594-42.421C287.82,111.823,301.219,122.242,298.874,126.743Z" transform="translate(-170.923 -66.478)" fill="#e7c0ad" fill-rule="evenodd"/>
    <path id="Path_159" data-name="Path 159" d="M262.466,118.787c-2.151-2.9-8.031-4.967-12.2-4.827s-6.995,6.337-7.692,8.928-5,21.928-5,21.928,14.706,7.213,14.851,6.747C254.367,145.328,265.082,128.069,262.466,118.787Z" transform="translate(-135.763 -64.936)" fill="#95a198" fill-rule="evenodd"/>
    <path id="Path_160" data-name="Path 160" d="M125.73,278.667c.765,0,15.2,2.731,19.037,3l.794-4.92-19.114-2.637Z" transform="translate(76.327 -94.129)" fill="#2d2929" fill-rule="evenodd"/>
    <path id="Path_161" data-name="Path 161" d="M175.215,271.065s9.039,4.967,13.059,6.216,72.019,1.519,72.019,1.519,18.407,3.588,20.083,3.858,20.664,2.348,20.945.932-2.005-16.7-2.005-16.7-28.095,3.318-27.688,4.557-1.686,1.789-1.686,1.789Z" transform="translate(-113.298 -93.638)" fill="#2d2929" fill-rule="evenodd"/>
    <path id="Path_162" data-name="Path 162" d="M286.06,180.56c-1.579.932-61.334,8.7-66.923,14.706s-24.888,57.331-23.6,57.331S215.2,259.27,215.2,259.27s12.594-54.34,13.757-54.21,44.767-3.8,53.516-3.243,14.532.13,15.781-6.076S286.06,180.56,286.06,180.56Z" transform="translate(-129.143 -87.76)" fill="#08334c" fill-rule="evenodd"/>
    <path id="Path_163" data-name="Path 163" d="M139.29,268.17c-.005-14.212,11.968-25.736,26.742-25.74s26.756,11.522,26.755,25.733-11.977,25.729-26.751,25.727S139.3,282.378,139.29,268.173Z" transform="translate(19.009 -91.972)" fill="#3e3b3a" fill-rule="evenodd"/>
    <path id="Path_164" data-name="Path 164" d="M148.65,268.807c0-9.393,7.916-17.008,17.68-17.008s17.68,7.615,17.68,17.008-7.916,17.007-17.68,17.007S148.65,278.2,148.65,268.807Z" transform="translate(19.055 -92.61)" fill="#f2f2f2" fill-rule="evenodd"/>
    <path id="Path_165" data-name="Path 165" d="M154.11,269.179A12.4,12.4,0,1,1,166.5,281.1a12.635,12.635,0,0,1-8.764-3.488A11.684,11.684,0,0,1,154.11,269.179Z" transform="translate(19.064 -92.982)" fill="#717172" fill-rule="evenodd"/>
    <path id="Path_166" data-name="Path 166" d="M162.88,269.773a3.936,3.936,0,1,1,3.933,3.774,3.86,3.86,0,0,1-3.933-3.774Z" transform="translate(18.98 -93.576)" fill="#ece2ba" fill-rule="evenodd"/>
    <path id="Path_167" data-name="Path 167" d="M253.228,66.717s-10.4,11.966-10.657,12.553,1.143,5.9.213,6.943-5.813,4.548-5.522,5.592,2.548,2.731,4.195,2.656,1.163,1.081,1.163,1.081-1.879,3.784,2.567,8.825,11.906,6.766,15.21,6.346,4.447-1.239,4.447-1.239,4.379-2.348,8.39,2a25.375,25.375,0,0,1,5.386,10.074l16.072-14.268s-4.844-1.538-6.781-4.781S285,91.944,285,91.944s7.382-12.972,2.654-19.57S253.228,66.717,253.228,66.717Z" transform="translate(-164.526 -53.94)" fill="#f9d8c7" fill-rule="evenodd"/>
    <path id="Path_168" data-name="Path 168" d="M253.1,113.233a6.654,6.654,0,0,0,.9-.056c3.3-.41,4.447-1.239,4.447-1.239s4.379-2.348,8.39,2a23.352,23.352,0,0,1,4.214,6.7,20.829,20.829,0,0,0,3.4-2.442c.358-.624-6.995-8.8-8.961-10.456s-1.463-2.647-.756-2.9,8.787,0,7.75-.587c-.223-.121-14.726-1.538-14.774-1.519-.388.158-7.072,5.368-6.1,8.695A2.519,2.519,0,0,0,253.1,113.233Z" transform="translate(-159.385 -62.145)" fill="#f8cbb1" fill-rule="evenodd"/>
    <path id="Path_169" data-name="Path 169" d="M269.8,74.62c-.639.755-1.269,1.482-1.831,2.153,5.58,1.454,17.593,4.66,17.593,4.66s-.3,1.137-.678,2.721l-17.69-.671s-.359,7.111-.339,7.549.7.419,1.54-.233,1.492-6.076,1.492-6.076l14.629,1.109a38.761,38.761,0,0,0-.891,5.852c-.145,3.588,2.4,7.7,2.3,7.455S288.929,80.2,288.929,80.2Z" transform="translate(-186.953 -54.481)" fill="#ebc1a9" fill-rule="evenodd"/>
    <path id="Path_170" data-name="Path 170" d="M286.228,79.176c2.984,1.556,4.34,4.212,3.09,3.728s-10.434-2.33-11.025-2.982,0-1.538.3-1.864C279.7,76.8,285.114,78.6,286.228,79.176Z" transform="translate(-198.234 -54.685)" fill="#a95c40" fill-rule="evenodd"/>
    <path id="Path_171" data-name="Path 171" d="M234.26,96.476c1.889,5.023,7.624,7.987,10.318,8.956s4.408.932,4.156.857a16.647,16.647,0,0,1-1.831-1.407,22.147,22.147,0,0,0,4.844.168,13.124,13.124,0,0,1,4.195.764c-.213-.242-2.4-1.733-2.4-1.733s1.182,1.072,3.769.69a8.123,8.123,0,0,0,3.73-1.3,26.391,26.391,0,0,1-3.875-.242s3.623-1,2.3-1.174-6.956-1.118-10.531-9.319Z" transform="translate(-130.995 -60.214)" fill="#a95c40" fill-rule="evenodd"/>
    <path id="Path_172" data-name="Path 172" d="M266.2,101.694c9.126,2.917,12.294-4.883,13.892-4.138,0,0,1.318,5.051,2.228,5.974,0,0-2.974-.559-2.112-.177,4.563,2.013,3.652,13.177,3.4,13.047s-2.684-1.929-2.684-1.929,1.463,2.311,1.037,2.106l-3.623-1.724-1.5-.764.572,1.7s-1.763-.932-4.844-2.386-5.018-6.384-5.018-6.384,0,1.277-.077,1.072C265.586,104.49,266.3,105.627,266.2,101.694Z" transform="translate(-181.65 -61.213)" fill="#a5573b" fill-rule="evenodd"/>
    <path id="Path_173" data-name="Path 173" d="M290.9,84.41,268.4,82.4c-.174-.708-.484-.8-2.044-1.4l-1.773-.69c-.388.308-.833,7.008-.116,9.561.533,1.864.969,2.8,1.821,2.227,2.16-1.407.823-7.679,2.906-7.549l21.4,1.379Z" transform="translate(-186.163 -54.868)" fill="#3e3b3a" fill-rule="evenodd"/>
    <path id="Path_174" data-name="Path 174" d="M315.634,254.764c.145,1.445,1.424,14.808.92,14.668s-16.634-.457-24.81-1.286-17.147-7.455-14.532-9.1,16.789-.624,19.511-1.659a28.981,28.981,0,0,0,5.958-3.523Z" transform="translate(-221.396 -92.751)" fill="#a95c40" fill-rule="evenodd"/>
    <path id="Path_175" data-name="Path 175" d="M288.56,258.054c5.009-.186,11.093,0,12.778-.671a28.986,28.986,0,0,0,5.958-3.523l2.509.177c-.853,1.92-3.245,5.722-4.912,6.346-2.228.829-11.771,1.174-13.485.932C290.139,261.073,289.035,259.442,288.56,258.054Z" transform="translate(-226.367 -92.75)" fill="#76564b" fill-rule="evenodd"/>
    <path id="Path_176" data-name="Path 176" d="M316.627,267.372c.068,1.482.068,2.47-.068,2.432-.5-.14-16.634-.457-24.811-1.286s-17.147-7.455-14.532-9.1a6.425,6.425,0,0,1,2.228-.634c2.131,2.032,7.285,6.337,13.234,6.8C299.218,266.068,312.151,267.055,316.627,267.372Z" transform="translate(-221.4 -93.085)" fill="#fffadc" fill-rule="evenodd"/>
    <path id="Path_177" data-name="Path 177" d="M281.794,180.34c-1.579.932-63.445,10.689-68.725,15.116s-23.1,56.922-21.807,56.922,19.666,6.672,19.666,6.672,10.162-48.134,14.609-50.482,43.905-7.53,52.653-6.98,14.532.14,15.781-6.067S281.794,180.34,281.794,180.34Z" transform="translate(-121.394 -87.745)" fill="#194867" fill-rule="evenodd"/>
    <path id="Path_178" data-name="Path 178" d="M260.371,185.126l-1.444.289h0c-.843.27,12.478,13.448,12.478,13.448-16.469-.829-44.961,3.476-48.739,6.356s-14.774,41.349-17.787,45.552c-2.635,3.672-11.47,2.4-13.7,2.022,3.265.811,19.163,6.579,19.163,6.579s10.162-48.134,14.609-50.482,43.905-7.53,52.653-6.98,14.532.14,15.781-6.067a5.028,5.028,0,0,0-.155-2.47c-2.209.084-4.127.326-4.127.326C288.262,194.221,268.964,184.2,260.371,185.126Z" transform="translate(-120.862 -88.067)" fill="#133f5c" fill-rule="evenodd"/>
    <path id="Path_179" data-name="Path 179" d="M201.237,107.349c31,4.3,59.1,48.683,51.491,86.1-2.044,10.074-27.862-7.791-38.112-14.389,2.906-15.954-7.024-29.644-17.767-41.573,0,0-7.033-6.971-8.254-9.664C184.72,119.259,197.973,106.9,201.237,107.349Z" transform="translate(-81.944 -66.212)" fill="#4bc25a" fill-rule="evenodd"/>
    <path id="Path_180" data-name="Path 180" d="M316.275,178.711c1.434-5.377,5.164-15.731,5.164-15.731L310.675,165.6l-2.005,11.323Z" transform="translate(-255.948 -73.082)" fill="#f2f2f2" fill-rule="evenodd"/>
    <path id="Path_181" data-name="Path 181" d="M328.887,153.17c-5.464-6.57-26.312-7.008-26.448-6.98l2.073,20.847C311.953,166.972,337.287,163.272,328.887,153.17Z" transform="translate(-251.937 -70.281)" fill="#4bc25a" fill-rule="evenodd"/>
    <path id="Path_182" data-name="Path 182" d="M321.671,153.486a11.27,11.27,0,0,0-3.565-2.656,21.573,21.573,0,0,0-.7,4.874c-.281,3.961-8.99,8.462-14.968,11.276C312.438,165.834,328.627,161.855,321.671,153.486Z" transform="translate(-251.757 -70.887)" fill="#f2f2f2" fill-rule="evenodd"/>
    <path id="Path_183" data-name="Path 183" d="M320.387,151c-2.451-2.265-9.988-1.3-10.908,3.029-.853,4.072,4.2,7.754,8.264,8.117S320.387,151,320.387,151Z" transform="translate(-255.893 -70.505)" fill="#f2f2f2" fill-rule="evenodd"/>
    <path id="Path_184" data-name="Path 184" d="M155.737,215.132c-9.078-16.672,34.382-12.059,40.359-12.189,7.992-.168,11.935-3.336,19.54-3.588,10.908-.363,20.509-2.032,23.251,4.044s.639,14.044.639,14.044C228.328,218.561,159.021,221.171,155.737,215.132Z" transform="translate(-39.219 -79.984)" fill="#31140c" fill-rule="evenodd"/>
    <path id="Path_185" data-name="Path 185" d="M130.828,229.607c8.264-.867,6.239,14.072,4.582,13.149C135.216,242.645,130.828,229.607,130.828,229.607Z" transform="translate(80.18 -85.002)" fill="#a61d35" fill-rule="evenodd"/>
    <path id="Path_186" data-name="Path 186" d="M130.73,231.134a16.618,16.618,0,0,1,2.151-2.414l7.75.158,4.311,18.256Z" transform="translate(72.496 -85.339)" fill="#f2f2f2" fill-rule="evenodd"/>
    <path id="Path_187" data-name="Path 187" d="M123.15,271.285c0-1.957,22.379-23.577,18.649-34.2s-13.737-9.245-14.919-15.843-.862-6.8-.862-6.831,42.181.093,82.85.093c16.973,9.711,30.71,37.528,32.939,55.225L201.834,258.35,153.8,271.4Z" transform="translate(-13.064 -90.064)" fill="#4bc25a" fill-rule="evenodd"/>
    <path id="Path_188" data-name="Path 188" d="M205.981,271.284c0-1.957,22.379-23.577,18.649-34.2s-13.34-8.937-14.919-15.843c-.32-1.4-1.54-5.442-.853-6.84h0c2.722,11.183,33.123,13.913,35.2,18.564,1.724,3.867-3.7,25.8-3.7,25.8s-1.356,7.3-5.29,12.637Z" transform="translate(-89.558 -90.064)" fill="#4bc25a" fill-rule="evenodd"/>
    <path id="Path_189" data-name="Path 189" d="M328.39,268.119c-.011-14.213,11.96-25.742,26.735-25.749s26.757,11.511,26.761,25.724-11.979,25.74-26.754,25.736c-14.756,0-26.727-11.5-26.742-25.705Z" transform="translate(-328.39 -91.968)" fill="#3e3b3a" fill-rule="evenodd"/>
    <path id="Path_190" data-name="Path 190" d="M337.75,268.756c-.011-9.4,7.9-17.019,17.667-17.026s17.69,7.606,17.693,17-7.913,17.014-17.68,17.014S337.761,278.142,337.75,268.756Z" transform="translate(-328.682 -92.605)" fill="#ece2ba" fill-rule="evenodd"/>
    <path id="Path_191" data-name="Path 191" d="M343.21,269.128a12.4,12.4,0,1,1,12.391,11.9,12.16,12.16,0,0,1-12.391-11.9Z" transform="translate(-328.853 -92.977)" fill="#717172" fill-rule="evenodd"/>
    <path id="Path_192" data-name="Path 192" d="M351.931,269.72a3.781,3.781,0,0,1,2.39-3.536,4.049,4.049,0,0,1,4.307.788,3.68,3.68,0,0,1,.873,4.133,4.047,4.047,0,0,1-6.418,1.267A3.658,3.658,0,0,1,351.931,269.72Z" transform="translate(-329.106 -93.569)" fill="#ece2ba" fill-rule="evenodd"/>
    <path id="Path_193" data-name="Path 193" d="M380.14,267.655c-28.908.205-18.126-10.717-53.98-14.268,5.561-12.227,19.773-16.774,33.21-13.522C370.52,242.941,380.2,255.41,380.14,267.655Z" transform="translate(-324.484 -91.728)" fill="#4bc25a" fill-rule="evenodd"/>
    <path id="Path_194" data-name="Path 194" d="M379.8,268.569c-28.908.205-18.126-10.717-53.98-14.268-.513,0-.077-1.948,1.017-1.985,3.4-.205,13,.224,18.194,2.46,6.249,2.693,13.2,7.66,18.94,9.524,4.35,1.417,12.207,2.069,15.752,2.311C380.379,266.6,380.66,268.588,379.8,268.569Z" transform="translate(-324.142 -92.642)" fill="#e6e6e6" fill-rule="evenodd"/>
    <path id="Path_195" data-name="Path 195" d="M231.121,168.42c2.49.252,12.013.27,12.914,3.448S226.1,222.192,229.5,237.7s12.265,22.664,18.407,24.36S335.5,265.2,335.5,265.2l-.068,3.047s-76.32-.2-85.786-.746-26.4-14.762-34.149-28.563S231.121,168.42,231.121,168.42Z" transform="translate(-171.105 -86.934)" fill="#4bc25a" fill-rule="evenodd"/>
    <path id="Path_196" data-name="Path 196" d="M245.265,171.42c2.49.252,12.013.27,12.914,3.448s-17.932,50.324-14.532,65.831c3.749,16.644,15.82,27.911,33.646,28.181,5.425.084,48.739.792,72.3.839v1.519s-76.321-.2-85.786-.745c-21.265-1.239-27.291-29.272-48.759-32.7C213.276,237.521,241.923,180.133,245.265,171.42Z" transform="translate(-186.218 -87.138)" fill="#4bc25a" fill-rule="evenodd"/>
    <path id="Path_197" data-name="Path 197" d="M346.505,168.42l1.133.084,4.108.308h0c-32.367,50-15.675,76.827-11.054,83.136-6.84-7.586-13.718-16.038-24.442-17.753C318.808,225.295,343.163,177.133,346.505,168.42Z" transform="translate(-286.489 -80.274)" fill="#4bc25a" fill-rule="evenodd"/>
    <path id="Path_198" data-name="Path 198" d="M176.665,231.188c35.147,11.267,37.782,40.837,37.782,40.837l-90.814.27C119.826,237.478,136.712,218.374,176.665,231.188Z" transform="translate(12.665 -90.935)" fill="#4bc25a" fill-rule="evenodd"/>
    <path id="Path_199" data-name="Path 199" d="M328.023,167.03s-2.073-19.887-2.073-20.847c0-.1,3.294-.214,3.371.149l2.064,20.5C331.336,167.253,328.023,167.44,328.023,167.03Z" transform="translate(-275.525 -70.278)" fill="#5a5749" fill-rule="evenodd"/>
    <path id="Path_200" data-name="Path 200" d="M332.412,166.406c-2.286,0-4.224-19.048-1.938-19.5Z" transform="translate(-279.943 -70.343)" fill="#d4ead7" fill-rule="evenodd"/>
    <path id="Path_201" data-name="Path 201" d="M275.571,93.74a65.5,65.5,0,0,1-7.518,11.323,88.434,88.434,0,0,1-6.316,6.971l5.1,1.649s9.107-9.729,11.335-13.662,1.715-4.557,1.715-4.557Z" transform="translate(-173.936 -60.538)" fill="#5a5749" fill-rule="evenodd"/>
    <path id="Path_202" data-name="Path 202" d="M235.829,72.571c.853.14,26.157,7.5,26.157,7.5s-6.355,17.949.717,20.567c8.884,3.28,27.872-.932,28.482-3.383,6.781-27.408-2.529-36.13-15.433-41.647C260.959,49.273,241.448,54.4,235.829,72.571Z" transform="translate(-162.092 -53.01)" fill="#41292f" fill-rule="evenodd"/>
    <path id="Path_203" data-name="Path 203" d="M237.84,73.85c.853.14,26.157,7.5,26.157,7.5s-6.355,17.949.717,20.567c8.884,3.28,27.872-.932,28.482-3.383.116-.466.223-.932.329-1.389-1.2.326-3.139.829-5.435,1.361-3.875.932-16.285,3.178-19.443,2.553s-4.737-1.994-5.1-5.452,3.274-15.237,3.274-15.237-22.33-6.84-28.269-8.574C238.3,72.452,238.053,73.133,237.84,73.85Z" transform="translate(-164.021 -54.289)" fill="#36434e" fill-rule="evenodd"/>
    <path id="Path_204" data-name="Path 204" d="M194.129,234.637c-37.87-12.115-55.017,4.389-53.438,35.8,0,.531.058,1.081.1,1.621v.224h-3.42v-.056c-.058-.513-.107-1.016-.155-1.519v-.363c0-.41-.068-.811-.1-1.221-2.48-32.794,14.532-50.324,53.283-37.948,11.044,3.541,18.882,8.89,24.442,14.566a60.764,60.764,0,0,0-20.713-11.108Z" transform="translate(0.229 -90.935)" fill="#f2f2f2" fill-rule="evenodd"/>
    <rect id="Rectangle_29" data-name="Rectangle 29" width="64.356" height="4.436" transform="translate(150.702 129.004)" fill="#94a8b2"/>
    <rect id="Rectangle_30" data-name="Rectangle 30" width="66.361" height="67.555" transform="translate(180.114 56.017)" fill="#4bc25a"/>
    <rect id="Rectangle_31" data-name="Rectangle 31" width="69.868" height="9.934" transform="translate(178.221 55.73)" fill="#f2f2f2"/>
    <rect id="Rectangle_32" data-name="Rectangle 32" width="69.723" height="4.436" transform="translate(178.304 115.108)" fill="#94a8b2"/>
    <path id="Path_205" data-name="Path 205" d="M107.06,141.37h-3.517l-6.4,17.324h3.517Z" transform="translate(108.456 -25.926)" fill="#717f86" fill-rule="evenodd"/>
    <path id="Path_206" data-name="Path 206" d="M124.33,141.37h-3.517l-6.4,17.324h3.517Z" transform="translate(76.426 -25.926)" fill="#717f86" fill-rule="evenodd"/>
    <path id="Path_207" data-name="Path 207" d="M316.8,157.148c-.446-.466-9.368-7.334-9.94-7.549a54.1,54.1,0,0,0-9.184.764c-.862.345-.785,8.21-.785,8.21s4.108,4.138,5.135,4.315,5.193-2.525,5.193-2.525l.358-1.724a4.418,4.418,0,0,0,2.122,2.088c1.463.606,6.452,0,5.987-.289S316.8,157.148,316.8,157.148Z" transform="translate(-240.577 -70.515)" fill="#f9d8c7" fill-rule="evenodd"/>
    <path id="Path_208" data-name="Path 208" d="M308.511,159.791a2.733,2.733,0,1,1,2.906-2.721,2.69,2.69,0,0,1-.862,1.945A2.91,2.91,0,0,1,308.511,159.791Z" transform="translate(-244.091 -70.968)" fill="#3e3b3a" fill-rule="evenodd"/>
    <path id="Path_209" data-name="Path 209" d="M298.233,125.265c-2.344,4.5-19.376,47.826-23.706,49.895s-36.814-16.542-36.814-16.542l1.511-5.312s27.387,10.95,30.4,9.319,12.149-42.039,13.563-44.8C287.2,110.354,300.6,120.726,298.233,125.265Z" transform="translate(-168.405 -66.243)" fill="#f9d8c7" fill-rule="evenodd"/>
    <path id="Path_210" data-name="Path 210" d="M320.963,153.379a1.565,1.565,0,0,0-.794.224l-2.577-.242s-1.628.932-1.279,1.994a2.048,2.048,0,0,0,1.783,1.51l1.734-.1a1.556,1.556,0,0,0,1.133.5,1.963,1.963,0,0,0,0-3.886Z" transform="translate(-257.401 -70.72)" fill="#5a5749" fill-rule="evenodd"/>
    <path id="Path_211" data-name="Path 211" d="M325.6,151.892c-.329-.177-4.534-1.482-4.534-1.482l-5.154,1s-4.379,4.138-3.875,4.417,2.693.419,3.052-.28a9.087,9.087,0,0,1,1.618-1.752l3.294-.867,3.342.932Z" transform="translate(-262.874 -70.282)" fill="#f9d8c7" fill-rule="evenodd"/>
    <path id="Path_212" data-name="Path 212" d="M272.978,97.972c1.221-.932,8.913,0,10.511.764,0,0-1.938.447-1.434.475,2.461.158,6.152,3.336,7.818,5,0,0-2.974-.55-2.122-.168,4.573,2.013,3.662,13.177,3.41,13.047s-2.684-1.929-2.684-1.929,1.463,2.311,1.037,2.1l-3.623-1.724-1.511-.755.581,1.687s-1.763-.932-4.844-2.376-5.018-6.384-5.018-6.384,0,1.277-.078,1.072C273.123,105.166,273.065,101.932,272.978,97.972Z" transform="translate(-194.962 -61.242)" fill="#a95c40" fill-rule="evenodd"/>
    <path id="Path_213" data-name="Path 213" d="M273.77,97.771c3.032-5.461,14.328,6.207,18.407,1.454,0,0,0,1.482-3.623,3.793C282.383,106.969,271.9,103.223,273.77,97.771Z" transform="translate(-196.203 -60.742)" fill="#a95c40" fill-rule="evenodd"/>
    <path id="Path_214" data-name="Path 214" d="M288.892,81.14s-.223,5.9-.048,7.791c.2,2.143.765,3,1.347,2.647,1.153-.718,1.095-8.387.639-9.561a10.625,10.625,0,0,0-1.938-.876Z" transform="translate(-209.567 -54.925)" fill="#717f86" fill-rule="evenodd"/>
    <path id="Path_215" data-name="Path 215" d="M289.167,81.14s-.058,1.538-.087,3.29c.388,2.432.872,5.424,1.153,7.222a.567.567,0,0,0,.232-.075c.291-.177.494-.783.649-1.612l-1.5-8.658Z" transform="translate(-209.836 -54.925)" fill="#81939c" fill-rule="evenodd"/>
    <path id="Path_216" data-name="Path 216" d="M260.276,121.5c.969-7.791-16.469-14.575-19.627,1.519-.523,2.628-5.009,21.928-5.009,21.928S250.85,153.263,251,152.8C252.942,146.563,258.707,133.879,260.276,121.5Z" transform="translate(-131.605 -64.869)" fill="#b7c9ba" fill-rule="evenodd"/>
    <path id="Path_217" data-name="Path 217" d="M135.3,196.752a.771.771,0,0,1-.794-.746.732.732,0,0,1,.237-.528.792.792,0,0,1,.557-.208.762.762,0,0,1,.785.736.732.732,0,0,1-.23.53A.791.791,0,0,1,135.3,196.752Z" transform="translate(77.694 -77.952)" fill="#b7c9ba" fill-rule="evenodd"/>
    <path id="Path_218" data-name="Path 218" d="M152.565,196.531a.746.746,0,1,1,.775-.746A.761.761,0,0,1,152.565,196.531Z" transform="translate(45.624 -77.912)" fill="#b7c9ba" fill-rule="evenodd"/>
    <path id="Path_219" data-name="Path 219" d="M157.965,211.962a.762.762,0,0,1-.785-.736.732.732,0,0,1,.23-.531.791.791,0,0,1,.554-.215.771.771,0,0,1,.794.746.732.732,0,0,1-.237.528A.792.792,0,0,1,157.965,211.962Z" transform="translate(35.584 -80.619)" fill="#b7c9ba" fill-rule="evenodd"/>
    <path id="Path_220" data-name="Path 220" d="M140.575,212.191a.746.746,0,1,1,.775-.746A.761.761,0,0,1,140.575,212.191Z" transform="translate(67.896 -80.658)" fill="#b7c9ba" fill-rule="evenodd"/>
    <path id="Path_221" data-name="Path 221" d="M196.723,218.475c4.582,1.612,22.805,17.921,20.993,19.868S204.327,226.9,194.93,223.432s-22.669-2-39.09-1.8-20.519-3.01-16.469-3.867S190.89,216.434,196.723,218.475Z" transform="translate(-3.517 -83.473)" fill="#f2f2f2" fill-rule="evenodd"/>
    <path id="Path_222" data-name="Path 222" d="M140.885,268.061c1.676.326,15.665,1.379,14.532-.718s-12.478-14.706-1.434-21.742,25.256-4.343,36.155-.3,17.787,8.835,14.919,7.306c-2.906-2.628-8.457-10.055-20.509-14.491C135.266,219.955,127.555,265.517,140.885,268.061Z" transform="translate(10.445 -91.388)" fill="#e6e6e6" fill-rule="evenodd"/>
    <path id="Path_223" data-name="Path 223" d="M346.13,248.049l3.875,1.7s6.937-4.837,13.989-6.011a22.916,22.916,0,0,1,12.119,1.109,13.838,13.838,0,0,0-8.322-4.762C354.568,238.124,346.13,248.049,346.13,248.049Z" transform="translate(-339.804 -86.539)" fill="#f2f2f2" fill-rule="evenodd"/>
    <path id="Path_224" data-name="Path 224" d="M108.5,135.651V78.58h14.493l7.46,57.071Z" transform="translate(75.827 -16.518)" fill="#f2f2f2" fill-rule="evenodd"/>
    <path id="Path_225" data-name="Path 225" d="M132.446,77.854H116.2V67.92h16.246v9.934Z" transform="translate(67.041 -12.19)" fill="#4bc25a" fill-rule="evenodd"/>
    <path id="Path_226" data-name="Path 226" d="M206.012,181.055Zm-10.87-40.147s2.732,2.628,9.61,11.043c5.813,7.148,6.006,20.167,8.893,26.914.087.2.174.4.271.587a8.606,8.606,0,0,0,1.569,2.348c3.023,3.019,12.594,8.387,20.025,12.18l2.906,1.445,1.85.932c-1.221.335-2.47.643-3.875.932l-.9-.186c-.717-.168-1.463-.391-2.248-.652-8.322-2.8-20.238-10.745-27.252-15.311l-.736-.485-.9-.578c2.441-13.485-4.263-25.348-12.875-35.9,2.315-6.356,4.96-14.268,5.948-22.058a4.484,4.484,0,0,0,0-1.081c.349.932.765,2.153,1.259,3.672C200.606,130.415,195.142,140.908,195.142,140.908Z" transform="translate(-72.497 -68.532)" fill="#f2f2f2" fill-rule="evenodd"/>
    <path id="Path_227" data-name="Path 227" d="M247.717,143.846c-1.366,3.728-2.606,6.924-3.333,9.235a12.391,12.391,0,0,1-3.013-1.3l-1.046-.531-.639-.326c-1.279-.662-2.693-1.407-4.059-2.134a36.249,36.249,0,0,0,4.97-.112,4.751,4.751,0,0,0,.911-.14,4.129,4.129,0,0,0,1.356-.447,9.23,9.23,0,0,0,1.385-2.991c.387-1.081.814-2.4,1.279-3.858.688-2.19,1.444-4.715,2.18-7.288,1.25-4.333,2.48-8.8,3.342-12,.213-.764.4-1.463.562-2.069l.668-2.507a20.973,20.973,0,0,1,1.4,3.336,4.484,4.484,0,0,1,0,1.081C252.677,129.578,250.032,137.527,247.717,143.846Z" transform="translate(-125.489 -65.523)" fill="#abc0ad" fill-rule="evenodd"/>
    <path id="Path_228" data-name="Path 228" d="M298.751,153.8c-5.067,11.574-10.347,22.785-12.488,23.81-3.875,1.864-30.42-12.944-35.845-16l-.969-.541.068-.233a11.961,11.961,0,0,0,1.366.056s30.962,15.116,34.111,13.047c2.848-1.864,8.012-19,8.99-22.31l.165-.55c1.366.727,2.78,1.472,4.059,2.134l.639.326Z" transform="translate(-179.671 -71.521)" fill="#f8cbb3" fill-rule="evenodd"/>
    <path id="Path_229" data-name="Path 229" d="M316.906,161.262l-.068.233h-.911a7.852,7.852,0,0,1-2.78-.252,3.725,3.725,0,0,1-1.318-.932,4.456,4.456,0,0,1-.8-1.156l-.213,1.016-.145.708a32.789,32.789,0,0,1-4.05,2.246,2.537,2.537,0,0,1-1.143.28,5.048,5.048,0,0,1-1.521-.932l-.32-.27-.165-.14c-.465-.4-.969-.848-1.4-1.267-.969-.932-1.724-1.668-1.724-1.668V158l.368.783c.184.354,2.722,2.33,3.507,3.057a2.863,2.863,0,0,0,2.548.308,4.543,4.543,0,0,0,1.569-.773,6.436,6.436,0,0,0,.746-.7c.213-.242.426-.5.62-.764a2.874,2.874,0,0,0,1.666-1.407,7.667,7.667,0,0,0,2.47,2.078,8.361,8.361,0,0,0,2.4.634C316.47,161.224,316.693,161.252,316.906,161.262Z" transform="translate(-243.944 -71.616)" fill="#4bc25a" fill-rule="evenodd"/>
    <path id="Path_230" data-name="Path 230" d="M329.216,171.2l3.323,1.016s-9.465,19.859-13.621,34.481-.581,36.708-3.013,33.549-5.1-23.745-.291-38.022S329.216,171.2,329.216,171.2Z" transform="translate(-264.075 -79.155)" fill="#f2f2f2" fill-rule="evenodd"/>
    <path id="Path_231" data-name="Path 231" d="M263.761,65.588c5.067,6.1,5.745,17.529,2.073,18.7s-17.07-.14-15.781-3.308,7.75-8.853,4.456-13.121-17.438-8.527-16-10.344C241.877,53.268,258.685,59.493,263.761,65.588Z" transform="translate(-141.393 -53.221)" fill="#4c3239" fill-rule="evenodd"/>
    <path id="Path_232" data-name="Path 232" d="M223.318,140.973c-8.467-12.833-16.644-21.434-25.246-26.56s-10.918-5.88-9.978-6.113c27.252,7.12,51.026,44.247,48.1,78.169C236.193,186.469,231.785,153.815,223.318,140.973Z" transform="translate(-65.677 -65.738)" fill="#f2f2f2" fill-rule="evenodd"/>
    <path id="Path_233" data-name="Path 233" d="M283.033,102.78l-.717-.932-.494-.634s3.943.848,6.239.289,2.015-.363,2.965-.932a2.7,2.7,0,0,0,1.163-1.221.5.5,0,0,1,0,.112,1.958,1.958,0,0,1-.262.634,8.338,8.338,0,0,1-2.528,2.5c-.252.177-.523.363-.814.55a12.3,12.3,0,0,1-13.175-.578,5.954,5.954,0,0,1-.969-.988,3.742,3.742,0,0,1-.659-3.728,10.081,10.081,0,0,0,.533,1.072,7.84,7.84,0,0,0,.572.848,5.291,5.291,0,0,0,1.86,1.668c-.058-.084-.465-2.087-.465-2.087a22.365,22.365,0,0,0,5.435,3.169A5.672,5.672,0,0,0,283.033,102.78Z" transform="translate(-196.213 -60.99)" fill="#9a5237" fill-rule="evenodd"/>
    <rect id="Rectangle_33" data-name="Rectangle 33" width="28.269" height="1.836" rx="0.918" transform="translate(170.558 156.338)" fill="#f2f2f2"/>
    <rect id="Rectangle_34" data-name="Rectangle 34" width="28.269" height="1.836" rx="0.918" transform="translate(170.558 160.765)" fill="#f2f2f2"/>
    <rect id="Rectangle_35" data-name="Rectangle 35" width="28.269" height="1.836" rx="0.918" transform="translate(170.558 165.406)" fill="#f2f2f2"/>
    <path id="Path_234" data-name="Path 234" d="M49.582,76.94A62.658,62.658,0,0,0,62.021,87.023c6.559,3.728,5.813.093,13.234,1.864s13.97,13.27,13.97,13.27S76.785,96.492,70.5,96.566s-8.884,1.985-16.14,1.482S35.67,88.822,35.67,88.822a24.018,24.018,0,0,0,9.213-2.032C49.475,84.675,49.582,76.94,49.582,76.94Z" transform="translate(209.313 -54.639)" fill="#000915" fill-rule="evenodd"/>
    <path id="Path_235" data-name="Path 235" d="M76.689,76a3.854,3.854,0,0,1,1.55,1.184.756.756,0,0,1-.053.68.815.815,0,0,1-.587.382,2.9,2.9,0,0,1-1.783-1.258C75.73,76.6,76.689,76,76.689,76Z" transform="translate(181.354 -54.575)" fill="#f2f2f2" fill-rule="evenodd"/>
    <path id="Path_236" data-name="Path 236" d="M91.145,90.008c-.155-.121-1.124-1.351-1.938-1.258s-1.259.541-.969,1.062a3.035,3.035,0,0,0,2.083,1.2C91.165,91.061,91.145,90.008,91.145,90.008Z" transform="translate(156.55 -55.443)" fill="#f2f2f2" fill-rule="evenodd"/>
    <path id="Path_237" data-name="Path 237" d="M97.968,267.314a5.2,5.2,0,0,0-5.357,5.023,4.733,4.733,0,0,0,.513,2.032,3.45,3.45,0,0,0-3.284,3.187,3.528,3.528,0,0,0,3.759,3.215,4.07,4.07,0,0,0,2.587-.885,5.637,5.637,0,0,0,5.164,2.8,5.906,5.906,0,0,0,4.786-2.153,3.669,3.669,0,0,0,2.432.867,3.49,3.49,0,0,0,2.839-1.323,5.872,5.872,0,0,0,1.744.261c2.693,0,4.844-1.8,4.844-4.026a3.331,3.331,0,0,0-.1-.82,2.892,2.892,0,0,0,.572.056,2.8,2.8,0,1,0,0-5.591,3.254,3.254,0,0,0-.862.121,3.842,3.842,0,0,0-4.069-3.159,4.2,4.2,0,0,0-3.788,2.06,3.84,3.84,0,0,0-4.117-3.234,3.991,3.991,0,0,0-4.069,2.8A5.559,5.559,0,0,0,97.968,267.314Z" transform="translate(131.304 -93.559)" fill="#fff" fill-rule="evenodd"/>
    <path id="Path_238" data-name="Path 238" d="M70.279,269.66a2.682,2.682,0,0,0-1.874.71,2.481,2.481,0,0,0-.8,1.778,2.373,2.373,0,0,0,.232,1.016,1.7,1.7,0,0,0-1.628,1.575,1.75,1.75,0,0,0,1.86,1.594,1.985,1.985,0,0,0,1.279-.438,2.8,2.8,0,0,0,2.558,1.37A2.953,2.953,0,0,0,74.28,276.2a1.794,1.794,0,0,0,1.192.429,1.711,1.711,0,0,0,1.4-.652,2.92,2.92,0,0,0,.862.13,2.327,2.327,0,0,0,1.662-.5,2.155,2.155,0,0,0,.8-1.49,1.9,1.9,0,0,0,0-.41,1.372,1.372,0,0,0,.281,0,1.4,1.4,0,1,0,0-2.8,1.618,1.618,0,0,0-.426.056,1.923,1.923,0,0,0-2.025-1.538,2.091,2.091,0,0,0-1.879,1.016,2.118,2.118,0,0,0-4.04-.205,2.764,2.764,0,0,0-1.831-.578Z" transform="translate(187.017 -93.771)" fill="#fff" fill-rule="evenodd"/>
    <path id="Path_239" data-name="Path 239" d="M103.24,85.108c33.123,1.426,66.352,1.249,99.629,2.535C169.931,83.412,136.382,83.589,103.24,85.108Z" transform="translate(40.832 -55.128)" fill="#fff" fill-rule="evenodd"/>
    <path id="Path_240" data-name="Path 240" d="M52.41,139.335c48.827-.643,92.935.429,141.568,1.864,13.146.382,8.583.28,21.953.335C162.522,137.611,105.77,134.983,52.41,139.335Z" transform="translate(66.389 -67.87)" fill="#fff" fill-rule="evenodd"/>
    <path id="Path_241" data-name="Path 241" d="M42.32,198.427c41.309.559,79.014,3.1,119.867,4.715,10.511.419,7.75.308,18.475.345C135.7,199.667,87.242,195.473,42.32,198.427Z" transform="translate(111.433 -78.65)" fill="#fff" fill-rule="evenodd"/>
    <path id="Path_242" data-name="Path 242" d="M49.69,243.4c51.423.447,100.889.867,152.263,5.06C164.52,242.035,88,240.124,49.69,243.4Z" transform="translate(83.002 -86.585)" fill="#fff" fill-rule="evenodd"/>
  </g>
</svg>
