<svg xmlns="http://www.w3.org/2000/svg" width="83.638" height="83.638" viewBox="0 0 83.638 83.638">
  <g id="brand-engagement" transform="translate(0 0.001)">
    <path id="Path_3527" data-name="Path 3527" d="M272,400h5.227v2.614H272Zm0,0" transform="translate(-227.568 -334.659)" fill="#fff"/>
    <path id="Path_3528" data-name="Path 3528" d="M256,432h10.455v2.614H256Zm0,0" transform="translate(-214.181 -361.432)" fill="#fff"/>
    <path id="Path_3529" data-name="Path 3529" d="M73.183,23.522V13.067a13.045,13.045,0,0,0-19.6-11.3,13.045,13.045,0,0,0-19.6,11.3V23.522H26.137V54.886H23.523V49.659a7.849,7.849,0,0,0-7.841-7.841H14.375v8.323a1.293,1.293,0,0,1-.237.75l-3.321,4.744a1.306,1.306,0,0,1-1.071.558H6.534V53.579H0v2.614H3.921V77.1H0v2.614H6.534V75.8H10.8l5.227,2.614H26.137v5.227h57.5V23.522ZM60.114,2.613A10.467,10.467,0,0,1,70.569,13.067V23.522H60.114V13.067a13.02,13.02,0,0,0-4.2-9.568A10.382,10.382,0,0,1,60.114,2.613ZM53.58,4.919A10.431,10.431,0,0,1,57.5,13.067V23.522H49.66V13.067A10.431,10.431,0,0,1,53.58,4.919ZM36.591,13.067A10.442,10.442,0,0,1,51.244,3.5a13.02,13.02,0,0,0-4.2,9.568V23.522H36.591Zm-9.148,57.5H24.83v2.614h2.614v1.307A1.307,1.307,0,0,1,26.137,75.8H16.644l-5.227-2.614H6.534V58.807H9.746a3.929,3.929,0,0,0,3.213-1.672l3.321-4.743a3.9,3.9,0,0,0,.708-2.25V44.6a5.236,5.236,0,0,1,3.921,5.061V57.5H33.978a1.307,1.307,0,0,1,0,2.614H27.444v2.614h5.227v1.307a1.307,1.307,0,0,1-1.307,1.307H24.83v2.614h5.227v1.307a1.307,1.307,0,0,1-1.307,1.307Zm37.9,10.455H28.75V77.39a3.9,3.9,0,0,0,1.307-2.9v-1.53a3.928,3.928,0,0,0,2.614-3.7v-1.53a3.928,3.928,0,0,0,2.614-3.7V62.5a3.921,3.921,0,0,0-1.307-7.618H28.75V26.136h5.227v5.227H31.364v2.614h7.841V31.363H36.591V26.136H57.5v5.227H54.887v2.614h7.841V31.363H60.114V26.136h5.227Zm2.614-54.887h5.227V71.47l-5.227,7.6Zm1.829,54.887,4.749-6.908,5.183,6.908Zm11.239-2.614L75.8,71.44v-45.3h5.227Zm0,0" transform="translate(0 0)" fill="#fff"/>
    <path id="Path_3530" data-name="Path 3530" d="M221.1,233.975a8.2,8.2,0,0,0-10.668,12.389L221.1,257.031l10.668-10.668A8.2,8.2,0,0,0,221.1,233.975Zm8.82,10.541-8.82,8.82-8.82-8.82a5.583,5.583,0,0,1,7.9-7.89l.924.915.924-.924a5.583,5.583,0,1,1,7.9,7.9Zm0,0" transform="translate(-174.052 -194.417)" fill="#fff"/>
    <path id="Path_3531" data-name="Path 3531" d="M0,1H31.364V3.614H0ZM0,1" transform="translate(0 -0.838)" fill="#fff"/>
    <path id="Path_3532" data-name="Path 3532" d="M0,32H23.523v2.614H0Zm0,0" transform="translate(0 -26.774)" fill="#fff"/>
    <path id="Path_3533" data-name="Path 3533" d="M0,64H15.682v2.614H0Zm0,0" transform="translate(0 -53.546)" fill="#fff"/>
  </g>
</svg>
