<svg id="Group_206" data-name="Group 206" xmlns="http://www.w3.org/2000/svg" width="106.581" height="120.706" viewBox="0 0 106.581 120.706">
  <path id="Path_657" data-name="Path 657" d="M364.529,837.391h94.325l5.76-4.1H374.97Z" transform="translate(-364.529 -818.203)" fill="#fff"/>
  <g id="Group_202" data-name="Group 202" transform="translate(31.671 0)">
    <g id="Group_200" data-name="Group 200" transform="translate(0 16.448)">
      <path id="Path_658" data-name="Path 658" d="M388.868,836.365c0,1.219-1.272,2.208-2.841,2.208s-2.843-.989-2.843-2.208,1.272-2.208,2.843-2.208S388.868,835.146,388.868,836.365Z" transform="translate(-383.184 -834.157)" fill="#1a0000"/>
      <path id="Path_659" data-name="Path 659" d="M405.977,836.365c0,1.219-1.274,2.208-2.841,2.208s-2.841-.989-2.841-2.208,1.27-2.208,2.841-2.208S405.977,835.146,405.977,836.365Z" transform="translate(-365.649 -834.157)" fill="#1a0000"/>
    </g>
    <g id="Group_201" data-name="Group 201" transform="translate(1.756)">
      <path id="Path_660" data-name="Path 660" d="M420.582,842.465l-1.6-.223c1.318-5.685.3-10.076-3.019-13.051-4.922-4.414-13.392-4.235-13.477-4.23-5.7.141-10.027,1.577-12.864,4.266-5.335,5.062-3.7,12.942-3.687,13.021l-1.6.211c-.077-.346-1.768-8.531,4.031-14.032,3.147-2.982,7.874-4.573,14.064-4.726.373-.01,9.306-.214,14.751,4.655C420.85,831.635,421.991,836.382,420.582,842.465Z" transform="translate(-384.051 -823.698)" fill="#1a0000"/>
    </g>
  </g>
  <path id="Path_661" data-name="Path 661" d="M453.476,937.418h-81.8L364.529,835.9h93.59Z" transform="translate(-364.529 -816.712)" fill="#4bc25a"/>
  <path id="Path_662" data-name="Path 662" d="M388.2,876.35c-7.034-12.21-11.972-25.735-13.584-39.4-.042-.349-.078-.7-.117-1.052h-9.972l7.1,101.518h81.344l.941-20.676C426.274,919.213,399.867,896.6,388.2,876.35Z" transform="translate(-364.529 -816.711)" fill="#fff"/>
  <path id="Path_663" data-name="Path 663" d="M414.449,938.91l18.267-9.459-.5-7.447-5.993-88.711-6.495,4.1Z" transform="translate(-326.136 -818.203)" fill="#fff"/>
  <g id="Group_205" data-name="Group 205" transform="translate(27.681 6.365)">
    <g id="Group_203" data-name="Group 203" transform="translate(0 16.448)">
      <path id="Path_664" data-name="Path 664" d="M386.516,840.412c0,1.219-1.27,2.208-2.841,2.208s-2.841-.989-2.841-2.208,1.272-2.208,2.841-2.208S386.516,839.193,386.516,840.412Z" transform="translate(-380.834 -838.204)" fill="#2b240e"/>
      <path id="Path_665" data-name="Path 665" d="M403.626,840.412c0,1.219-1.27,2.208-2.841,2.208s-2.841-.989-2.841-2.208,1.272-2.208,2.841-2.208S403.626,839.193,403.626,840.412Z" transform="translate(-363.3 -838.204)" fill="#2b240e"/>
    </g>
    <g id="Group_204" data-name="Group 204" transform="translate(1.755)">
      <path id="Path_666" data-name="Path 666" d="M418.231,846.512l-1.6-.223c1.318-5.685.3-10.075-3.017-13.051-4.924-4.414-13.394-4.235-13.477-4.23-5.7.142-10.029,1.577-12.864,4.266-5.337,5.062-3.705,12.942-3.687,13.021l-1.6.209c-.075-.344-1.768-8.528,4.031-14.029,3.147-2.983,7.878-4.575,14.064-4.727.375-.008,9.308-.214,14.751,4.655C418.5,835.682,419.642,840.429,418.231,846.512Z" transform="translate(-381.701 -827.745)" fill="#2b240e"/>
    </g>
  </g>
  <path id="Path_667" data-name="Path 667" d="M383.442,850.171s-3.406,32.048,54.512,38.384l2.543-22.546,1.786-15.837Z" transform="translate(-353.254 -808.54)" fill="#fff" opacity="0.3"/>
</svg>
