<?xml version="1.0" encoding="utf-8"?>
<!-- Generator: Adobe Illustrator 22.0.1, SVG Export Plug-In . SVG Version: 6.00 Build 0)  -->
<svg version="1.1" id="Layer_1" xmlns="http://www.w3.org/2000/svg" xmlns:xlink="http://www.w3.org/1999/xlink" x="0px" y="0px"
	 viewBox="0 0 1920 1080" style="enable-background:new 0 0 1920 1080;" xml:space="preserve">
<style type="text/css">
	.st0{fill:#4BC25A;}
</style>
<g>
	<path class="st0" d="M208.5,929.3c-181.7,0-353.4-38.6-483.3-108.7c-61-32.9-109.7-70.9-144.8-112.9
		c-35.5-42.5-54.9-86.8-57.8-131.6c-3.1-47.4,15.7-101.5,54.2-156.6c38.1-54.4,94.8-108.8,163.9-157.1
		c72.1-50.5,157.5-94,246.7-125.9c98.3-35.1,200.1-56.3,302.5-63c36.3-2.4,73.1-3.6,109.5-3.6c94.6,0,186.9,7.9,274.6,23.5
		c85.6,15.2,163,37.1,229.9,65c139.2,58,219,136.8,224.5,221.7c3.1,47.1-19.2,103.6-64.5,163.4c-44.3,58.5-108.9,118.1-186.7,172.2
		c-81,56.4-174.2,105.1-269.5,141c-105.4,39.7-210.7,63.2-312.9,69.8C266.1,928.4,237.1,929.3,208.5,929.3z"/>
	<path class="st0" d="M399.5,70.4c94.5,0,186.9,7.9,274.4,23.4c85.6,15.2,162.9,37.1,229.8,64.9c139.1,58,218.7,136.5,224.2,221.3
		c3.1,47-19.2,103.4-64.4,163.1c-44.3,58.5-108.8,118-186.6,172.1c-81,56.3-174.1,105.1-269.4,140.9
		c-50.8,19.1-102.4,34.7-153.4,46.3c-53.7,12.2-107.3,20.1-159.3,23.5c-28.8,1.9-57.9,2.8-86.4,2.8c-181.7,0-353.2-38.6-483.1-108.6
		c-30.2-16.3-57.8-34.2-82.1-53.1c-24.2-18.9-45.2-39-62.5-59.7c-17.4-20.8-31.1-42.5-40.7-64.3c-9.8-22.2-15.5-44.7-17-67
		c-1.6-23.9,2.4-49.4,11.7-76.1c9.1-26.1,23.4-53.1,42.4-80.2c38.1-54.4,94.7-108.7,163.8-157c35.5-24.8,74-47.9,114.6-68.8
		c42.1-21.6,86.5-40.8,132-57c98.2-35.1,200-56.3,302.4-63C326.3,71.6,363.1,70.4,399.5,70.4L399.5,70.4 M399.5,69.4
		c-36.1,0-72.7,1.2-109.5,3.6c-428.8,28-780.6,308.2-767.9,503.2c11.9,181.7,300.3,353.7,686.4,353.7c28.3,0,57.2-0.9,86.5-2.8
		c428.8-28,846.7-352,834-547C1117.4,201.8,784.2,69.4,399.5,69.4L399.5,69.4z"/>
</g>
<circle class="st0" cx="-195" cy="105" r="36"/>
</svg>
