<?xml version="1.0" encoding="utf-8"?>
<!-- Generator: Adobe Illustrator 22.0.1, SVG Export Plug-In . SVG Version: 6.00 Build 0)  -->
<svg version="1.1" id="Layer_1" xmlns="http://www.w3.org/2000/svg" xmlns:xlink="http://www.w3.org/1999/xlink" x="0px" y="0px"
	 viewBox="0 0 1920 1080" style="enable-background:new 0 0 1920 1080;" xml:space="preserve">
<style type="text/css">
	.st0{fill:#4BC25A;}
</style>
<g>
	<path class="st0" d="M-61.5,994c-87.2,0-172.9-7.4-254.8-22c-80.4-14.3-153.3-34.9-216.5-61.2c-132.8-55.1-209.3-129.8-215.3-210.4
		c-3.7-49.1,5-99.6,25.8-150.2c20.4-49.7,52-98.3,93.9-144.4c74.8-82.3,179.1-152.7,301.4-203.4c64.2-26.6,133-47.6,204.4-62.4
		c75-15.6,153.2-24.3,232.5-26c25.5-0.5,51.1-0.8,76.2-0.8c192.7,0,369.3,16,511,46.2c159.1,34,272.3,84.6,336.5,150.5
		c41.7,42.8,62.1,92,60.8,146.3c-1.3,52.5-22.7,103.5-63.6,151.6c-38.2,45-94.8,88.9-168.1,130.5C732.9,812,548.9,880.5,300.3,947.9
		C189,978,63.9,994-61.5,994z"/>
	<path class="st0" d="M186.1,113.6c93.9,0,184.3,3.8,268.6,11.2c88.3,7.8,169.8,19.6,242.2,35c76.5,16.3,143.3,36.9,198.6,61.1
		c58.6,25.6,104.9,55.7,137.6,89.3c20.4,20.9,35.9,43.6,45.9,67.4c10.4,24.6,15.4,51.1,14.7,78.6c-0.7,26.6-6.5,53-17.3,78.5
		c-10.5,24.7-26,49.2-46.1,72.9c-38.2,45-94.7,88.8-167.9,130.4c-129.8,73.7-313.7,142.2-562.3,209.6
		c-57.1,15.5-117.5,27.2-179.6,34.9c-59.4,7.4-120.7,11.1-182,11.1c-87.2,0-172.8-7.4-254.7-22c-80.4-14.3-153.2-34.9-216.4-61.1
		c-132.7-55-209-129.6-215-210c-3.6-49,5-99.5,25.8-150c20.4-49.7,52-98.2,93.8-144.3c74.8-82.3,179-152.6,301.2-203.3
		c64.2-26.6,132.9-47.6,204.3-62.4c75-15.6,153.2-24.3,232.4-26C135.3,113.9,161,113.6,186.1,113.6L186.1,113.6 M186.1,112.6
		c-25.3,0-50.8,0.3-76.2,0.8c-513.1,10.8-878.8,313.2-858.4,587c12.7,170.2,333.3,294.1,687.1,294.1c120.4,0,244.7-14.4,361.9-46.1
		c446.4-120.9,788.9-274.1,794.4-492.2C1101.1,209.8,663.8,112.6,186.1,112.6L186.1,112.6z"/>
</g>
<circle class="st0" cx="-195" cy="105" r="36"/>
</svg>
