<?xml version="1.0" encoding="utf-8"?>
<!-- Generator: Adobe Illustrator 22.0.1, SVG Export Plug-In . SVG Version: 6.00 Build 0)  -->
<svg version="1.1" id="Layer_1" xmlns="http://www.w3.org/2000/svg" xmlns:xlink="http://www.w3.org/1999/xlink" x="0px" y="0px"
	 viewBox="0 0 1920 1080" style="enable-background:new 0 0 1920 1080;" xml:space="preserve">
<style type="text/css">
	.st0{fill:#5A5858;}
	.st1{fill:#E7C0AD;}
	.st2{fill:#95A198;}
	.st3{fill:#2D2929;}
	.st4{fill:#08334C;}
	.st5{fill:#3E3B3A;}
	.st6{fill:#F2F2F2;}
	.st7{fill:#717172;}
	.st8{fill:#ECE2BA;}
	.st9{fill:#F9D8C7;}
	.st10{fill:#F8CBB1;}
	.st11{fill:#EBC1A9;}
	.st12{fill:#A95C40;}
	.st13{fill:#A5573B;}
	.st14{fill:#76564B;}
	.st15{fill:#FFFADC;}
	.st16{fill:#194867;}
	.st17{fill:#133F5C;}
	.st18{fill:#4BC25A;}
	.st19{fill:#31140C;}
	.st20{fill:#A61D35;}
	.st21{fill:#E6E6E6;}
	.st22{fill:#5A5749;}
	.st23{fill:#D4EAD7;}
	.st24{fill:#41292F;}
	.st25{fill:#36434E;}
	.st26{fill:#94A8B2;}
	.st27{fill:#717F86;}
	.st28{fill:#81939C;}
	.st29{fill:#B7C9BA;}
	.st30{fill:#ABC0AD;}
	.st31{fill:#F8CBB3;}
	.st32{fill:#4C3239;}
	.st33{fill:#9A5237;}
	.st34{fill:#000915;}
	.st35{fill:#FFFFFF;}
</style>
<g>
	
		<image style="overflow:visible;" width="3842" height="1933" xlink:href="city@2x.png"  transform="matrix(0.4997 0 0 0.5587 0 0)">
	</image>
	<g id="bike" transform="translate(0 -0.005)">
		<path id="Path_157" class="st0" d="M1589,743.1c0,1,0.4,1.8,1,1.9c0.6,0.1,1.2-0.5,1.3-1.4c2.4-25.1,8-49.2,16.4-71
			c8.2-21.6,19-40.4,31.9-55.3c0.5-0.6,0.6-1.6,0.3-2.4c0,0,0,0,0-0.1c-0.4-0.8-1.1-0.9-1.7-0.3c-13.1,15.2-24.2,34.3-32.5,56.3
			C1597.2,693,1591.5,717.5,1589,743.1L1589,743.1z"/>
		<path id="Path_158" class="st1" d="M1445.2,704.4c-3.4,10.4-25.6,106.7-32,112.1s-55.2-38.2-55.2-38.2l0.8-12.5
			c0,0,45.1,20.1,45.8,19.4c0.6-0.7,16.5-91.7,18.6-98.1C1428.9,669.9,1448.7,694,1445.2,704.4z"/>
		<path id="Path_159" class="st2" d="M1443.4,689.5c-3.2-6.7-11.9-11.5-18-11.2c-6.2,0.3-10.3,14.7-11.4,20.6
			c-1,6-7.4,50.7-7.4,50.7s21.7,16.7,21.9,15.6C1431.4,750.9,1447.2,711,1443.4,689.5z"/>
		<path id="Path_160" class="st3" d="M1554.6,991.8c1.1,0,22.4,6.3,28.1,6.9l1.2-11.4l-28.2-6.1L1554.6,991.8z"/>
		<path id="Path_161" class="st3" d="M1347.7,975.4c0,0,13.3,11.5,19.3,14.4c5.9,2.9,106.3,3.5,106.3,3.5s27.2,8.3,29.6,8.9
			c2.5,0.6,30.5,5.4,30.9,2.2c0.4-3.3-3-38.6-3-38.6s-41.5,7.7-40.9,10.5c0.6,2.9-2.5,4.1-2.5,4.1L1347.7,975.4z"/>
		<path id="Path_162" class="st4" d="M1488,779.6c-2.3,2.2-90.5,20.1-98.8,34c-8.2,13.9-36.7,132.6-34.8,132.6s29,15.4,29,15.4
			s18.6-125.7,20.3-125.4c1.7,0.3,66.1-8.8,79-7.5s21.4,0.3,23.3-14.1C1507.8,800.4,1488,779.6,1488,779.6z"/>
		<path id="Path_163" class="st5" d="M1490,972.5c0-32.9,17.7-59.5,39.5-59.5s39.5,26.6,39.5,59.5s-17.7,59.5-39.5,59.5
			C1507.7,1032,1490,1005.4,1490,972.5L1490,972.5z"/>
		<path id="Path_164" class="st6" d="M1503.9,972.5c0-21.7,11.7-39.3,26.1-39.3s26.1,17.6,26.1,39.3s-11.7,39.3-26.1,39.3
			S1503.9,994.2,1503.9,972.5z"/>
		<path id="Path_165" class="st7" d="M1512,972.5c-0.4-15.8,7.5-29.2,17.6-29.8c10.1-0.6,18.6,11.7,19,27.6
			c0.4,15.8-7.5,29.2-17.6,29.8c-0.2,0-0.5,0-0.7,0c-4.8,0-9.5-2.9-12.9-8.1C1513.9,986.9,1512,979.9,1512,972.5z"/>
		<path id="Path_166" class="st8" d="M1524.8,972.5c-0.1-5,2.4-9.3,5.6-9.5c3.2-0.2,5.9,3.7,6,8.7c0.1,5-2.4,9.3-5.6,9.5
			c-0.1,0-0.2,0-0.2,0C1527.4,981.3,1524.9,977.4,1524.8,972.5z"/>
		<path id="Path_167" class="st9" d="M1387.3,594.5c0,0-15.4,27.7-15.7,29c-0.4,1.4,1.7,13.6,0.3,16.1c-1.4,2.4-8.6,10.5-8.2,12.9
			c0.4,2.4,3.8,6.3,6.2,6.1s1.7,2.5,1.7,2.5s-2.8,8.8,3.8,20.4s17.6,15.6,22.5,14.7c4.9-1,6.6-2.9,6.6-2.9s6.5-5.4,12.4,4.6
			c3.7,6.7,6.5,14.7,7.9,23.3l23.7-33c0,0-7.1-3.6-10-11.1c-2.9-7.5-4.3-24.4-4.3-24.4s10.9-30,3.9-45.3S1387.3,594.5,1387.3,594.5z
			"/>
		<path id="Path_168" class="st10" d="M1394.7,683.2c0.4,0,0.9,0,1.3-0.1c4.9-0.9,6.6-2.9,6.6-2.9s6.5-5.4,12.4,4.6
			c2.6,4.6,4.7,9.8,6.2,15.5c1.8-1.6,3.5-3.5,5-5.6c0.5-1.4-10.3-20.4-13.2-24.2c-2.9-3.8-2.2-6.1-1.1-6.7s13,0,11.4-1.4
			c-0.3-0.3-21.7-3.6-21.8-3.5c-0.6,0.4-10.4,12.4-9,20.1C1392.7,680.9,1393.6,682.4,1394.7,683.2z"/>
		<path id="Path_169" class="st11" d="M1378.6,611.6c-0.9,1.7-1.9,3.4-2.7,5c8.2,3.4,26,10.8,26,10.8s-0.4,2.6-1,6.3l-26.1-1.6
			c0,0-0.5,16.4-0.5,17.5c0,1,1,1,2.3-0.5s2.2-14.1,2.2-14.1l21.6,2.6c-0.7,4.5-1.1,9-1.3,13.5c-0.2,8.3,3.5,17.8,3.4,17.2
			s4.4-43.8,4.4-43.8L1378.6,611.6z"/>
		<path id="Path_170" class="st12" d="M1386.2,621.6c4.4,3.6,6.4,9.7,4.6,8.6c-1.8-1.1-15.4-5.4-16.3-6.9c-0.9-1.5,0-3.6,0.4-4.3
			C1376.6,616.1,1384.6,620.3,1386.2,621.6z"/>
		<path id="Path_171" class="st12" d="M1408.8,648.9c2.8,11.6,11.3,18.5,15.2,20.7c4,2.2,6.5,2.2,6.1,2c-0.9-1-1.9-2.1-2.7-3.3
			c2.4,0.5,4.8,0.7,7.1,0.4c2.1,0.1,4.2,0.7,6.2,1.8c-0.3-0.6-3.5-4-3.5-4s1.7,2.5,5.6,1.6c2-0.3,3.9-1.3,5.5-3
			c-1.9,0-3.8-0.2-5.7-0.6c0,0,5.3-2.3,3.4-2.7c-2-0.4-10.3-2.6-15.5-21.6L1408.8,648.9z"/>
		<path id="Path_172" class="st13" d="M1381.1,658.6c13.5,6.7,18.1-11.3,20.5-9.6c0,0,1.9,11.7,3.3,13.8c0,0-4.4-1.3-3.1-0.4
			c6.7,4.7,5.4,30.5,5,30.2c-0.4-0.3-4-4.5-4-4.5s2.2,5.3,1.5,4.9l-5.3-4l-2.2-1.8l0.8,3.9c0,0-2.6-2.2-7.1-5.5
			c-4.5-3.4-7.4-14.8-7.4-14.8s0,3-0.1,2.5C1380.2,665.1,1381.3,667.7,1381.1,658.6z"/>
		<path id="Path_173" class="st5" d="M1410.9,633.3l-33.2-4.6c-0.3-1.6-0.7-1.9-3-3.2l-2.6-1.6c-0.6,0.7-1.2,16.2-0.2,22.1
			c0.8,4.3,1.4,6.5,2.7,5.2c3.2-3.3,1.2-17.8,4.3-17.5l31.6,3.2L1410.9,633.3z"/>
		<path id="Path_174" class="st12" d="M1395.4,939.7c0.2,3.3,2.1,34.2,1.4,33.9c-0.7-0.3-24.6-1.1-36.6-3
			c-12.1-1.9-25.3-17.2-21.4-21c3.9-3.8,24.8-1.4,28.8-3.8c3.1-2.2,6.1-4.9,8.8-8.1L1395.4,939.7z"/>
		<path id="Path_175" class="st14" d="M1348.1,947.3c7.4-0.4,16.4,0,18.9-1.6c3.1-2.2,6.1-4.9,8.8-8.1l3.7,0.4
			c-1.3,4.4-4.8,13.2-7.3,14.7c-3.3,1.9-17.4,2.7-19.9,2.2C1350.5,954.3,1348.9,950.5,1348.1,947.3z"/>
		<path id="Path_176" class="st15" d="M1396.9,968.1c0.1,3.4,0.1,5.7-0.1,5.6c-0.7-0.3-24.6-1.1-36.6-3c-12.1-1.9-25.3-17.2-21.4-21
			c1-0.8,2.1-1.3,3.3-1.5c3.1,4.7,10.8,14.7,19.5,15.7C1371.2,965.1,1390.3,967.4,1396.9,968.1z"/>
		<path id="Path_177" class="st16" d="M1493.1,779.2c-2.3,2.2-93.6,24.7-101.4,35s-34.1,131.7-32.2,131.7s29,15.4,29,15.4
			s15-111.3,21.6-116.8c6.6-5.4,64.8-17.4,77.7-16.1s21.4,0.3,23.3-14C1512.9,799.9,1493.1,779.2,1493.1,779.2z"/>
		<path id="Path_178" class="st17" d="M1462.3,789.5l-2.1,0.7l0,0c-1.2,0.6,18.4,31.1,18.4,31.1c-24.3-1.9-66.4,8-71.9,14.7
			c-5.6,6.7-21.8,95.6-26.3,105.4c-3.9,8.5-16.9,5.6-20.2,4.7c4.8,1.9,28.3,15.2,28.3,15.2s15-111.3,21.6-116.8
			c6.6-5.4,64.8-17.4,77.7-16.1c12.9,1.3,21.4,0.3,23.3-14c0.2-1.9,0.2-3.9-0.2-5.7c-3.3,0.2-6.1,0.8-6.1,0.8
			C1503.4,810.5,1475,787.3,1462.3,789.5z"/>
		<path id="Path_179" class="st18" d="M1432.4,660.1c45.8,9.9,87.2,112.6,76,199.1c-3,23.3-41.1-18-56.3-33.3
			c4.3-36.9-10.4-68.6-26.2-96.2c0,0-10.4-16.1-12.2-22.4C1408.1,687.7,1427.6,659.1,1432.4,660.1z"/>
		<path id="Path_180" class="st6" d="M1345.4,809.3c2.1-12.4,7.6-36.4,7.6-36.4l-15.9,6.1l-3,26.2L1345.4,809.3z"/>
		<path id="Path_181" class="st18" d="M1369.9,756.7c-8.1-15.2-38.8-16.2-39-16.1l3.1,48.2C1344.9,788.6,1382.3,780.1,1369.9,756.7z
			"/>
		<path id="Path_182" class="st6" d="M1359.5,756c-1.5-2.6-3.3-4.7-5.3-6.1c-0.6,3.7-1,7.5-1,11.3c-0.4,9.2-13.3,19.6-22.1,26.1
			C1345.9,784.6,1369.8,775.4,1359.5,756z"/>
		<path id="Path_183" class="st6" d="M1351.5,751.2c-3.6-5.2-14.7-3-16.1,7c-1.3,9.4,6.2,17.9,12.2,18.8S1351.5,751.2,1351.5,751.2z
			"/>
		<path id="Path_184" class="st19" d="M1428.3,877.6c-13.4-38.6,50.7-27.9,59.6-28.2c11.8-0.4,17.6-7.7,28.8-8.3
			c16.1-0.8,30.3-4.7,34.3,9.4c4,14.1,0.9,32.5,0.9,32.5C1535.5,885.5,1433.2,891.5,1428.3,877.6z"/>
		<path id="Path_185" class="st20" d="M1567.8,899.4c12.2-2,9.2,32.5,6.8,30.4C1574.3,929.6,1567.8,899.4,1567.8,899.4z"/>
		<path id="Path_186" class="st6" d="M1556.3,902.2c0.9-2,2-3.9,3.2-5.6l11.4,0.4l6.4,42.2L1556.3,902.2z"/>
		<path id="Path_187" class="st18" d="M1418.8,984.1c0-4.5,33-54.5,27.5-79.1c-5.5-24.6-20.3-21.4-22-36.6
			c-1.7-15.3-1.3-15.7-1.3-15.8c0-0.1,62.3,0.2,122.3,0.2c25.1,22.5,45.3,86.8,48.6,127.7l-59-26.3l-70.9,30.2L1418.8,984.1z"/>
		<path id="Path_188" class="st18" d="M1428.2,984.1c0-4.5,33-54.5,27.5-79.1c-5.5-24.6-19.7-20.7-22-36.6
			c-0.5-3.2-2.3-12.6-1.3-15.8l0,0c4,25.9,48.9,32.2,52,42.9c2.5,8.9-5.5,59.7-5.5,59.7s-2,16.9-7.8,29.2L1428.2,984.1z"/>
		<path id="Path_189" class="st5" d="M1256.4,972.4c0-32.9,17.7-59.5,39.5-59.6c21.8,0,39.5,26.6,39.5,59.5
			c0,32.9-17.7,59.5-39.5,59.5C1274,1031.9,1256.4,1005.3,1256.4,972.4L1256.4,972.4z"/>
		<path id="Path_190" class="st8" d="M1269.7,972.4c0-21.7,11.7-39.4,26.1-39.4c14.4,0,26.1,17.6,26.1,39.3
			c0,21.7-11.7,39.4-26.1,39.4C1281.4,1011.7,1269.8,994.1,1269.7,972.4z"/>
		<path id="Path_191" class="st7" d="M1277.5,972.4c-0.4-15.8,7.4-29.2,17.5-29.8c10.1-0.6,18.6,11.7,19,27.5s-7.4,29.2-17.5,29.8
			c-0.2,0-0.5,0-0.7,0C1285.9,1000.2,1277.8,987.9,1277.5,972.4z"/>
		<path id="Path_192" class="st8" d="M1290,972.4c0-3.6,1.4-6.9,3.5-8.2c2.2-1.4,4.6-0.7,6.4,1.8c1.7,2.4,2.2,6.3,1.3,9.6
			c-1.4,4.7-4.9,6.7-7.9,4.5c-0.6-0.4-1.1-1-1.5-1.6C1290.7,977,1290,974.7,1290,972.4z"/>
		<path id="Path_193" class="st18" d="M1338.5,971.9c-42.7,0.5-26.8-24.8-79.7-33c8.2-28.3,29.2-38.8,49-31.3
			C1324.3,914.7,1338.6,943.6,1338.5,971.9z"/>
		<path id="Path_194" class="st21" d="M1338.5,971.9c-42.7,0.5-26.8-24.8-79.7-33c-0.8,0-0.1-4.5,1.5-4.6c5-0.5,19.2,0.5,26.9,5.7
			c9.2,6.2,19.5,17.7,28,22c6.4,3.3,18,4.8,23.3,5.3C1339.4,967.3,1339.8,971.9,1338.5,971.9z"/>
		<path id="Path_195" class="st18" d="M1344.9,753.5c3.7,0.6,17.7,0.6,19.1,8c1.3,7.4-26.5,116.4-21.5,152.3
			c5,35.9,18.1,52.4,27.2,56.3s129.3,7.3,129.3,7.3l-0.1,7c0,0-112.7-0.5-126.6-1.7s-39-34.1-50.4-66.1
			C1310.4,884.6,1344.9,753.5,1344.9,753.5z"/>
		<path id="Path_196" class="st18" d="M1343.5,759.9c3.7,0.6,17.7,0.6,19.1,8c1.3,7.4-26.5,116.4-21.4,152.3
			c5.5,38.5,23.4,64.6,49.7,65.2c8,0.2,71.9,1.8,106.7,1.9v3.5c0,0-112.7-0.5-126.6-1.7c-31.4-2.9-40.3-67.7-72-75.6
			C1296.3,912.8,1338.6,780.1,1343.5,759.9z"/>
		<path id="Path_197" class="st18" d="M1344.9,768.9l1.7,0.2l6.1,0.7l0,0c-47.8,115.6-23.1,177.7-16.3,192.3
			c-10.1-17.5-20.2-37.1-36.1-41.1C1304.1,900.4,1340,789,1344.9,768.9z"/>
		<path id="Path_198" class="st18" d="M1535.8,889.4c51.9,26.1,55.8,94.5,55.8,94.5l-134,0.6
			C1451.9,903.9,1476.8,859.7,1535.8,889.4z"/>
		<path id="Path_199" class="st22" d="M1333.8,788.8c0,0-3.1-46-3.1-48.2c0-0.2,4.9-0.5,5,0.3l3,47.4
			C1338.7,789.3,1333.8,789.7,1333.8,788.8z"/>
		<path id="Path_200" class="st23" d="M1333.8,787.2c-3.4,0-6.2-44.1-2.9-45.1L1333.8,787.2z"/>
		<path id="Path_201" class="st22" d="M1406.4,641.8c-3.1,9.3-6.8,18.1-11.1,26.2c-2.9,5.6-6,11-9.3,16.1l7.5,3.8
			c0,0,13.4-22.5,16.7-31.6c3.3-9.1,2.5-10.5,2.5-10.5L1406.4,641.8z"/>
		<path id="Path_202" class="st24" d="M1365.2,610.2c1.3,0.3,38.6,17.3,38.6,17.3s-9.4,41.5,1.1,47.6c13.1,7.6,41.1-2.2,42-7.8
			c10-63.4-3.7-83.6-22.8-96.3C1402.3,556.4,1373.5,568.2,1365.2,610.2z"/>
		<path id="Path_203" class="st25" d="M1365.3,610.2c1.3,0.3,38.6,17.3,38.6,17.3s-9.4,41.5,1.1,47.6c13.1,7.6,41.1-2.2,42-7.8
			c0.2-1.1,0.3-2.2,0.5-3.2c-1.8,0.8-4.6,1.9-8,3.1c-5.7,2.2-24,7.4-28.7,5.9s-7-4.6-7.5-12.6c-0.5-8,4.8-35.2,4.8-35.2
			s-33-15.8-41.7-19.8C1366,607,1365.6,608.6,1365.3,610.2z"/>
		<path id="Path_204" class="st6" d="M1543.2,897.4c-55.9-28-81.2,10.2-78.9,82.8c0,1.2,0.1,2.5,0.1,3.7v0.5h-5v-0.1
			c-0.1-1.2-0.2-2.3-0.2-3.5v-0.8c0-0.9-0.1-1.9-0.1-2.8c-3.7-75.8,21.4-116.4,78.6-87.8c16.3,8.2,27.9,20.6,36.1,33.7
			C1564.8,911.4,1554.4,902.7,1543.2,897.4L1543.2,897.4z"/>
		<rect id="Rectangle_29" x="1478.8" y="863.4" class="st26" width="95" height="10.3"/>
		<rect id="Rectangle_30" x="1522.2" y="694.6" class="st18" width="98" height="156.2"/>
		<rect id="Rectangle_31" x="1519.4" y="693.9" class="st6" width="103.1" height="23"/>
		<rect id="Rectangle_32" x="1519.5" y="831.2" class="st26" width="102.9" height="10.3"/>
		<path id="Path_205" class="st27" d="M1574.5,832h-5.2l-9.4,40.1h5.2L1574.5,832z"/>
		<path id="Path_206" class="st27" d="M1552.7,832h-5.2l-9.4,40.1h5.2L1552.7,832z"/>
		<path id="Path_207" class="st9" d="M1368.9,765.4c-0.7-1.1-13.8-17-14.7-17.5c-4.5,0-9.1,0.6-13.6,1.8c-1.3,0.8-1.2,19-1.2,19
			s6.1,9.6,7.6,10c1.5,0.4,7.7-5.8,7.7-5.8l0.5-4c0.7,2.1,1.8,3.8,3.1,4.8c2.2,1.4,9.5,0,8.8-0.7
			C1366.5,772.3,1368.9,765.4,1368.9,765.4z"/>
		<path id="Path_208" class="st5" d="M1351.4,770.4c-2.2-0.2-3.9-3.2-3.8-6.7c0.1-3.5,2.1-6.1,4.3-5.9c2.1,0.2,3.8,3,3.8,6.3
			c0,1.7-0.5,3.3-1.3,4.5C1353.6,769.8,1352.6,770.5,1351.4,770.4z"/>
		<path id="Path_209" class="st9" d="M1448,701.5c-3.5,10.4-28.6,110.6-35,115.4s-54.3-38.3-54.3-38.3l2.2-12.3
			c0,0,40.4,25.3,44.9,21.6s17.9-97.2,20-103.6C1431.7,667,1451.5,691,1448,701.5z"/>
		<path id="Path_210" class="st22" d="M1350.2,756.2c-0.4,0-0.8,0.2-1.2,0.5l-3.8-0.6c0,0-2.4,2.2-1.9,4.6c0.3,1.9,1.4,3.3,2.6,3.5
			l2.6-0.2c0.4,0.7,1,1.2,1.7,1.2c1.6-0.4,2.7-2.7,2.5-5.1C1352.4,758,1351.4,756.5,1350.2,756.2L1350.2,756.2z"/>
		<path id="Path_211" class="st9" d="M1348.9,753.7c-0.5-0.4-6.7-3.4-6.7-3.4l-7.6,2.3c0,0-6.5,9.6-5.7,10.2c0.7,0.6,4,1,4.5-0.6
			c0.7-1.5,1.5-2.9,2.4-4.1l4.9-2l4.9,2.2L1348.9,753.7z"/>
		<path id="Path_212" class="st12" d="M1371.5,649.9c1.8-2.2,13.2,0,15.5,1.8c0,0-2.9,1-2.1,1.1c3.6,0.4,9.1,7.7,11.5,11.6
			c0,0-4.4-1.3-3.1-0.4c6.7,4.7,5.4,30.5,5,30.2c-0.4-0.3-4-4.5-4-4.5s2.2,5.3,1.5,4.9l-5.3-4l-2.2-1.7l0.9,3.9c0,0-2.6-2.2-7.1-5.5
			s-7.4-14.8-7.4-14.8s0,3-0.1,2.5C1371.7,666.6,1371.6,659.1,1371.5,649.9z"/>
		<path id="Path_213" class="st12" d="M1370.8,650.6c4.5-12.6,21.1,14.4,27.2,3.4c0,0,0,3.4-5.3,8.8
			C1383.6,671.9,1368.1,663.2,1370.8,650.6z"/>
		<path id="Path_214" class="st27" d="M1373.4,625.6c0,0-0.3,13.6-0.1,18c0.3,5,1.1,6.9,2,6.1c1.7-1.7,1.6-19.4,0.9-22.1
			C1375.4,626.8,1374.4,626.2,1373.4,625.6L1373.4,625.6z"/>
		<path id="Path_215" class="st28" d="M1373.4,625.6c0,0-0.1,3.6-0.1,7.6c0.6,5.6,1.3,12.5,1.7,16.7c0.1,0,0.2-0.1,0.3-0.2
			c0.4-0.4,0.7-1.8,1-3.7l-2.2-20L1373.4,625.6z"/>
		<path id="Path_216" class="st29" d="M1446.3,696c1.4-18-24.3-33.7-29,3.5c-0.8,6.1-7.4,50.7-7.4,50.7s22.5,19.2,22.7,18.2
			C1435.4,753.9,1444,724.6,1446.3,696z"/>
		<path id="Path_217" class="st29" d="M1570.7,839.8c-0.6,0-1.2-0.7-1.2-1.7c0-0.5,0.1-0.9,0.3-1.2c0.2-0.3,0.5-0.5,0.8-0.5
			c0.6,0,1.1,0.7,1.2,1.7c0,0.5-0.1,0.9-0.3,1.2C1571.3,839.6,1571,839.8,1570.7,839.8z"/>
		<path id="Path_218" class="st29" d="M1548.9,839.3c-0.6,0-1.1-0.8-1.1-1.8c0-1,0.5-1.7,1.1-1.7c0.6,0,1.1,0.8,1.1,1.7
			C1550,838.6,1549.5,839.4,1548.9,839.3z"/>
		<path id="Path_219" class="st29" d="M1542,868.8c-0.6,0-1.1-0.7-1.2-1.7c0-0.5,0.1-0.9,0.3-1.2c0.2-0.3,0.5-0.5,0.8-0.5
			c0.6,0,1.2,0.7,1.2,1.7c0,0.5-0.1,0.9-0.3,1.2C1542.6,868.6,1542.3,868.8,1542,868.8z"/>
		<path id="Path_220" class="st29" d="M1564.1,869.2c-0.6,0-1.1-0.8-1.1-1.8s0.5-1.7,1.1-1.7c0.6,0,1.1,0.8,1.1,1.7
			C1565.2,868.5,1564.7,869.2,1564.1,869.2z"/>
		<path id="Path_221" class="st6" d="M1541.5,877.2c6.8,3.7,33.7,41.4,31,46c-2.7,4.5-19.8-26.5-33.6-34.5
			c-13.9-8-33.5-4.6-57.7-4.2c-24.2,0.5-30.3-7-24.3-8.9S1532.9,872.5,1541.5,877.2z"/>
		<path id="Path_222" class="st21" d="M1479.7,973.6c2.5,0.8,23.1,3.2,21.4-1.7s-18.4-34-2.1-50.3c16.3-16.3,37.3-10,53.4-0.7
			c16.1,9.4,26.3,20.4,22,16.9c-4.3-6.1-12.5-23.3-30.3-33.5C1471.4,862.4,1460,967.7,1479.7,973.6z"/>
		<path id="Path_223" class="st6" d="M1265.7,938.5l5.7,3.9c0,0,10.2-11.2,20.6-13.9c6-1.7,12.2-0.8,17.9,2.6
			c-3.1-5.8-7.5-9.8-12.3-11C1278.1,915.6,1265.7,938.5,1265.7,938.5z"/>
		<path id="Path_224" class="st6" d="M1528.4,840.5v-132h21.4l11,132H1528.4z"/>
		<path id="Path_225" class="st18" d="M1550.8,716.9h-24v-23h24V716.9z"/>
		<path id="Path_226" class="st6" d="M1437.4,732.4c0,0,4,6.1,14.2,25.5c8.6,16.5,8.9,46.6,13.1,62.2c0.1,0.5,0.3,0.9,0.4,1.4
			c0.6,2,1.4,3.8,2.3,5.4c4.5,7,18.6,19.4,29.6,28.2l4.3,3.3l2.7,2.2c-1.8,0.8-3.6,1.5-5.7,2.2l-1.3-0.4c-1.1-0.4-2.2-0.9-3.3-1.5
			c-12.3-6.5-29.9-24.9-40.2-35.4l-1.1-1.1l-1.3-1.3c3.6-31.2-6.3-58.6-19-83c3.4-14.7,7.3-33,8.8-51c0.1-0.8,0.1-1.7,0-2.5
			c0.5,2.2,1.1,5,1.9,8.5C1445.4,708.1,1437.4,732.4,1437.4,732.4L1437.4,732.4z"/>
		<path id="Path_227" class="st30" d="M1436.8,746.1c-2,8.6-3.8,16-4.9,21.4c-1.6-0.7-3.1-1.7-4.4-3l-1.5-1.2l-0.9-0.8
			c-1.9-1.5-4-3.3-6-4.9c2.4,0.2,4.9,0.1,7.3-0.3c0.5,0,0.9-0.1,1.3-0.3c0.7-0.2,1.4-0.5,2-1c0.9-2.1,1.6-4.4,2-6.9
			c0.6-2.5,1.2-5.6,1.9-8.9c1-5.1,2.1-10.9,3.2-16.9c1.8-10,3.7-20.4,4.9-27.8c0.3-1.8,0.6-3.4,0.8-4.8l1-5.8
			c0.8,2.5,1.5,5.1,2.1,7.7c0.1,0.8,0.1,1.7,0,2.5C1444.1,713.1,1440.2,731.5,1436.8,746.1z"/>
		<path id="Path_228" class="st31" d="M1432.1,755.3c-7.5,26.8-15.3,52.7-18.4,55.1c-5.7,4.3-44.9-29.9-52.9-37l-1.4-1.3l0.1-0.5
			c0.7,0.1,1.3,0.1,2,0.1c0,0,45.7,35,50.3,30.2c4.2-4.3,11.8-43.9,13.3-51.6l0.2-1.3c2,1.7,4.1,3.4,6,4.9l0.9,0.8L1432.1,755.3z"/>
		<path id="Path_229" class="st18" d="M1364,772.3l-0.1,0.5h-1.3c-1.4,0.2-2.8,0-4.1-0.6c-0.7-0.5-1.4-1.2-1.9-2.2
			c-0.5-0.8-0.9-1.7-1.2-2.7l-0.3,2.3l-0.2,1.6c-1.9,2-3.9,3.7-6,5.2c-0.5,0.4-1.1,0.6-1.7,0.6c-0.8-0.5-1.6-1.2-2.2-2.2l-0.5-0.6
			l-0.2-0.3c-0.7-0.9-1.4-2-2.1-2.9c-1.4-2.2-2.5-3.9-2.5-3.9v-2.6l0.5,1.8c0.3,0.8,4,5.4,5.2,7.1c1.1,1.2,2.5,1.4,3.8,0.7
			c0.8-0.4,1.6-1,2.3-1.8c0.4-0.5,0.8-1,1.1-1.6c0.3-0.6,0.6-1.2,0.9-1.8c1.1-0.5,1.9-1.7,2.5-3.3c1,2,2.2,3.6,3.6,4.8
			c1.1,0.8,2.3,1.3,3.5,1.5C1363.4,772.2,1363.7,772.3,1364,772.3z"/>
		<path id="Path_230" class="st6" d="M1352.5,777.9l4.9,2.3c0,0-14,45.9-20.1,79.8c-6.1,33.8-0.9,84.9-4.4,77.6s-7.5-54.9-0.4-87.9
			C1339.5,816.6,1352.5,777.9,1352.5,777.9z"/>
		<path id="Path_231" class="st32" d="M1437,593.6c7.5,14.1,8.5,40.5,3.1,43.3s-25.2-0.3-23.3-7.7c1.9-7.3,11.4-20.5,6.6-30.3
			s-25.7-19.7-23.6-23.9C1404.7,565.1,1429.5,579.5,1437,593.6z"/>
		<path id="Path_232" class="st6" d="M1489,739c-12.5-29.7-24.6-49.6-37.3-61.4c-12.7-11.9-16.1-13.6-14.7-14.1
			c40.2,16.5,75.3,102.3,71,180.8C1508,844.2,1501.5,768.7,1489,739z"/>
		<path id="Path_233" class="st33" d="M1384.5,661.6l-1.1-2.2l-0.7-1.5c0,0,5.8,2,9.2,0.7c3.4-1.3,3-0.8,4.4-2.2
			c0.8-0.6,1.4-1.6,1.7-2.8c0,0.1,0,0.2,0,0.3c-0.1,0.5-0.2,1-0.4,1.5c-1,2.3-2.2,4.3-3.7,5.8c-0.4,0.4-0.8,0.8-1.2,1.3
			c-6.1,5.5-13.7,5-19.4-1.3c-0.5-0.7-1-1.4-1.4-2.3c-1.3-2.4-1.7-5.7-1-8.6c0.2,0.9,0.5,1.7,0.8,2.5c0.3,0.7,0.5,1.3,0.8,2
			c0.7,1.6,1.6,2.9,2.7,3.9c-0.1-0.2-0.7-4.8-0.7-4.8c2.4,3,5.1,5.5,8,7.3C1383.2,661.4,1383.8,661.6,1384.5,661.6z"/>
		<path id="Rectangle_33" class="st6" d="M1509.5,926.6h39c0.7,0,1.4,1,1.4,2.1l0,0c0,1.2-0.6,2.1-1.4,2.1h-39c-0.7,0-1.4-1-1.4-2.1
			l0,0C1508.1,927.5,1508.7,926.6,1509.5,926.6z"/>
		<path id="Rectangle_34" class="st6" d="M1509.5,936.8h39c0.7,0,1.4,1,1.4,2.1l0,0c0,1.2-0.6,2.1-1.4,2.1h-39c-0.7,0-1.4-1-1.4-2.1
			l0,0C1508.1,937.8,1508.7,936.8,1509.5,936.8z"/>
		<path id="Rectangle_35" class="st6" d="M1509.5,947.6h39c0.7,0,1.4,1,1.4,2.1l0,0c0,1.2-0.6,2.1-1.4,2.1h-39c-0.7,0-1.4-1-1.4-2.1
			l0,0C1508.1,948.5,1508.7,947.6,1509.5,947.6z"/>
		<path id="Path_234" class="st34" d="M1638.5,616.6c5.5,9,11.6,16.8,18.4,23.3c9.7,8.6,8.6,0.2,19.5,4.3
			c11,4.1,20.6,30.7,20.6,30.7s-18.4-13.1-27.6-12.9c-9.3,0.2-13.1,4.6-23.8,3.4c-10.7-1.2-27.6-21.3-27.6-21.3
			c4.7-0.1,9.3-1.7,13.6-4.7C1638.3,634.5,1638.5,616.6,1638.5,616.6z"/>
		<path id="Path_235" class="st6" d="M1637.2,614.5c0.9,0.6,1.7,1.5,2.3,2.7c0.1,0.5,0.1,1.1-0.1,1.6c-0.2,0.5-0.5,0.8-0.9,0.9
			c-1.1-0.4-2-1.4-2.6-2.9C1635.8,615.9,1637.2,614.5,1637.2,614.5z"/>
		<path id="Path_236" class="st6" d="M1622,644.9c-0.2-0.3-1.7-3.1-2.9-2.9c-1.2,0.2-1.9,1.3-1.4,2.5c0.7,1.5,1.8,2.6,3.1,2.8
			C1622,647.4,1622,644.9,1622,644.9z"/>
		<path id="Path_237" class="st35" d="M1594.8,966.9c-4.2-0.2-7.8,5-7.9,11.6c0,1.6,0.3,3.2,0.8,4.7c-2.6,0.2-4.7,3.3-4.8,7.4
			c0.2,4.4,2.7,7.7,5.5,7.4c1.4,0,2.7-0.7,3.8-2c1.6,4.2,4.5,6.7,7.6,6.5c2.7,0.2,5.3-1.7,7.1-5c1,1.3,2.3,2,3.6,2
			c1.6,0.1,3.2-1.1,4.2-3.1c0.8,0.4,1.7,0.6,2.6,0.6c4,0,7.1-4.2,7.1-9.3c0-0.6,0-1.3-0.1-1.9c0.3,0.1,0.6,0.1,0.8,0.1
			c2.3,0.2,4.2-2.5,4.4-6.1c0.1-3.6-1.6-6.6-3.9-6.8c-0.2,0-0.3,0-0.5,0c-0.4,0-0.9,0.1-1.3,0.3c-0.5-4.5-3.1-7.6-6-7.3
			c-2.3-0.1-4.4,1.7-5.6,4.8c-0.5-4.6-3.1-7.9-6.1-7.5c-2.7-0.3-5.2,2.4-6,6.5C1598.6,967.8,1596.7,966.8,1594.8,966.9z"/>
		<path id="Path_238" class="st35" d="M1636.1,971.8c-1,0-2,0.6-2.8,1.6c-0.7,1.1-1.2,2.5-1.2,4.1c0,0.8,0.1,1.6,0.3,2.3
			c-1.3,0.1-2.3,1.6-2.4,3.6c0.1,2.2,1.3,3.8,2.7,3.7c0.7,0,1.4-0.3,1.9-1c0.8,2.1,2.2,3.3,3.8,3.2c1.3,0.1,2.6-0.8,3.5-2.5
			c0.5,0.7,1.1,1,1.8,1c0.8,0,1.6-0.5,2.1-1.5c0.4,0.2,0.8,0.3,1.3,0.3c0.9,0.1,1.8-0.3,2.5-1.2c0.7-0.8,1.1-2.1,1.2-3.4
			c0-0.3,0-0.6,0-0.9c0.1,0,0.3,0,0.4,0c1.1,0,2.1-1.4,2.1-3.2c0-1.8-0.9-3.2-2.1-3.2c0,0,0,0,0,0c-0.2,0-0.4,0-0.6,0.1
			c-0.3-2.2-1.6-3.7-3-3.6c-1.1-0.1-2.2,0.8-2.8,2.3c-0.4-2.6-2.1-4.2-3.8-3.5c-1,0.4-1.8,1.5-2.2,3.1
			C1638.1,972.2,1637.1,971.7,1636.1,971.8L1636.1,971.8z"/>
		<path id="Path_239" class="st35" d="M1469,634.3c48.9,3.3,97.9,2.9,147.1,5.9C1567.4,630.4,1517.9,630.8,1469,634.3z"/>
		<path id="Path_240" class="st35" d="M1431.7,730.3c72.1-1.5,137.2,1,209,4.3c19.4,0.9,12.7,0.6,32.4,0.8
			C1594.2,726.3,1510.5,720.2,1431.7,730.3z"/>
		<path id="Path_241" class="st35" d="M1483.3,842c61,1.3,116.6,7.2,176.9,10.9c15.5,1,11.4,0.7,27.3,0.8
			C1621.1,844.9,1549.6,835.2,1483.3,842z"/>
		<path id="Path_242" class="st35" d="M1452.2,927.7c75.9,1,148.9,2,224.7,11.7C1621.7,924.5,1508.8,920.1,1452.2,927.7z"/>
	</g>
</g>
</svg>
