<svg xmlns="http://www.w3.org/2000/svg" width="115.65" height="86.645" viewBox="0 0 115.65 86.645">
  <g id="deliver" transform="translate(0 -64.205)">
    <g id="Group_1187" data-name="Group 1187" transform="translate(19.872 134.633)">
      <g id="Group_1186" data-name="Group 1186">
        <path id="Path_3574" data-name="Path 3574" d="M116.879,376A12.687,12.687,0,1,1,91.5,376h-3.53a16.217,16.217,0,1,0,32.434,0Z" transform="translate(-87.975 -376)" fill="#fff"/>
      </g>
    </g>
    <g id="Group_1189" data-name="Group 1189" transform="translate(16.353 111.156)">
      <g id="Group_1188" data-name="Group 1188">
        <path id="Path_3575" data-name="Path 3575" d="M92.163,272.063A20.04,20.04,0,0,0,72.4,291.893v1.765H90.281v2.118h3.53v-2.118h18.118v-1.765A20.039,20.039,0,0,0,92.163,272.063ZM75.933,290.128a15.75,15.75,0,0,1,.335-1.882H97.575v-3.53H77.564a16.2,16.2,0,0,1,29.139,0H101.34v3.53H108a15.644,15.644,0,0,1,.335,1.882Z" transform="translate(-72.398 -272.063)" fill="#fff"/>
      </g>
    </g>
    <g id="Group_1191" data-name="Group 1191" transform="translate(0 64.205)">
      <g id="Group_1190" data-name="Group 1190">
        <path id="Path_3576" data-name="Path 3576" d="M97.3,111.218V99.564l-5.412-5.42V83.064A7.154,7.154,0,0,0,97.532,85.8V82.27a3.655,3.655,0,1,1,0-7.31V71.431a7.163,7.163,0,0,0-7,5.553H64.825v3.53H72.12V82.4H70.473v3.53h5.177V80.514h5.412V110.5L71.39,122.163H66.943v3.53h6.105L84.591,111.77V80.514h3.765V95.6l5.412,5.42v3.02h-3.53v3.53h3.53v3.688a20.282,20.282,0,0,0-17.573,16.313H64.951v-26.2A6.465,6.465,0,0,0,61.3,95.556v-2.53h3.655V91.261A9,9,0,0,0,55.96,82.27H41.55v1.765a9,9,0,0,0,7.04,8.775v2.106H39.66V89.5H36.047V69.54A5.342,5.342,0,0,0,30.712,64.2H5.336A5.342,5.342,0,0,0,0,69.54V93.026H26.942v1.9a9.529,9.529,0,0,0-7.226,3.783l-1.354,1.805H8.824v12.717L0,125v5.966H14.41v-3.53H3.53v-1.26l19.01-25.346A5.982,5.982,0,0,1,27.3,98.446H58.494a2.931,2.931,0,0,1,2.928,2.928v.789H46.943v3.53H61.422v21.883H57.766v3.53H75.885v1.647h19.53v2.118h3.53v-2.118H115.65v-1.765A20.17,20.17,0,0,0,97.3,111.218Zm-84.944-2.692v-4.482h3.361ZM3.53,89.5V75.1h9.059V71.573H3.53V69.541a1.808,1.808,0,0,1,1.806-1.806H30.712a1.808,1.808,0,0,1,1.806,1.806v2.032h-9.1V75.1h9.1V89.5H3.53Zm32.6,5.419H30.471v-1.89H36.13Zm21.636,0H52.119v-1.89h5.647v1.89ZM50.541,89.5a5.47,5.47,0,0,1-5.169-3.7H55.961a5.471,5.471,0,0,1,5.169,3.7ZM79.5,129.221a15.749,15.749,0,0,1,.335-1.882H101.3v-3.53H81.134a16.2,16.2,0,0,1,29.139,0h-5.682v3.53h6.978a15.642,15.642,0,0,1,.335,1.882Z" transform="translate(0 -64.205)" fill="#fff"/>
      </g>
    </g>
    <g id="Group_1193" data-name="Group 1193" transform="translate(28.904 134.633)">
      <g id="Group_1192" data-name="Group 1192">
        <path id="Path_3577" data-name="Path 3577" d="M138.8,376a3.655,3.655,0,0,1-7.31,0h-3.53a7.184,7.184,0,0,0,14.368,0Z" transform="translate(-127.963 -376)" fill="#fff"/>
      </g>
    </g>
    <g id="Group_1195" data-name="Group 1195" transform="translate(90.326 134.633)">
      <g id="Group_1194" data-name="Group 1194">
        <path id="Path_3578" data-name="Path 3578" d="M410.723,376a3.655,3.655,0,0,1-7.31,0h-3.53a7.184,7.184,0,0,0,14.369,0Z" transform="translate(-399.884 -376)" fill="#fff"/>
      </g>
    </g>
    <g id="Group_1197" data-name="Group 1197" transform="translate(14.236 71.571)">
      <g id="Group_1196" data-name="Group 1196">
        <rect id="Rectangle_1455" data-name="Rectangle 1455" width="7.53" height="3.53" fill="#fff"/>
      </g>
    </g>
    <g id="Group_1199" data-name="Group 1199" transform="translate(81.293 134.633)">
      <g id="Group_1198" data-name="Group 1198">
        <path id="Path_3579" data-name="Path 3579" d="M388.8,376a12.687,12.687,0,0,1-25.375,0H359.9a16.217,16.217,0,0,0,32.434,0Z" transform="translate(-359.896 -376)" fill="#fff"/>
      </g>
    </g>
    <g id="Group_1201" data-name="Group 1201" transform="translate(99.179 71.336)">
      <g id="Group_1200" data-name="Group 1200">
        <rect id="Rectangle_1456" data-name="Rectangle 1456" width="3.53" height="14.589" fill="#fff"/>
      </g>
    </g>
    <g id="Group_1203" data-name="Group 1203" transform="translate(37.766 102.16)">
      <g id="Group_1202" data-name="Group 1202">
        <rect id="Rectangle_1457" data-name="Rectangle 1457" width="7.53" height="3.53" fill="#fff"/>
      </g>
    </g>
    <g id="Group_1205" data-name="Group 1205" transform="translate(75.649 102.16)">
      <g id="Group_1204" data-name="Group 1204">
        <rect id="Rectangle_1458" data-name="Rectangle 1458" width="3.53" height="5.412" fill="#fff"/>
      </g>
    </g>
    <g id="Group_1207" data-name="Group 1207" transform="translate(3.412 100.278)">
      <g id="Group_1206" data-name="Group 1206">
        <rect id="Rectangle_1459" data-name="Rectangle 1459" width="3.53" height="7.294" fill="#fff"/>
      </g>
    </g>
  </g>
</svg>
