<svg xmlns="http://www.w3.org/2000/svg" width="88.729" height="59.248" viewBox="0 0 88.729 59.248">
  <g id="Group_1224" data-name="Group 1224" transform="translate(-1300 -1607.997)">
    <path id="Path_111" data-name="Path 111" d="M88.721,71.743c-.162-3-1.592-5.907-4.284-8.676-3.9-4.013-10.544-7.752-19.744-11.112a73.978,73.978,0,0,0-25.084-4.52,53.4,53.4,0,0,0-24.461,5.445A29.46,29.46,0,0,0,7.077,58.86,24.532,24.532,0,0,0,.014,76.332C0,76.406,0,88.418,0,88.461a18.5,18.5,0,0,0,11.585,16.177,27.73,27.73,0,0,0,10.779,2.046,30.615,30.615,0,0,0,16.412-4.566C50.82,94.241,59.743,91.87,68.617,94.189c5.824,1.522,10.6,1.238,14.21-.844a12.355,12.355,0,0,0,5.888-8.886C88.732,84.365,88.733,71.819,88.721,71.743ZM84.967,84.033a9.107,9.107,0,0,1-4.158,6.4c-2.656,1.534-6.408,1.683-11.153.443a30.46,30.46,0,0,0-16.264.268c-5.052,1.4-10.551,4.078-16.812,8.172-6.528,4.27-16.368,5.195-23.4,2.2A14.957,14.957,0,0,1,3.783,88.4a17.928,17.928,0,0,0,3.922,3.831,25.367,25.367,0,0,0,14.7,4.278,30.541,30.541,0,0,0,16.373-4.59C48.022,85.855,55.2,83.15,62.057,83.15a25.162,25.162,0,0,1,6.462.843,26.97,26.97,0,0,0,6.768.959h0a13.442,13.442,0,0,0,9.68-3.5v2.582ZM16.883,55.939A41.474,41.474,0,0,1,29.8,51.7L3.877,78.127c0-.041-.6-10.155,5.944-16.9A27.694,27.694,0,0,1,16.883,55.939Zm64.141,8.836c3.062,2.9,4.364,5.9,3.819,8.928-.641,3.561-2.819,7.8-9.557,7.8a22.886,22.886,0,0,1-5.727-.825,30.031,30.031,0,0,0-3.464-.691ZM61.3,79.715c-6.784.168-13.744,2.605-22.179,7.789L68.7,57.307a52.841,52.841,0,0,1,9.5,5.176ZM29.493,92.166a28.564,28.564,0,0,1-7.091.9,24.133,24.133,0,0,1-7.629-1.194l39.075-39.44a71.282,71.282,0,0,1,9.443,2.72c.614.224,1.21.45,1.8.677ZM11.262,90.282a14.473,14.473,0,0,1-6.5-7.9L35.535,51.021c1.339-.09,2.7-.141,4.074-.141a66.642,66.642,0,0,1,9.934.764Z" transform="translate(1300 1560.561)" fill="#3f2d20"/>
    <g id="Group_9" data-name="Group 9" transform="translate(1365.632 1625.08)">
      <path id="Path_112" data-name="Path 112" d="M327.279,128.18c-.091-.117-.179-.233-.274-.349C327.1,127.947,327.189,128.064,327.279,128.18Z" transform="translate(-310.697 -127.228)" fill="#ce593f"/>
      <path id="Path_113" data-name="Path 113" d="M325.22,125.743c-.076-.089-.149-.178-.228-.267C325.071,125.565,325.144,125.654,325.22,125.743Z" transform="translate(-309.2 -125.476)" fill="#ce593f"/>
      <path id="Path_114" data-name="Path 114" d="M329.143,130.592c-.1-.135-.189-.271-.29-.406C328.953,130.321,329.047,130.456,329.143,130.592Z" transform="translate(-312.071 -128.98)" fill="#ce593f"/>
      <path id="Path_115" data-name="Path 115" d="M337.382,147.395c-.04-.2-.087-.4-.14-.6C337.3,146.992,337.342,147.193,337.382,147.395Z" transform="translate(-318.312 -141.332)" fill="#ce593f"/>
      <path id="Path_116" data-name="Path 116" d="M264.886,189.839c-.516-.109-1.033-.208-1.551-.287C263.853,189.631,264.37,189.731,264.886,189.839Z" transform="translate(-263.335 -173.14)" fill="#ce593f"/>
      <path id="Path_117" data-name="Path 117" d="M330.825,132.994c-.094-.15-.188-.3-.289-.448C330.637,132.7,330.732,132.845,330.825,132.994Z" transform="translate(-313.324 -130.735)" fill="#ce593f"/>
      <path id="Path_118" data-name="Path 118" d="M287.893,137.257a9.211,9.211,0,0,1,.088,3.092,13.209,13.209,0,0,0-3.925-7.2l-13.27,14.82-.075-.016c.55.122,1.1.258,1.646.415a21.454,21.454,0,0,0,5.844.923c6.876,0,9.1-4.746,9.752-8.727A9.185,9.185,0,0,0,287.893,137.257Z" transform="translate(-268.822 -131.185)" fill="#ce593f"/>
      <path id="Path_119" data-name="Path 119" d="M336.7,144.993c-.053-.2-.111-.392-.176-.587Q336.624,144.7,336.7,144.993Z" transform="translate(-317.78 -139.557)" fill="#ce593f"/>
      <path id="Path_120" data-name="Path 120" d="M332.333,135.391c-.089-.161-.18-.321-.277-.481C332.154,135.07,332.244,135.231,332.333,135.391Z" transform="translate(-314.455 -132.494)" fill="#ce593f"/>
      <path id="Path_121" data-name="Path 121" d="M335.859,142.593c-.064-.189-.133-.379-.209-.567C335.726,142.215,335.8,142.4,335.859,142.593Z" transform="translate(-317.128 -137.787)" fill="#ce593f"/>
      <path id="Path_122" data-name="Path 122" d="M333.678,137.8c-.083-.172-.168-.344-.261-.515C333.51,137.451,333.6,137.623,333.678,137.8Z" transform="translate(-315.467 -134.257)" fill="#ce593f"/>
      <path id="Path_123" data-name="Path 123" d="M334.851,140.192c-.074-.181-.152-.362-.237-.543C334.7,139.83,334.777,140.011,334.851,140.192Z" transform="translate(-316.358 -136.019)" fill="#ce593f"/>
    </g>
    <path id="Path_124" data-name="Path 124" d="M50.514,66.065l-3.731,4.166A39.9,39.9,0,0,0,39.9,73.368a28.476,28.476,0,0,0-7.207,5.913c-3.566,4.027-5.054,9.127-5.666,13.014Z" transform="translate(1279.895 1546.703)" fill="#ce593f"/>
    <g id="Group_10" data-name="Group 10" transform="translate(1303.979 1639.032)">
      <path id="Path_125" data-name="Path 125" d="M85.865,291.065c.188.006.375.016.563.018C86.24,291.081,86.053,291.071,85.865,291.065Z" transform="translate(-68.248 -266.697)" fill="#ce593f"/>
      <path id="Path_126" data-name="Path 126" d="M58.014,285.8c-.1-.036-.2-.067-.3-.1C57.811,285.729,57.914,285.76,58.014,285.8Z" transform="translate(-46.909 -262.7)" fill="#ce593f"/>
      <path id="Path_127" data-name="Path 127" d="M19.86,232.468q-.305-.336-.593-.687C19.46,232.014,19.657,232.244,19.86,232.468Z" transform="translate(-18.311 -222.597)" fill="#ce593f"/>
      <path id="Path_128" data-name="Path 128" d="M23.047,236.023c.184.191.373.377.565.561C23.42,236.4,23.23,236.214,23.047,236.023Z" transform="translate(-21.123 -225.753)" fill="#ce593f"/>
      <path id="Path_129" data-name="Path 129" d="M15.534,226.268c.256.373.526.734.806,1.087-.28-.354-.55-.716-.806-1.089Z" transform="translate(-15.534 -218.495)" fill="#ce593f"/>
      <path id="Path_130" data-name="Path 130" d="M69.038,289c-.175-.035-.351-.07-.524-.109C68.688,288.928,68.863,288.963,69.038,289Z" transform="translate(-54.944 -265.078)" fill="#ce593f"/>
      <path id="Path_131" data-name="Path 131" d="M95.278,199.614h-.015a23.843,23.843,0,0,1-6.758-.96,22.5,22.5,0,0,0-6.448-.887c-6.836,0-14,3.053-23.221,9.835a28.077,28.077,0,0,1-16.33,5.147,23.377,23.377,0,0,1-14.658-4.776c-.33-.265-.644-.541-.953-.825.04.037.078.079.118.116a15.96,15.96,0,0,0,8.807,11.1,20.968,20.968,0,0,0,7.913,1.923A24.078,24.078,0,0,0,56.644,215.9c6.244-4.578,11.728-7.566,16.767-9.137a27.228,27.228,0,0,1,16.221-.3c4.732,1.386,8.6,1.22,11.25-.5,2.705-1.752,3.273-4.828,4.274-7.157v-2.887A13.615,13.615,0,0,1,95.278,199.614Z" transform="translate(-23.984 -195.925)" fill="#ce593f"/>
      <path id="Path_132" data-name="Path 132" d="M92.582,291.045c-.158.007-.315.006-.472.01C92.267,291.051,92.424,291.052,92.582,291.045Z" transform="translate(-72.928 -266.682)" fill="#ce593f"/>
      <path id="Path_133" data-name="Path 133" d="M63.479,287.591c-.151-.041-.3-.08-.454-.124C63.175,287.512,63.328,287.55,63.479,287.591Z" transform="translate(-50.861 -264.021)" fill="#ce593f"/>
      <path id="Path_134" data-name="Path 134" d="M74.717,290.043q-.282-.038-.563-.082Q74.434,290.005,74.717,290.043Z" transform="translate(-59.14 -265.876)" fill="#ce593f"/>
      <path id="Path_135" data-name="Path 135" d="M80.511,290.736c-.193-.014-.385-.033-.577-.051C80.126,290.7,80.318,290.722,80.511,290.736Z" transform="translate(-63.803 -266.414)" fill="#ce593f"/>
    </g>
    <g id="Group_11" data-name="Group 11" transform="translate(1304.86 1612.005)">
      <path id="Path_136" data-name="Path 136" d="M50.376,63.084l-31.4,35.07h0Z" transform="translate(-18.975 -63.084)" fill="#ce593f"/>
      <path id="Path_137" data-name="Path 137" d="M56.527,72.493c-1.406,0-2.791.056-4.157.158l-30.715,34.3a15.748,15.748,0,0,0,5.946,7.027L64.617,73.044A61.29,61.29,0,0,0,56.527,72.493Z" transform="translate(-20.969 -70.083)" fill="#ce593f"/>
      <path id="Path_138" data-name="Path 138" d="M20.9,205.26c-.057-.133-.111-.269-.165-.4C20.785,204.992,20.839,205.128,20.9,205.26Z" transform="translate(-20.281 -168.544)" fill="#ce593f"/>
    </g>
    <path id="Path_139" data-name="Path 139" d="M111.138,82.378l-.159-.065a67.935,67.935,0,0,0-9.636-3.041l-38.068,42.1q-.457-.122-.908-.263a23,23,0,0,0,6.886,1.029,26.752,26.752,0,0,0,7.236-1.007L112.814,80.5Z" transform="translate(1252.883 1536.879)" fill="#ce593f"/>
    <g id="Group_12" data-name="Group 12" transform="translate(1338.108 1618.885)">
      <path id="Path_140" data-name="Path 140" d="M157.334,218.587c-.484.312-.97.631-1.464.964C156.363,219.218,156.85,218.9,157.334,218.587Z" transform="translate(-155.87 -188.354)" fill="#ce593f"/>
      <path id="Path_141" data-name="Path 141" d="M200.474,100.548l-25.024,27.989c-.066.037-.133.078-.2.115,6.458-3.682,12.122-5.466,17.668-5.616l15.871-17.724A56.73,56.73,0,0,0,200.474,100.548Z" transform="translate(-170.288 -100.548)" fill="#ce593f"/>
      <path id="Path_142" data-name="Path 142" d="M170.411,211.821q-.373.218-.749.444Q170.039,212.039,170.411,211.821Z" transform="translate(-166.13 -183.321)" fill="#ce593f"/>
      <path id="Path_143" data-name="Path 143" d="M164.547,215.091c-.3.182-.593.369-.891.559C163.955,215.46,164.252,215.273,164.547,215.091Z" transform="translate(-161.662 -185.753)" fill="#ce593f"/>
    </g>
  </g>
</svg>
