<svg xmlns="http://www.w3.org/2000/svg" width="72.88" height="72.88" viewBox="0 0 72.88 72.88">
  <g id="Group_1228" data-name="Group 1228" transform="translate(-155.343 -1791)">
    <path id="Path_231" data-name="Path 231" d="M98.762,283.321c.066-.044.142-.075.212-.122C98.9,283.248,98.828,283.279,98.762,283.321Zm0,0" transform="translate(71.576 1550.8)" fill="#ffcd00"/>
    <path id="Path_232" data-name="Path 232" d="M231.055,281.28c.09-.037.187-.059.281-.089C231.242,281.222,231.145,281.242,231.055,281.28Zm0,0" transform="translate(-40.63 1552.503)" fill="#ffcd00"/>
    <path id="Path_233" data-name="Path 233" d="M235.809,280.24c.1-.018.213-.023.322-.033C236.022,280.217,235.914,280.222,235.809,280.24Zm0,0" transform="translate(-44.662 1553.338)" fill="#ffcd00"/>
    <path id="Path_234" data-name="Path 234" d="M373.809,280.8c.072.018.139.044.21.065A1.767,1.767,0,0,0,373.809,280.8Zm0,0" transform="translate(-161.709 1552.834)" fill="#ffcd00"/>
    <path id="Path_235" data-name="Path 235" d="M354.762,283.321c.066-.044.142-.075.212-.122C354.9,283.248,354.828,283.279,354.762,283.321Zm0,0" transform="translate(-145.554 1550.8)" fill="#ffcd00"/>
    <path id="Path_236" data-name="Path 236" d="M103.055,281.28c.09-.037.187-.059.281-.089C103.242,281.222,103.145,281.242,103.055,281.28Zm0,0" transform="translate(67.935 1552.503)" fill="#ffcd00"/>
    <path id="Path_237" data-name="Path 237" d="M369.083,280.063h-.122a2.591,2.591,0,0,1,.345.034C369.228,280.092,369.159,280.068,369.083,280.063Zm0,0" transform="translate(-157.598 1553.46)" fill="#ffcd00"/>
    <path id="Path_238" data-name="Path 238" d="M363.809,280.24c.1-.018.214-.023.322-.033C364.022,280.217,363.914,280.222,363.809,280.24Zm0,0" transform="translate(-153.228 1553.338)" fill="#ffcd00"/>
    <path id="Path_239" data-name="Path 239" d="M359.055,281.28c.09-.037.187-.059.281-.089C359.242,281.222,359.145,281.242,359.055,281.28Zm0,0" transform="translate(-149.196 1552.503)" fill="#ffcd00"/>
    <path id="Path_240" data-name="Path 240" d="M245.809,280.8c.072.018.139.044.21.065A1.768,1.768,0,0,0,245.809,280.8Zm0,0" transform="translate(-53.144 1552.834)" fill="#ffcd00"/>
    <path id="Path_241" data-name="Path 241" d="M107.809,280.24c.1-.018.214-.023.322-.033C108.022,280.217,107.914,280.222,107.809,280.24Zm0,0" transform="translate(63.903 1553.338)" fill="#ffcd00"/>
    <path id="Path_242" data-name="Path 242" d="M226.762,283.321c.066-.044.142-.075.212-.122C226.9,283.248,226.828,283.279,226.762,283.321Zm0,0" transform="translate(-36.989 1550.8)" fill="#ffcd00"/>
    <path id="Path_243" data-name="Path 243" d="M113.083,280.063h-.122a2.592,2.592,0,0,1,.345.034C113.228,280.092,113.159,280.068,113.083,280.063Zm0,0" transform="translate(59.533 1553.46)" fill="#ffcd00"/>
    <path id="Path_244" data-name="Path 244" d="M117.809,280.8c.072.018.139.044.21.065A1.769,1.769,0,0,0,117.809,280.8Zm0,0" transform="translate(55.421 1552.834)" fill="#ffcd00"/>
    <path id="Path_245" data-name="Path 245" d="M241.082,280.063h-.122a2.594,2.594,0,0,1,.345.034C241.228,280.092,241.159,280.068,241.082,280.063Zm0,0" transform="translate(-49.032 1553.46)" fill="#ffcd00"/>
    <path id="Path_246" data-name="Path 246" d="M88.433,292.878a6.1,6.1,0,0,1-1.773-4.3v-4.653a3.859,3.859,0,0,0-2.551-3.665c-.071-.022-.138-.047-.21-.065a3.783,3.783,0,0,0-.394-.071c-.114-.015-.228-.029-.345-.034a3.592,3.592,0,0,0-.458.016c-.109.01-.218.015-.322.033a3.8,3.8,0,0,0-.441.121c-.093.031-.19.052-.281.089a3.514,3.514,0,0,0-.439.225,1.835,1.835,0,0,0-.212.122,3.628,3.628,0,0,0-1.635,3.023v2.429a6.073,6.073,0,0,1-12.147,0v-2.224a3.859,3.859,0,0,0-2.551-3.665c-.071-.022-.138-.047-.21-.065a3.782,3.782,0,0,0-.394-.071c-.114-.015-.228-.029-.345-.034a3.592,3.592,0,0,0-.458.016c-.109.01-.218.015-.322.033a3.794,3.794,0,0,0-.441.121c-.093.031-.19.052-.281.089a3.515,3.515,0,0,0-.439.225,1.836,1.836,0,0,0-.212.122,3.628,3.628,0,0,0-1.635,3.023v7.288a6.073,6.073,0,0,1-12.147,0v-7.083a3.859,3.859,0,0,0-2.551-3.665c-.071-.022-.138-.047-.21-.065a3.783,3.783,0,0,0-.394-.071c-.114-.015-.228-.029-.345-.034a3.592,3.592,0,0,0-.458.016c-.109.01-.218.015-.322.033a3.794,3.794,0,0,0-.441.121c-.093.031-.19.052-.281.089a3.513,3.513,0,0,0-.439.225,1.835,1.835,0,0,0-.212.122,3.628,3.628,0,0,0-1.635,3.023v4.859a6.055,6.055,0,0,1-6.073,6.073,6.2,6.2,0,0,1-2.429-.5v15.074H95.163V294.153a6.2,6.2,0,0,1-2.429.5A6.1,6.1,0,0,1,88.433,292.878Zm0,0" transform="translate(128.201 1553.438)" fill="#ffcd00"/>
    <path id="Path_247" data-name="Path 247" d="M73.592,232H12.859A4.859,4.859,0,0,0,8,236.859v10.932a6.1,6.1,0,0,0,1.773,4.3,6.073,6.073,0,0,0,10.373-4.3v-4.859a3.625,3.625,0,0,1,1.634-3.034c.066-.044.142-.075.212-.122a3.6,3.6,0,0,1,.439-.225c.09-.037.187-.058.281-.088a3.772,3.772,0,0,1,.441-.122c.106-.018.214-.023.322-.033s.206-.021.314-.021c.049,0,.095.012.144.015a.748.748,0,0,1,.121,0,1.75,1.75,0,0,1,.221.039,3.844,3.844,0,0,1,.394.071c.072.02.141.043.21.065a3.625,3.625,0,0,1,2.554,3.455v7.288a6.073,6.073,0,1,0,12.147,0v-7.288a3.625,3.625,0,0,1,1.634-3.034c.066-.044.142-.075.212-.122a3.6,3.6,0,0,1,.439-.225c.09-.037.187-.058.281-.088a3.772,3.772,0,0,1,.441-.122c.106-.018.214-.023.322-.033s.206-.021.314-.021c.049,0,.095.012.144.015a.748.748,0,0,1,.121,0,1.75,1.75,0,0,1,.221.039,3.844,3.844,0,0,1,.394.071c.072.02.141.043.21.065a3.625,3.625,0,0,1,2.554,3.455v2.429a6.073,6.073,0,1,0,12.147,0v-2.429A3.625,3.625,0,0,1,60.65,239.9c.066-.044.142-.075.212-.122a3.6,3.6,0,0,1,.439-.225c.09-.037.187-.058.281-.088a3.772,3.772,0,0,1,.441-.122c.106-.018.214-.023.322-.033s.206-.021.314-.021c.049,0,.095.012.144.015a.748.748,0,0,1,.121,0,1.751,1.751,0,0,1,.221.039,3.844,3.844,0,0,1,.394.071c.072.02.141.043.21.065a3.625,3.625,0,0,1,2.554,3.455v4.859a6.055,6.055,0,0,0,6.073,6.073,6.2,6.2,0,0,0,2.429-.5,6.108,6.108,0,0,0,3.644-5.575V236.859A4.859,4.859,0,0,0,73.592,232Zm0,0" transform="translate(148.557 1594.225)" fill="#ff3051"/>
    <path id="Path_248" data-name="Path 248" d="M18.373,340.3a6.1,6.1,0,0,0,1.773-4.3v2.429a6.073,6.073,0,1,1-12.147,0V336a6.1,6.1,0,0,0,1.773,4.3,6.025,6.025,0,0,0,4.3,1.773A6.1,6.1,0,0,0,18.373,340.3Zm0,0" transform="translate(148.557 1506.016)" fill="#e52b49"/>
    <path id="Path_249" data-name="Path 249" d="M146.373,356.3a6.1,6.1,0,0,0,1.773-4.3v2.429a6.073,6.073,0,1,1-12.147,0V352a6.08,6.08,0,0,0,10.373,4.3Zm0,0" transform="translate(39.992 1492.445)" fill="#e52b49"/>
    <path id="Path_250" data-name="Path 250" d="M274.373,324.3a6.1,6.1,0,0,0,1.773-4.3v2.429a6.073,6.073,0,1,1-12.147,0V320a6.08,6.08,0,0,0,10.373,4.3Zm0,0" transform="translate(-68.573 1519.587)" fill="#e52b49"/>
    <path id="Path_251" data-name="Path 251" d="M404.147,336v2.429A6.108,6.108,0,0,1,400.5,344a6.2,6.2,0,0,1-2.429.5A6.055,6.055,0,0,1,392,338.429V336a6.055,6.055,0,0,0,6.073,6.073,6.2,6.2,0,0,0,2.429-.5A6.108,6.108,0,0,0,404.147,336Zm0,0" transform="translate(-177.139 1506.016)" fill="#e52b49"/>
    <path id="Path_252" data-name="Path 252" d="M71.665,466.429H1.215a1.215,1.215,0,1,1,0-2.429H71.665a1.215,1.215,0,1,1,0,2.429Zm0,0" transform="translate(155.343 1397.45)" fill="#bcbec0"/>
    <g id="Group_47" data-name="Group 47" transform="translate(169.773 1833.513)">
      <path id="Path_253" data-name="Path 253" d="M351.039,284.475a3.652,3.652,0,0,1,.565-.459A3.652,3.652,0,0,0,351.039,284.475Zm0,0" transform="translate(-312.17 -283.406)" fill="#ffcd00"/>
      <path id="Path_254" data-name="Path 254" d="M121.75,284.88v-.205a3.625,3.625,0,0,0-2.551-3.46A3.858,3.858,0,0,1,121.75,284.88Zm0,0" transform="translate(-115.531 -281.03)" fill="#ffcd00"/>
      <path id="Path_255" data-name="Path 255" d="M243.2,280.32a3.865,3.865,0,0,1,.394.071A3.865,3.865,0,0,0,243.2,280.32Zm0,0" transform="translate(-220.704 -280.272)" fill="#ffcd00"/>
      <path id="Path_256" data-name="Path 256" d="M249.75,284.88v-.205a3.625,3.625,0,0,0-2.551-3.46A3.858,3.858,0,0,1,249.75,284.88Zm0,0" transform="translate(-224.096 -281.03)" fill="#ffcd00"/>
      <path id="Path_257" data-name="Path 257" d="M377.75,284.88v-.205a3.626,3.626,0,0,0-2.551-3.46A3.858,3.858,0,0,1,377.75,284.88Zm0,0" transform="translate(-332.662 -281.03)" fill="#ffcd00"/>
      <path id="Path_258" data-name="Path 258" d="M232.9,280.512a3.917,3.917,0,0,1,.441-.122A3.917,3.917,0,0,0,232.9,280.512Zm0,0" transform="translate(-211.97 -280.331)" fill="#ffcd00"/>
      <path id="Path_259" data-name="Path 259" d="M110.244,280c-.108,0-.209.023-.314.031a3.6,3.6,0,0,1,.458-.017C110.339,280.012,110.293,280,110.244,280Zm0,0" transform="translate(-107.669 -280)" fill="#ffcd00"/>
      <path id="Path_260" data-name="Path 260" d="M115.2,280.32a3.865,3.865,0,0,1,.394.071A3.865,3.865,0,0,0,115.2,280.32Zm0,0" transform="translate(-112.138 -280.272)" fill="#ffcd00"/>
      <path id="Path_261" data-name="Path 261" d="M366.244,280c-.108,0-.209.023-.314.031a3.6,3.6,0,0,1,.458-.017C366.339,280.012,366.293,280,366.244,280Zm0,0" transform="translate(-324.799 -280)" fill="#ffcd00"/>
      <path id="Path_262" data-name="Path 262" d="M100.16,282a3.525,3.525,0,0,1,.439-.225A3.525,3.525,0,0,0,100.16,282Zm0,0" transform="translate(-99.383 -281.508)" fill="#ffcd00"/>
      <path id="Path_263" data-name="Path 263" d="M356.16,282a3.532,3.532,0,0,1,.439-.225A3.532,3.532,0,0,0,356.16,282Zm0,0" transform="translate(-316.513 -281.508)" fill="#ffcd00"/>
      <path id="Path_264" data-name="Path 264" d="M360.9,280.512a3.919,3.919,0,0,1,.441-.122A3.919,3.919,0,0,0,360.9,280.512Zm0,0" transform="translate(-320.535 -280.331)" fill="#ffcd00"/>
      <path id="Path_265" data-name="Path 265" d="M95.039,284.475a3.659,3.659,0,0,1,.565-.459A3.659,3.659,0,0,0,95.039,284.475Zm0,0" transform="translate(-95.039 -283.406)" fill="#ffcd00"/>
      <path id="Path_266" data-name="Path 266" d="M104.9,280.512a3.914,3.914,0,0,1,.441-.122A3.914,3.914,0,0,0,104.9,280.512Zm0,0" transform="translate(-103.405 -280.331)" fill="#ffcd00"/>
      <path id="Path_267" data-name="Path 267" d="M238.244,280c-.108,0-.209.023-.314.031a3.6,3.6,0,0,1,.458-.017C238.339,280.012,238.293,280,238.244,280Zm0,0" transform="translate(-216.234 -280)" fill="#ffcd00"/>
      <path id="Path_268" data-name="Path 268" d="M223.039,284.475a3.654,3.654,0,0,1,.565-.459A3.654,3.654,0,0,0,223.039,284.475Zm0,0" transform="translate(-203.604 -283.406)" fill="#ffcd00"/>
      <path id="Path_269" data-name="Path 269" d="M371.2,280.32a3.868,3.868,0,0,1,.394.071A3.868,3.868,0,0,0,371.2,280.32Zm0,0" transform="translate(-329.269 -280.272)" fill="#ffcd00"/>
      <path id="Path_270" data-name="Path 270" d="M228.16,282a3.523,3.523,0,0,1,.439-.225A3.523,3.523,0,0,0,228.16,282Zm0,0" transform="translate(-207.948 -281.508)" fill="#ffcd00"/>
    </g>
    <path id="Path_271" data-name="Path 271" d="M216,128h7.288v15.791H216Zm0,0" transform="translate(-27.861 1682.435)" fill="#ff9811"/>
    <path id="Path_272" data-name="Path 272" d="M208,9.717a4.859,4.859,0,1,0,9.717,0c0-2.683-4.859-9.717-4.859-9.717S208,7.034,208,9.717Zm0,0" transform="translate(-21.076 1791)" fill="#ff6243"/>
    <path id="Path_273" data-name="Path 273" d="M352,144h7.288v13.361H352Zm0,0" transform="translate(-143.212 1668.864)" fill="#ff9811"/>
    <path id="Path_274" data-name="Path 274" d="M344,25.717a4.859,4.859,0,0,0,9.717,0c0-2.683-4.859-9.717-4.859-9.717S344,23.034,344,25.717Zm0,0" transform="translate(-136.427 1777.429)" fill="#ff6243"/>
    <path id="Path_275" data-name="Path 275" d="M80,144h7.288v13.361H80Zm0,0" transform="translate(87.489 1668.864)" fill="#ff9811"/>
    <path id="Path_276" data-name="Path 276" d="M81.717,25.717a4.866,4.866,0,0,1-4.239,4.822h-.012a4.952,4.952,0,0,1-.607.036A4.859,4.859,0,0,1,72,25.717C72,23.033,76.859,16,76.859,16s.243.352.607.911C78.778,18.9,81.717,23.628,81.717,25.717Zm0,0" transform="translate(94.275 1777.429)" fill="#ff6243"/>
    <path id="Path_277" data-name="Path 277" d="M77.466,30.54a4.952,4.952,0,0,1-.607.036A4.859,4.859,0,0,1,72,25.717C72,23.033,76.859,16,76.859,16s.243.352.607.911c-1.312,1.992-4.251,6.717-4.251,8.806A4.868,4.868,0,0,0,77.466,30.54Zm0,0" transform="translate(94.275 1777.429)" fill="#e5583c"/>
    <path id="Path_278" data-name="Path 278" d="M213.466,14.54a4.954,4.954,0,0,1-.607.036A4.859,4.859,0,0,1,208,9.717C208,7.033,212.859,0,212.859,0s.243.352.607.911c-1.312,1.992-4.251,6.717-4.251,8.806A4.868,4.868,0,0,0,213.466,14.54Zm0,0" transform="translate(-21.076 1791)" fill="#e5583c"/>
    <path id="Path_279" data-name="Path 279" d="M349.466,30.54a4.954,4.954,0,0,1-.607.036A4.859,4.859,0,0,1,344,25.717c0-2.684,4.859-9.717,4.859-9.717s.243.352.607.911c-1.312,1.992-4.251,6.717-4.251,8.806A4.868,4.868,0,0,0,349.466,30.54Zm0,0" transform="translate(-136.427 1777.429)" fill="#e5583c"/>
    <path id="Path_280" data-name="Path 280" d="M80,144h7.288v2.429H80Zm0,0" transform="translate(87.489 1668.864)" fill="#e5890f"/>
    <path id="Path_281" data-name="Path 281" d="M216,128h7.288v2.429H216Zm0,0" transform="translate(-27.861 1682.435)" fill="#e5890f"/>
    <path id="Path_282" data-name="Path 282" d="M352,144h7.288v2.429H352Zm0,0" transform="translate(-143.212 1668.864)" fill="#e5890f"/>
  </g>
</svg>
