<svg xmlns="http://www.w3.org/2000/svg" width="43.102" height="78.122" viewBox="0 0 43.102 78.122">
  <g id="Group_1232" data-name="Group 1232" transform="translate(-939 -1788)">
    <path id="Path_320" data-name="Path 320" d="M19,20.122V12.041A4.041,4.041,0,0,1,23.041,8h1.347a1.347,1.347,0,0,1,1.347,1.347V20.122Z" transform="translate(924.041 1786.735)" fill="#e69a9a"/>
    <path id="Path_321" data-name="Path 321" d="M23.735,17.388A5.388,5.388,0,0,0,18.347,12,1.347,1.347,0,0,0,17,13.347v6.735a2.694,2.694,0,0,0,2.694,2.694h4.041Z" transform="translate(923.347 1788.123)" fill="#f2a2a2"/>
    <path id="Path_322" data-name="Path 322" d="M46.735,20.122V12.041A4.041,4.041,0,0,0,42.694,8H41.347A1.347,1.347,0,0,0,40,9.347V20.122Z" transform="translate(931.326 1786.735)" fill="#e69a9a"/>
    <path id="Path_323" data-name="Path 323" d="M45.469,27.51H32V10h8.082a5.388,5.388,0,0,1,5.388,5.388Z" transform="translate(928.551 1787.429)" fill="#f2a2a2"/>
    <path id="Path_324" data-name="Path 324" d="M42,17.388A5.388,5.388,0,0,1,47.388,12a1.347,1.347,0,0,1,1.347,1.347v8.082a5.388,5.388,0,0,1-5.388,5.388H42Z" transform="translate(932.02 1788.123)" fill="#faa"/>
    <path id="Path_325" data-name="Path 325" d="M22,27.51H35.469V10H27.388A5.388,5.388,0,0,0,22,15.388Z" transform="translate(925.082 1787.429)" fill="#faa"/>
    <path id="Path_326" data-name="Path 326" d="M29,15.122V7.041A4.041,4.041,0,0,1,33.041,3h1.347a1.347,1.347,0,0,1,1.347,1.347V15.122Z" transform="translate(927.51 1785)" fill="#e69a9a"/>
    <path id="Path_327" data-name="Path 327" d="M45.918,44.081l2.86,11.439a5.388,5.388,0,0,1,.161,1.307V63.77a3.319,3.319,0,0,1-5.027,2.846,3.325,3.325,0,0,0-3.436,0l-.833.5a8.087,8.087,0,0,1-8.337.012l-.954-.572a3.139,3.139,0,0,0-3.232,0l-.082.049A3.322,3.322,0,0,1,22,63.77V56.826a5.388,5.388,0,0,1,.161-1.307l2.86-11.439A5.388,5.388,0,0,1,30.247,40H40.691a5.388,5.388,0,0,1,5.227,4.081Z" transform="translate(925.082 1797.837)" fill="#f2d377"/>
    <path id="Path_328" data-name="Path 328" d="M52.086,44.186l4.094-5.848A16.163,16.163,0,0,0,59.1,29.068V25.788a6.33,6.33,0,0,0-8.553-5.927,6.33,6.33,0,0,1-4.445,0l-1.6-.6a19.794,19.794,0,0,0-13.9,0l-1.6.6a6.33,6.33,0,0,1-4.445,0A6.33,6.33,0,0,0,16,25.788V28.11a16.163,16.163,0,0,0,2.527,8.678l4.52,7.1a8.082,8.082,0,0,0,6.818,3.743h15.6a8.082,8.082,0,0,0,6.621-3.447Z" transform="translate(923 1790.204)" fill="#ffde7e"/>
    <path id="Path_329" data-name="Path 329" d="M29.694,52.469H27V45.735A6.743,6.743,0,0,1,33.735,39v2.694a4.045,4.045,0,0,0-4.041,4.041Z" transform="translate(926.816 1797.49)" fill="#996e3f"/>
    <path id="Path_330" data-name="Path 330" d="M38.735,52.469H36.041V45.735A4.045,4.045,0,0,0,32,41.694V39a6.743,6.743,0,0,1,6.735,6.735Z" transform="translate(928.551 1797.49)" fill="#a67744"/>
    <path id="Path_331" data-name="Path 331" d="M35.775,44.469H31.735A6.743,6.743,0,0,1,25,37.735V35.041A4.045,4.045,0,0,1,29.041,31a6.743,6.743,0,0,1,6.735,6.735ZM29.041,33.694a1.349,1.349,0,0,0-1.347,1.347v2.694a4.045,4.045,0,0,0,4.041,4.041h1.347V37.735a4.045,4.045,0,0,0-4.041-4.041Z" transform="translate(926.122 1794.714)" fill="#a67744"/>
    <path id="Path_332" data-name="Path 332" d="M35.041,44.469H31V37.735A6.743,6.743,0,0,1,37.735,31a4.045,4.045,0,0,1,4.041,4.041v2.694A6.743,6.743,0,0,1,35.041,44.469Zm-1.347-2.694h1.347a4.045,4.045,0,0,0,4.041-4.041V35.041a1.349,1.349,0,0,0-1.347-1.347,4.045,4.045,0,0,0-4.041,4.041Z" transform="translate(928.204 1794.714)" fill="#b38149"/>
    <path id="Path_333" data-name="Path 333" d="M32,22.51h1.347a5.388,5.388,0,0,0,5.388-5.388V6.347A1.347,1.347,0,0,0,37.388,5,5.388,5.388,0,0,0,32,10.388Z" transform="translate(928.551 1785.694)" fill="#faa"/>
    <path id="Path_334" data-name="Path 334" d="M33.735,12.388A5.388,5.388,0,0,0,28.347,7,1.347,1.347,0,0,0,27,8.347v8.082a5.388,5.388,0,0,0,5.388,5.388h1.347Z" transform="translate(926.816 1786.388)" fill="#f2a2a2"/>
  </g>
</svg>
