<svg xmlns="http://www.w3.org/2000/svg" width="69.01" height="69.01" viewBox="0 0 69.01 69.01">
  <g id="Group_1233" data-name="Group 1233" transform="translate(-1115 -1784.7)">
    <path id="Path_151" data-name="Path 151" d="M68.011,12.547,56.463,1a3.412,3.412,0,0,0-4.826,0L1,51.637a3.412,3.412,0,0,0,0,4.826L12.548,68.01a3.412,3.412,0,0,0,4.826,0L68.011,17.373A3.412,3.412,0,0,0,68.011,12.547Zm-11.449-.1a2.431,2.431,0,1,1,3.437,0A2.431,2.431,0,0,1,56.562,12.448Z" transform="translate(1115 1784.7)" fill="#c8523b"/>
    <rect id="Rectangle_3" data-name="Rectangle 3" width="5.119" height="1.5" transform="translate(1175.348 1809.735) rotate(-135)" fill="#59595a"/>
    <rect id="Rectangle_4" data-name="Rectangle 4" width="5.119" height="1.5" transform="translate(1170.887 1814.196) rotate(-135)" fill="#59595a"/>
    <rect id="Rectangle_5" data-name="Rectangle 5" width="5.119" height="1.5" transform="translate(1166.426 1818.658) rotate(-135)" fill="#59595a"/>
    <rect id="Rectangle_6" data-name="Rectangle 6" width="5.119" height="1.5" transform="translate(1161.963 1823.12) rotate(-135)" fill="#59595a"/>
    <rect id="Rectangle_7" data-name="Rectangle 7" width="5.119" height="1.5" transform="translate(1157.501 1827.582) rotate(-135)" fill="#59595a"/>
    <rect id="Rectangle_8" data-name="Rectangle 8" width="5.119" height="1.5" transform="translate(1153.04 1832.044) rotate(-135)" fill="#59595a"/>
    <rect id="Rectangle_9" data-name="Rectangle 9" width="5.119" height="1.5" transform="translate(1148.577 1836.506) rotate(-135)" fill="#59595a"/>
    <rect id="Rectangle_10" data-name="Rectangle 10" width="5.119" height="1.5" transform="translate(1144.116 1840.968) rotate(-135)" fill="#59595a"/>
    <rect id="Rectangle_11" data-name="Rectangle 11" width="5.119" height="1.5" transform="translate(1139.654 1845.43) rotate(-135)" fill="#59595a"/>
    <rect id="Rectangle_12" data-name="Rectangle 12" width="5.119" height="1.5" transform="translate(1135.193 1849.892) rotate(-135)" fill="#59595a"/>
    <path id="Path_152" data-name="Path 152" d="M106.386,50.924l-5.774-5.774-2.237,2.237h0a2.431,2.431,0,1,1-3.437,3.437h0L45.149,100.613l5.774,5.774a3.412,3.412,0,0,0,4.826,0l50.637-50.637A3.412,3.412,0,0,0,106.386,50.924Z" transform="translate(1076.624 1746.324)" fill="#5b5b5f" opacity="0.3"/>
    <rect id="Rectangle_13" data-name="Rectangle 13" width="70.019" height="21.705" transform="translate(1134.498 1788.851) rotate(45)" fill="#abcb57"/>
    <path id="Path_153" data-name="Path 153" d="M19.5,4.15,0,0,4.151,19.5Z" transform="translate(1115 1784.7)" fill="#e0d492"/>
    <path id="Path_154" data-name="Path 154" d="M0,0,6.386,1.359,1.359,6.385Z" transform="translate(1115 1784.7)" fill="#abcb57"/>
    <path id="Path_155" data-name="Path 155" d="M4.151,19.5,0,0,61.336,61.336,53.662,69.01Z" transform="translate(1115 1784.7)" fill="#5b5b5f" opacity="0.3"/>
  </g>
</svg>
