<svg xmlns="http://www.w3.org/2000/svg" width="78.843" height="69.295" viewBox="0 0 78.843 69.295">
  <g id="Group_1226" data-name="Group 1226" transform="translate(-1690 -1595)">
    <path id="Path_673" data-name="Path 673" d="M5.434,120.258,1.1,125.673a5.028,5.028,0,0,0,3.925,8.169h.407l6.792-13.584Zm0,0" transform="translate(1690 1495.135)" fill="#b6534f"/>
    <path id="Path_674" data-name="Path 674" d="M0,85.691l9.509,2.717v-8.15Zm0,0" transform="translate(1690 1528.343)" fill="#ebebeb"/>
    <path id="Path_675" data-name="Path 675" d="M65.038,2.04a6.322,6.322,0,0,0-9.862,1.1,4.075,4.075,0,1,0-.6,5.57A6.353,6.353,0,1,0,65.039,2.04Zm0,0" transform="translate(1650.267 1594.839)" fill="#b6534f"/>
    <path id="Path_676" data-name="Path 676" d="M83.633,79.5H63.257L49.673,65.525V53.691a5.434,5.434,0,0,0-5.434-5.434H41.523a5.434,5.434,0,0,0-5.434,5.434v9.028a31.243,31.243,0,0,0,27.168,46.666,29.474,29.474,0,0,0,20.376-8.15Zm0,0" transform="translate(1663.42 1554.909)" fill="#f3af3e"/>
    <path id="Path_677" data-name="Path 677" d="M86.038,80.333A2.038,2.038,0,1,1,88.075,78.3,2.037,2.037,0,0,1,86.038,80.333Zm0,0" transform="translate(1620.263 1531.663)" fill="#834b10"/>
    <path id="Path_678" data-name="Path 678" d="M244.712,104.258a20.376,20.376,0,0,0-20.376,20.376c0,.458.035.907.065,1.358h5.434c-.039-.448-.064-.9-.064-1.358a14.942,14.942,0,1,1,24.052,11.826l3.873,3.876a20.376,20.376,0,0,0-12.984-36.078Zm0,0" transform="translate(1503.756 1508.418)" fill="#da922a"/>
    <path id="Path_679" data-name="Path 679" d="M286.221,151.2a14.942,14.942,0,0,0-29.885,0c0,.458.025.911.064,1.358h5.466c-.007-.048,0-.1-.011-.148a9.5,9.5,0,1,1,14.647,6.731l3.886,3.885A14.9,14.9,0,0,0,286.221,151.2Zm0,0" transform="translate(1477.19 1481.851)" fill="#e4e4e2"/>
    <path id="Path_680" data-name="Path 680" d="M307.353,177.767a9.509,9.509,0,0,0-19.018,0,12.229,12.229,0,0,0,.086,1.358c.007.049,8.065,0,8.065,0l6.582,6.583A9.494,9.494,0,0,0,307.353,177.767Zm0,0" transform="translate(1450.623 1455.285)" fill="#da922a"/>
    <path id="Path_681" data-name="Path 681" d="M136,149.949l.036,12.9a17.405,17.405,0,0,0,17.456,17.355l16.468-.05V163.925H149.584Zm0,0" transform="translate(1577.093 1470.485)" fill="#ea9d2d"/>
    <path id="Path_682" data-name="Path 682" d="M168.191,183.066v1.841a17.406,17.406,0,0,0,17.456,17.358l11.038-.031V191.419H176.309Zm0,0" transform="translate(1550.367 1442.991)" fill="#da922a"/>
    <path id="Path_683" data-name="Path 683" d="M231.237,248.466l-15.19-16.255,20.368.008v16.233Zm0,0" transform="translate(1510.638 1402.191)" fill="#ea9d2d"/>
    <path id="Path_684" data-name="Path 684" d="M240,265.258l4.075,5.264H256.3v-5.264Zm0,0" transform="translate(1490.752 1374.755)" fill="#da922a"/>
  </g>
</svg>
