<svg xmlns="http://www.w3.org/2000/svg" width="84.609" height="97.573" viewBox="0 0 84.609 97.573">
  <g id="hand" transform="translate(-34.015)">
    <g id="Group_1184" data-name="Group 1184" transform="translate(34.015)">
      <path id="Path_3534" data-name="Path 3534" d="M115.013,16.327c-4.135-1.207-6.277,2.947-7.751,5.8l-4.706,11.045,2.984-19.9a7.852,7.852,0,0,0-1.407-6.466,5.43,5.43,0,0,0-4.212-1.93c-3.183,0-5.955,2.773-7.079,7.129L89.3,28.552V8.177a8.381,8.381,0,0,0-2.145-6.172A6.746,6.746,0,0,0,82.186,0c-5.539,0-6.894,5.422-7.473,7.736a1.562,1.562,0,0,0-.047.324l-.839,19.3L71.4,9.58c-.759-6.921-4.841-7.954-7.207-7.954-4.3,0-7.419,3.42-7.414,8.251l3.253,43.908a1.607,1.607,0,0,0,1.742,1.5,1.625,1.625,0,0,0,1.5-1.742L60.029,9.757c0-2.428,1.288-4.879,4.166-4.879.847,0,3.42,0,3.979,5.1l4.879,35.777a1.626,1.626,0,0,0,3.236-.15L77.908,8.368C79,4.113,80.357,3.252,82.186,3.252a3.531,3.531,0,0,1,2.639,1.02,5.241,5.241,0,0,1,1.223,3.859V43.908a1.625,1.625,0,0,0,3.215.34l6.746-31.492c.594-2.3,2.034-4.625,3.913-4.625a2.2,2.2,0,0,1,1.732.782,4.817,4.817,0,0,1,.675,3.856L97.45,45.293a1.626,1.626,0,0,0,3.1.878L110.2,23.513c1.982-3.825,2.87-4.361,3.9-4.064.734.213,1.644.48,1.127,3.033-.047.211-4.776,21.227-6.355,30.923-.5,3.051-.838,6.763-1.231,11.062-.828,9.009-1.849,20.141-4.89,29.854H66.228C62.484,77.846,49.584,57.176,41.67,49.263c-1.415-1.415-3.874-4.119-4.391-4.687a.839.839,0,0,1,.085-.133l.7-.685c1.9-1.9,8.255-1.9,10.154,0l6.225,6.225a1.626,1.626,0,0,0,2.3-2.3l-6.225-6.225c-3.171-3.171-11.582-3.171-14.737-.018l-.763.742a1.48,1.48,0,0,0-.119.13,3.288,3.288,0,0,0-.249,4.192,1.422,1.422,0,0,0,.117.145c.12.133,2.961,3.277,4.6,4.913,7.809,7.811,20.659,28.509,23.92,44.563a1.626,1.626,0,0,0,1.616,1.447h39.029a1.623,1.623,0,0,0,1.542-1.112c3.441-10.323,4.529-22.174,5.4-31.7.39-4.238.727-7.9,1.2-10.836,1.559-9.6,6.269-30.521,6.324-30.765C119.336,18.6,117.073,16.929,115.013,16.327Z" transform="translate(-34.015)" fill="#fff"/>
    </g>
  </g>
</svg>
