<svg xmlns="http://www.w3.org/2000/svg" width="80.02" height="70.876" viewBox="0 0 80.02 70.876">
  <g id="Group_1218" data-name="Group 1218" transform="translate(-343.913 -1599)">
    <path id="Path_445" data-name="Path 445" d="M77.676,49.594H2.344A2.468,2.468,0,0,0,0,52.169v65.725a2.468,2.468,0,0,0,2.344,2.575H77.676a2.468,2.468,0,0,0,2.344-2.575V52.169A2.468,2.468,0,0,0,77.676,49.594Z" transform="translate(343.913 1549.406)" fill="#fff5f5"/>
    <path id="Path_446" data-name="Path 446" d="M297.313,49.594H256V120.47h41.313a2.573,2.573,0,0,0,2.571-2.575V52.169A2.573,2.573,0,0,0,297.313,49.594Z" transform="translate(124.049 1549.406)" fill="#ebded9"/>
    <path id="Path_447" data-name="Path 447" d="M80.02,52.165a2.466,2.466,0,0,0-2.344-2.571H2.344A2.466,2.466,0,0,0,0,52.165v6.857H80.02Z" transform="translate(343.913 1549.406)" fill="#fff48a"/>
    <path id="Path_448" data-name="Path 448" d="M299.884,52.165a2.571,2.571,0,0,0-2.571-2.571H256v9.428h43.884Z" transform="translate(124.049 1549.406)" fill="#ffdb2f"/>
    <path id="Path_449" data-name="Path 449" d="M83.081,167.979a6.988,6.988,0,0,0-6.98,6.98v4.609a2.571,2.571,0,0,0,2.571,2.571H87.49a2.571,2.571,0,0,0,2.571-2.571v-4.609A6.988,6.988,0,0,0,83.081,167.979Z" transform="translate(280.858 1451.354)" fill="#fff48a"/>
    <path id="Path_450" data-name="Path 450" d="M65.6,220.585a10.609,10.609,0,0,0-10.6,10.6v19.26a3.127,3.127,0,0,0,3.124,3.123H73.071a3.127,3.127,0,0,0,3.124-3.123v-19.26A10.609,10.609,0,0,0,65.6,220.585Z" transform="translate(298.342 1407.837)" fill="#a3d8f5"/>
    <path id="Path_451" data-name="Path 451" d="M369.008,167.979h-8.38a2.571,2.571,0,0,0-2.571,2.571v9.018a2.571,2.571,0,0,0,2.571,2.571h8.38a2.571,2.571,0,0,0,2.571-2.571V170.55A2.571,2.571,0,0,0,369.008,167.979Z" transform="translate(39.488 1451.354)" fill="#ffdb2f"/>
    <path id="Path_452" data-name="Path 452" d="M355.828,220.585H340.571A2.571,2.571,0,0,0,338,223.156v27.838a2.571,2.571,0,0,0,2.571,2.571h15.257a2.571,2.571,0,0,0,2.571-2.571V223.156A2.571,2.571,0,0,0,355.828,220.585Z" transform="translate(56.105 1407.837)" fill="#29b2ec"/>
    <path id="Path_453" data-name="Path 453" d="M217.921,332.423H204.539a2.571,2.571,0,0,0-2.571,2.571v7.415a3.783,3.783,0,0,0,3.734,3.822h11.058a3.783,3.783,0,0,0,3.733-3.822v-7.415A2.571,2.571,0,0,0,217.921,332.423Z" transform="translate(172.693 1315.171)" fill="#fff48a"/>
    <path id="Path_454" data-name="Path 454" d="M211.295,169.164a3.637,3.637,0,0,0-2.694-1.185H193.012a3.6,3.6,0,0,0-3.61,3.946l2.19,27a2.571,2.571,0,0,0,2.563,2.363h13.3a2.571,2.571,0,0,0,2.563-2.363l2.19-27A3.625,3.625,0,0,0,211.295,169.164Z" transform="translate(183.117 1451.375)" fill="#ff2c49"/>
    <path id="Path_455" data-name="Path 455" d="M262.691,332.423H256v13.809h5.529a3.783,3.783,0,0,0,3.733-3.822v-7.415A2.571,2.571,0,0,0,262.691,332.423Z" transform="translate(127.466 1315.171)" fill="#ffdb2f"/>
    <path id="Path_456" data-name="Path 456" d="M262.651,201.29a2.571,2.571,0,0,0,2.563-2.363l2.19-27a3.6,3.6,0,0,0-3.61-3.945H256V201.29Z" transform="translate(127.344 1451.375)" fill="#bf0032"/>
  </g>
</svg>
