<?xml version="1.0" encoding="utf-8"?>
<!-- Generator: Adobe Illustrator 22.0.1, SVG Export Plug-In . SVG Version: 6.00 Build 0)  -->
<svg version="1.1" id="Layer_1" xmlns="http://www.w3.org/2000/svg" xmlns:xlink="http://www.w3.org/1999/xlink" x="0px" y="0px"
	 viewBox="0 0 1920 1080" style="enable-background:new 0 0 1920 1080;" xml:space="preserve">
<style type="text/css">
	.st0{fill:#5A5858;}
	.st1{fill:#E7C0AD;}
	.st2{fill:#95A198;}
	.st3{fill:#2D2929;}
	.st4{fill:#08334C;}
	.st5{fill:#3E3B3A;}
	.st6{fill:#F2F2F2;}
	.st7{fill:#717172;}
	.st8{fill:#ECE2BA;}
	.st9{fill:#F9D8C7;}
	.st10{fill:#F8CBB1;}
	.st11{fill:#EBC1A9;}
	.st12{fill:#A95C40;}
	.st13{fill:#A5573B;}
	.st14{fill:#76564B;}
	.st15{fill:#FFFADC;}
	.st16{fill:#194867;}
	.st17{fill:#133F5C;}
	.st18{fill:#4BC25A;}
	.st19{fill:#31140C;}
	.st20{fill:#A61D35;}
	.st21{fill:#E6E6E6;}
	.st22{fill:#5A5749;}
	.st23{fill:#D4EAD7;}
	.st24{fill:#41292F;}
	.st25{fill:#36434E;}
	.st26{fill:#94A8B2;}
	.st27{fill:#717F86;}
	.st28{fill:#81939C;}
	.st29{fill:#B7C9BA;}
	.st30{fill:#ABC0AD;}
	.st31{fill:#F8CBB3;}
	.st32{fill:#4C3239;}
	.st33{fill:#9A5237;}
	.st34{fill:#000915;}
	.st35{fill:#FFFFFF;}
</style>
<image style="overflow:visible;" width="3842" height="1933" xlink:href="city@2x.png"  transform="matrix(0.4997 0 0 0.5587 0 0)">
</image>
<g id="bike" transform="translate(0 -0.005)">
	<path id="Path_157" class="st0" d="M1629.5,756.4c0,1,0.4,1.8,1,1.9c0.6,0.1,1.2-0.5,1.3-1.4c2.4-25.1,8-49.2,16.4-71
		c8.2-21.6,19-40.4,31.9-55.3c0.5-0.6,0.6-1.6,0.3-2.4c0,0,0,0,0-0.1c-0.4-0.8-1.1-0.9-1.7-0.3c-13.1,15.2-24.2,34.3-32.5,56.3
		C1637.7,706.3,1632,730.8,1629.5,756.4L1629.5,756.4z"/>
	<path id="Path_158" class="st1" d="M1485.7,717.7c-3.4,10.4-25.6,106.7-32,112.1c-6.3,5.4-55.2-38.2-55.2-38.2l0.8-12.5
		c0,0,45.1,20.1,45.8,19.4c0.6-0.7,16.5-91.7,18.6-98.1C1469.4,683.1,1489.1,707.2,1485.7,717.7z"/>
	<path id="Path_159" class="st2" d="M1483.8,702.8c-3.2-6.7-11.9-11.5-18-11.2c-6.2,0.3-10.3,14.7-11.4,20.6c-1,6-7.4,50.7-7.4,50.7
		s21.7,16.7,21.9,15.6C1471.9,764.2,1487.7,724.3,1483.8,702.8z"/>
	<path id="Path_160" class="st3" d="M1595.1,1005.1c1.1,0,22.4,6.3,28.1,6.9l1.2-11.4l-28.2-6.1L1595.1,1005.1z"/>
	<path id="Path_161" class="st3" d="M1388.2,988.6c0,0,13.3,11.5,19.3,14.4c5.9,2.9,106.3,3.5,106.3,3.5s27.2,8.3,29.6,8.9
		c2.5,0.6,30.5,5.4,30.9,2.2c0.4-3.3-3-38.6-3-38.6s-41.5,7.7-40.9,10.5c0.6,2.9-2.5,4.1-2.5,4.1L1388.2,988.6z"/>
	<path id="Path_162" class="st4" d="M1528.4,792.9c-2.3,2.2-90.5,20.1-98.8,34c-8.2,13.9-36.7,132.6-34.8,132.6
		c1.9,0,29,15.4,29,15.4s18.6-125.7,20.3-125.4c1.7,0.3,66.1-8.8,79-7.5c12.9,1.3,21.4,0.3,23.3-14.1S1528.4,792.9,1528.4,792.9z"/>
	<path id="Path_163" class="st5" d="M1530.5,985.8c0-32.9,17.7-59.5,39.5-59.5s39.5,26.6,39.5,59.5s-17.7,59.5-39.5,59.5
		C1548.1,1045.3,1530.5,1018.7,1530.5,985.8L1530.5,985.8z"/>
	<path id="Path_164" class="st6" d="M1544.4,985.8c0-21.7,11.7-39.3,26.1-39.3s26.1,17.6,26.1,39.3s-11.7,39.3-26.1,39.3
		S1544.4,1007.5,1544.4,985.8z"/>
	<path id="Path_165" class="st7" d="M1552.4,985.8c-0.4-15.8,7.5-29.2,17.6-29.8s18.6,11.7,19,27.6c0.4,15.8-7.5,29.2-17.6,29.8
		c-0.2,0-0.5,0-0.7,0c-4.8,0-9.5-2.9-12.9-8.1C1554.4,1000.2,1552.4,993.2,1552.4,985.8z"/>
	<path id="Path_166" class="st8" d="M1565.2,985.8c-0.1-5,2.4-9.3,5.6-9.5c3.2-0.2,5.9,3.7,6,8.7c0.1,5-2.4,9.3-5.6,9.5
		c-0.1,0-0.2,0-0.2,0C1567.9,994.6,1565.3,990.7,1565.2,985.8z"/>
	<path id="Path_167" class="st9" d="M1427.7,607.8c0,0-15.4,27.7-15.7,29c-0.4,1.4,1.7,13.6,0.3,16.1c-1.4,2.4-8.6,10.5-8.2,12.9
		c0.4,2.4,3.8,6.3,6.2,6.1c2.4-0.2,1.7,2.5,1.7,2.5s-2.8,8.8,3.8,20.4s17.6,15.6,22.5,14.7c4.9-1,6.6-2.9,6.6-2.9s6.5-5.4,12.4,4.6
		c3.7,6.7,6.5,14.7,7.9,23.3l23.7-33c0,0-7.1-3.6-10-11.1c-2.9-7.5-4.3-24.4-4.3-24.4s10.9-30,3.9-45.3
		C1471.6,605.6,1427.7,607.8,1427.7,607.8z"/>
	<path id="Path_168" class="st10" d="M1435.1,696.4c0.4,0,0.9,0,1.3-0.1c4.9-0.9,6.6-2.9,6.6-2.9s6.5-5.4,12.4,4.6
		c2.6,4.6,4.7,9.8,6.2,15.5c1.8-1.6,3.5-3.5,5-5.6c0.5-1.4-10.3-20.4-13.2-24.2c-2.9-3.8-2.2-6.1-1.1-6.7c1-0.6,13,0,11.4-1.4
		c-0.3-0.3-21.7-3.6-21.8-3.5c-0.6,0.4-10.4,12.4-9,20.1C1433.2,694.1,1434,695.7,1435.1,696.4z"/>
	<path id="Path_169" class="st11" d="M1419.1,624.8c-0.9,1.7-1.9,3.4-2.7,5c8.2,3.4,26,10.8,26,10.8s-0.4,2.6-1,6.3l-26.1-1.6
		c0,0-0.5,16.4-0.5,17.5c0,1,1,1,2.3-0.5s2.2-14.1,2.2-14.1l21.6,2.6c-0.7,4.5-1.1,9-1.3,13.5c-0.2,8.3,3.5,17.8,3.4,17.2
		c-0.1-0.6,4.4-43.8,4.4-43.8L1419.1,624.8z"/>
	<path id="Path_170" class="st12" d="M1426.7,634.9c4.4,3.6,6.4,9.7,4.6,8.6c-1.8-1.1-15.4-5.4-16.3-6.9s0-3.6,0.4-4.3
		C1417.1,629.4,1425.1,633.6,1426.7,634.9z"/>
	<path id="Path_171" class="st12" d="M1449.2,662.1c2.8,11.6,11.3,18.5,15.2,20.7c4,2.2,6.5,2.2,6.1,2c-0.9-1-1.9-2.1-2.7-3.3
		c2.4,0.5,4.8,0.7,7.1,0.4c2.1,0.1,4.2,0.7,6.2,1.8c-0.3-0.6-3.5-4-3.5-4s1.7,2.5,5.6,1.6c2-0.3,3.9-1.3,5.5-3
		c-1.9,0-3.8-0.2-5.7-0.6c0,0,5.3-2.3,3.4-2.7s-10.3-2.6-15.5-21.6L1449.2,662.1z"/>
	<path id="Path_172" class="st13" d="M1421.6,671.9c13.5,6.7,18.1-11.3,20.5-9.6c0,0,1.9,11.7,3.3,13.8c0,0-4.4-1.3-3.1-0.4
		c6.7,4.7,5.4,30.5,5,30.2c-0.4-0.3-4-4.5-4-4.5s2.2,5.3,1.5,4.9l-5.3-4l-2.2-1.8l0.8,3.9c0,0-2.6-2.2-7.1-5.5s-7.4-14.8-7.4-14.8
		s0,3-0.1,2.5C1420.7,678.4,1421.8,681,1421.6,671.9z"/>
	<path id="Path_173" class="st5" d="M1451.4,646.6l-33.2-4.6c-0.3-1.6-0.7-1.9-3-3.2l-2.6-1.6c-0.6,0.7-1.2,16.2-0.2,22.1
		c0.8,4.3,1.4,6.5,2.7,5.2c3.2-3.3,1.2-17.8,4.3-17.5l31.6,3.2L1451.4,646.6z"/>
	<path id="Path_174" class="st12" d="M1435.9,953c0.2,3.3,2.1,34.2,1.4,33.9s-24.6-1.1-36.6-3c-12.1-1.9-25.3-17.2-21.4-21
		c3.9-3.8,24.8-1.4,28.8-3.8c3.1-2.2,6.1-4.9,8.8-8.1L1435.9,953z"/>
	<path id="Path_175" class="st14" d="M1388.6,960.6c7.4-0.4,16.4,0,18.9-1.6c3.1-2.2,6.1-4.9,8.8-8.1l3.7,0.4
		c-1.3,4.4-4.8,13.2-7.3,14.7c-3.3,1.9-17.4,2.7-19.9,2.2C1390.9,967.6,1389.3,963.8,1388.6,960.6z"/>
	<path id="Path_176" class="st15" d="M1437.4,981.4c0.1,3.4,0.1,5.7-0.1,5.6c-0.7-0.3-24.6-1.1-36.6-3s-25.3-17.2-21.4-21
		c1-0.8,2.1-1.3,3.3-1.5c3.1,4.7,10.8,14.7,19.5,15.7C1411.7,978.4,1430.8,980.6,1437.4,981.4z"/>
	<path id="Path_177" class="st16" d="M1533.6,792.4c-2.3,2.2-93.6,24.7-101.4,35c-7.8,10.2-34.1,131.7-32.2,131.7
		c1.9,0,29,15.4,29,15.4s15-111.3,21.6-116.8s64.8-17.4,77.7-16.1c12.9,1.3,21.4,0.3,23.3-14
		C1553.4,813.2,1533.6,792.4,1533.6,792.4z"/>
	<path id="Path_178" class="st17" d="M1502.7,802.8l-2.1,0.7l0,0c-1.2,0.6,18.4,31.1,18.4,31.1c-24.3-1.9-66.4,8-71.9,14.7
		s-21.8,95.6-26.3,105.4c-3.9,8.5-16.9,5.6-20.2,4.7c4.8,1.9,28.3,15.2,28.3,15.2s15-111.3,21.6-116.8s64.8-17.4,77.7-16.1
		c12.9,1.3,21.4,0.3,23.3-14c0.2-1.9,0.2-3.9-0.2-5.7c-3.3,0.2-6.1,0.8-6.1,0.8C1543.9,823.8,1515.4,800.6,1502.7,802.8z"/>
	<path id="Path_179" class="st18" d="M1472.9,673.4c45.8,9.9,87.2,112.6,76,199.1c-3,23.3-41.1-18-56.3-33.3
		c4.3-36.9-10.4-68.6-26.2-96.2c0,0-10.4-16.1-12.2-22.4C1448.5,701,1468.1,672.4,1472.9,673.4z"/>
	<path id="Path_180" class="st6" d="M1385.9,822.6c2.1-12.4,7.6-36.4,7.6-36.4l-15.9,6.1l-3,26.2L1385.9,822.6z"/>
	<path id="Path_181" class="st18" d="M1410.4,770c-8.1-15.2-38.8-16.2-39-16.1l3.1,48.2C1385.4,801.9,1422.8,793.3,1410.4,770z"/>
	<path id="Path_182" class="st6" d="M1400,769.3c-1.5-2.6-3.3-4.7-5.3-6.1c-0.6,3.7-1,7.5-1,11.3c-0.4,9.2-13.3,19.6-22.1,26.1
		C1386.4,797.9,1410.3,788.7,1400,769.3z"/>
	<path id="Path_183" class="st6" d="M1392,764.4c-3.6-5.2-14.7-3-16.1,7c-1.3,9.4,6.2,17.9,12.2,18.8S1392,764.4,1392,764.4z"/>
	<path id="Path_184" class="st19" d="M1468.8,890.8c-13.4-38.6,50.7-27.9,59.6-28.2c11.8-0.4,17.6-7.7,28.8-8.3
		c16.1-0.8,30.3-4.7,34.3,9.4c4,14.1,0.9,32.5,0.9,32.5C1575.9,898.8,1473.6,904.8,1468.8,890.8z"/>
	<path id="Path_185" class="st20" d="M1608.3,912.7c12.2-2,9.2,32.5,6.8,30.4C1614.7,942.9,1608.3,912.7,1608.3,912.7z"/>
	<path id="Path_186" class="st6" d="M1596.8,915.5c0.9-2,2-3.9,3.2-5.6l11.4,0.4l6.4,42.2L1596.8,915.5z"/>
	<path id="Path_187" class="st18" d="M1459.3,997.4c0-4.5,33-54.5,27.5-79.1s-20.3-21.4-22-36.6c-1.7-15.3-1.3-15.7-1.3-15.8
		c0-0.1,62.3,0.2,122.3,0.2c25.1,22.5,45.3,86.8,48.6,127.7l-59-26.3l-70.9,30.2L1459.3,997.4z"/>
	<path id="Path_188" class="st18" d="M1468.7,997.4c0-4.5,33-54.5,27.5-79.1c-5.5-24.6-19.7-20.7-22-36.6
		c-0.5-3.2-2.3-12.6-1.3-15.8l0,0c4,25.9,48.9,32.2,52,42.9c2.5,8.9-5.5,59.7-5.5,59.7s-2,16.9-7.8,29.2L1468.7,997.4z"/>
	<path id="Path_189" class="st5" d="M1296.8,985.7c0-32.9,17.7-59.5,39.5-59.6s39.5,26.6,39.5,59.5c0,32.9-17.7,59.5-39.5,59.5
		C1314.5,1045.2,1296.8,1018.6,1296.8,985.7L1296.8,985.7z"/>
	<path id="Path_190" class="st8" d="M1310.2,985.7c0-21.7,11.7-39.4,26.1-39.4c14.4,0,26.1,17.6,26.1,39.3
		c0,21.7-11.7,39.4-26.1,39.4S1310.2,1007.4,1310.2,985.7z"/>
	<path id="Path_191" class="st7" d="M1318,985.7c-0.4-15.8,7.4-29.2,17.5-29.8c10.1-0.6,18.6,11.7,19,27.5
		c0.4,15.8-7.4,29.2-17.5,29.8c-0.2,0-0.5,0-0.7,0C1326.4,1013.5,1318.2,1001.2,1318,985.7z"/>
	<path id="Path_192" class="st8" d="M1330.5,985.7c0-3.6,1.4-6.9,3.5-8.2c2.2-1.4,4.6-0.7,6.4,1.8c1.7,2.4,2.2,6.3,1.3,9.6
		c-1.4,4.7-4.9,6.7-7.9,4.5c-0.6-0.4-1.1-1-1.5-1.6C1331.1,990.2,1330.5,988,1330.5,985.7z"/>
	<path id="Path_193" class="st18" d="M1379,985.2c-42.7,0.5-26.8-24.8-79.7-33c8.2-28.3,29.2-38.8,49-31.3
		C1364.8,928,1379.1,956.8,1379,985.2z"/>
	<path id="Path_194" class="st21" d="M1379,985.2c-42.7,0.5-26.8-24.8-79.7-33c-0.8,0-0.1-4.5,1.5-4.6c5-0.5,19.2,0.5,26.9,5.7
		c9.2,6.2,19.5,17.7,28,22c6.4,3.3,18,4.8,23.3,5.3C1379.8,980.6,1380.2,985.2,1379,985.2z"/>
	<path id="Path_195" class="st18" d="M1385.4,766.7c3.7,0.6,17.7,0.6,19.1,8c1.3,7.4-26.5,116.4-21.5,152.3
		c5,35.9,18.1,52.4,27.2,56.3c9.1,3.9,129.3,7.3,129.3,7.3l-0.1,7c0,0-112.6-0.5-126.6-1.7c-14-1.3-39-34.1-50.4-66.1
		C1350.9,897.9,1385.4,766.7,1385.4,766.7z"/>
	<path id="Path_196" class="st18" d="M1384,773.2c3.7,0.6,17.7,0.6,19.1,8c1.3,7.4-26.5,116.4-21.4,152.3
		c5.5,38.5,23.4,64.6,49.7,65.2c8,0.2,71.9,1.8,106.7,1.9v3.5c0,0-112.7-0.5-126.6-1.7c-31.4-2.9-40.3-67.7-72-75.6
		C1336.8,926.1,1379,793.4,1384,773.2z"/>
	<path id="Path_197" class="st18" d="M1385.4,782.1l1.7,0.2l6.1,0.7l0,0c-47.8,115.6-23.1,177.7-16.3,192.3
		c-10.1-17.5-20.2-37.1-36.1-41.1C1344.5,913.7,1380.5,802.3,1385.4,782.1z"/>
	<path id="Path_198" class="st18" d="M1576.3,902.7c51.9,26.1,55.8,94.5,55.8,94.5l-134,0.6C1492.4,917.2,1517.3,873,1576.3,902.7z"
		/>
	<path id="Path_199" class="st22" d="M1374.3,802c0,0-3.1-46-3.1-48.2c0-0.2,4.9-0.5,5,0.3l3,47.4
		C1379.2,802.6,1374.3,803,1374.3,802z"/>
	<path id="Path_200" class="st23" d="M1374.3,800.5c-3.4,0-6.2-44.1-2.9-45.1L1374.3,800.5z"/>
	<path id="Path_201" class="st22" d="M1446.8,655.1c-3.1,9.3-6.8,18.1-11.1,26.2c-2.9,5.6-6,11-9.3,16.1l7.5,3.8
		c0,0,13.4-22.5,16.7-31.6c3.3-9.1,2.5-10.5,2.5-10.5L1446.8,655.1z"/>
	<path id="Path_202" class="st24" d="M1405.7,623.5c1.3,0.3,38.6,17.3,38.6,17.3s-9.4,41.5,1.1,47.6c13.1,7.6,41.1-2.2,42-7.8
		c10-63.4-3.7-83.6-22.8-96.3C1442.7,569.6,1414,581.5,1405.7,623.5z"/>
	<path id="Path_203" class="st25" d="M1405.8,623.5c1.3,0.3,38.6,17.3,38.6,17.3s-9.4,41.5,1.1,47.6c13.1,7.6,41.1-2.2,42-7.8
		c0.2-1.1,0.3-2.2,0.5-3.2c-1.8,0.8-4.6,1.9-8,3.1c-5.7,2.2-24,7.4-28.7,5.9s-7-4.6-7.5-12.6s4.8-35.2,4.8-35.2s-33-15.8-41.7-19.8
		C1406.5,620.3,1406.1,621.9,1405.8,623.5z"/>
	<path id="Path_204" class="st6" d="M1583.7,910.6c-55.9-28-81.2,10.2-78.9,82.8c0,1.2,0.1,2.5,0.1,3.7v0.5h-5v-0.1
		c-0.1-1.2-0.2-2.3-0.2-3.5v-0.8c0-0.9-0.1-1.9-0.1-2.8c-3.7-75.8,21.4-116.4,78.6-87.8c16.3,8.2,27.9,20.6,36.1,33.7
		C1605.2,924.7,1594.9,916,1583.7,910.6L1583.7,910.6z"/>
	<rect id="Rectangle_29" x="1519.3" y="876.6" class="st26" width="95" height="10.3"/>
	<rect id="Rectangle_30" x="1562.7" y="707.8" class="st18" width="98" height="156.2"/>
	<rect id="Rectangle_31" x="1559.9" y="707.2" class="st6" width="103.1" height="23"/>
	<rect id="Rectangle_32" x="1560" y="844.5" class="st26" width="102.9" height="10.3"/>
	<path id="Path_205" class="st27" d="M1614.9,845.3h-5.2l-9.4,40.1h5.2L1614.9,845.3z"/>
	<path id="Path_206" class="st27" d="M1593.1,845.3h-5.2l-9.4,40.1h5.2L1593.1,845.3z"/>
	<path id="Path_207" class="st9" d="M1409.3,778.6c-0.7-1.1-13.8-17-14.7-17.5c-4.5,0-9.1,0.6-13.6,1.8c-1.3,0.8-1.2,19-1.2,19
		s6.1,9.6,7.6,10c1.5,0.4,7.7-5.8,7.7-5.8l0.5-4c0.7,2.1,1.8,3.8,3.1,4.8c2.2,1.4,9.5,0,8.8-0.7
		C1407,785.6,1409.3,778.6,1409.3,778.6z"/>
	<path id="Path_208" class="st5" d="M1391.9,783.7c-2.2-0.2-3.9-3.2-3.8-6.7c0.1-3.5,2.1-6.1,4.3-5.9c2.1,0.2,3.8,3,3.8,6.3
		c0,1.7-0.5,3.3-1.3,4.5C1394.1,783.1,1393,783.7,1391.9,783.7z"/>
	<path id="Path_209" class="st9" d="M1488.4,714.8c-3.5,10.4-28.6,110.6-35,115.4c-6.4,4.8-54.3-38.3-54.3-38.3l2.2-12.3
		c0,0,40.4,25.3,44.9,21.6s17.9-97.2,20-103.6C1472.2,680.3,1491.9,704.3,1488.4,714.8z"/>
	<path id="Path_210" class="st22" d="M1390.6,769.4c-0.4,0-0.8,0.2-1.2,0.5l-3.8-0.6c0,0-2.4,2.2-1.9,4.6c0.3,1.9,1.4,3.3,2.6,3.5
		l2.6-0.2c0.4,0.7,1,1.2,1.7,1.2c1.6-0.4,2.7-2.7,2.5-5.1C1392.9,771.3,1391.9,769.7,1390.6,769.4L1390.6,769.4z"/>
	<path id="Path_211" class="st9" d="M1389.4,767c-0.5-0.4-6.7-3.4-6.7-3.4l-7.6,2.3c0,0-6.5,9.6-5.7,10.2s4,1,4.5-0.6
		c0.7-1.5,1.5-2.9,2.4-4.1l4.9-2l4.9,2.2L1389.4,767z"/>
	<path id="Path_212" class="st12" d="M1412,663.2c1.8-2.2,13.2,0,15.5,1.8c0,0-2.9,1-2.1,1.1c3.6,0.4,9.1,7.7,11.5,11.6
		c0,0-4.4-1.3-3.1-0.4c6.7,4.7,5.4,30.5,5,30.2c-0.4-0.3-4-4.5-4-4.5s2.2,5.3,1.5,4.9l-5.3-4l-2.2-1.7l0.9,3.9c0,0-2.6-2.2-7.1-5.5
		c-4.5-3.3-7.4-14.8-7.4-14.8s0,3-0.1,2.5C1412.2,679.9,1412.1,672.4,1412,663.2z"/>
	<path id="Path_213" class="st12" d="M1411.3,663.9c4.5-12.6,21.1,14.4,27.2,3.4c0,0,0,3.4-5.3,8.8
		C1424,685.2,1408.5,676.5,1411.3,663.9z"/>
	<path id="Path_214" class="st27" d="M1413.9,638.9c0,0-0.3,13.6-0.1,18c0.3,5,1.1,6.9,2,6.1c1.7-1.7,1.6-19.4,0.9-22.1
		C1415.9,640.1,1414.9,639.4,1413.9,638.9L1413.9,638.9z"/>
	<path id="Path_215" class="st28" d="M1413.9,638.9c0,0-0.1,3.6-0.1,7.6c0.6,5.6,1.3,12.5,1.7,16.7c0.1,0,0.2-0.1,0.3-0.2
		c0.4-0.4,0.7-1.8,1-3.7l-2.2-20L1413.9,638.9z"/>
	<path id="Path_216" class="st29" d="M1486.7,709.3c1.4-18-24.3-33.7-29,3.5c-0.8,6.1-7.4,50.7-7.4,50.7s22.5,19.2,22.7,18.2
		C1475.9,767.2,1484.4,737.9,1486.7,709.3z"/>
	<path id="Path_217" class="st29" d="M1611.2,853c-0.6,0-1.2-0.7-1.2-1.7c0-0.5,0.1-0.9,0.3-1.2c0.2-0.3,0.5-0.5,0.8-0.5
		c0.6,0,1.1,0.7,1.2,1.7c0,0.5-0.1,0.9-0.3,1.2C1611.8,852.9,1611.5,853,1611.2,853z"/>
	<path id="Path_218" class="st29" d="M1589.4,852.6c-0.6,0-1.1-0.8-1.1-1.8s0.5-1.7,1.1-1.7c0.6,0,1.1,0.8,1.1,1.7
		C1590.5,851.9,1590,852.6,1589.4,852.6z"/>
	<path id="Path_219" class="st29" d="M1582.5,882c-0.6,0-1.1-0.7-1.2-1.7c0-0.5,0.1-0.9,0.3-1.2c0.2-0.3,0.5-0.5,0.8-0.5
		c0.6,0,1.2,0.7,1.2,1.7c0,0.5-0.1,0.9-0.3,1.2C1583.1,881.9,1582.8,882.1,1582.5,882z"/>
	<path id="Path_220" class="st29" d="M1604.5,882.5c-0.6,0-1.1-0.8-1.1-1.8c0-1,0.5-1.7,1.1-1.7c0.6,0,1.1,0.8,1.1,1.7
		C1605.7,881.7,1605.1,882.5,1604.5,882.5z"/>
	<path id="Path_221" class="st6" d="M1582,890.5c6.8,3.7,33.7,41.4,31,46c-2.7,4.5-19.8-26.5-33.6-34.5c-13.9-8-33.5-4.6-57.7-4.2
		c-24.2,0.5-30.3-7-24.3-8.9C1503.3,886.9,1573.4,885.8,1582,890.5z"/>
	<path id="Path_222" class="st21" d="M1520.2,986.9c2.5,0.8,23.1,3.2,21.4-1.7c-1.7-4.9-18.4-34-2.1-50.3s37.3-10,53.4-0.7
		c16.1,9.4,26.3,20.4,22,16.9c-4.3-6.1-12.5-23.3-30.3-33.5C1511.9,875.6,1500.5,981,1520.2,986.9z"/>
	<path id="Path_223" class="st6" d="M1306.2,951.8l5.7,3.9c0,0,10.2-11.2,20.6-13.9c6-1.7,12.2-0.8,17.9,2.6
		c-3.1-5.8-7.5-9.8-12.3-11C1318.6,928.9,1306.2,951.8,1306.2,951.8z"/>
	<path id="Path_224" class="st6" d="M1568.9,853.8v-132h21.4l11,132H1568.9z"/>
	<path id="Path_225" class="st18" d="M1591.3,730.1h-24v-23h24V730.1z"/>
	<path id="Path_226" class="st6" d="M1477.8,745.7c0,0,4,6.1,14.2,25.5c8.6,16.5,8.9,46.6,13.1,62.2c0.1,0.5,0.3,0.9,0.4,1.4
		c0.6,2,1.4,3.8,2.3,5.4c4.5,7,18.6,19.4,29.6,28.2l4.3,3.3l2.7,2.2c-1.8,0.8-3.6,1.5-5.7,2.2l-1.3-0.4c-1.1-0.4-2.2-0.9-3.3-1.5
		c-12.3-6.5-29.9-24.9-40.2-35.4l-1.1-1.1l-1.3-1.3c3.6-31.2-6.3-58.6-19-83c3.4-14.7,7.3-33,8.8-51c0.1-0.8,0.1-1.7,0-2.5
		c0.5,2.2,1.1,5,1.9,8.5C1485.9,721.4,1477.8,745.7,1477.8,745.7L1477.8,745.7z"/>
	<path id="Path_227" class="st30" d="M1477.2,759.4c-2,8.6-3.8,16-4.9,21.4c-1.6-0.7-3.1-1.7-4.4-3l-1.5-1.2l-0.9-0.8
		c-1.9-1.5-4-3.3-6-4.9c2.4,0.2,4.9,0.1,7.3-0.3c0.5,0,0.9-0.1,1.3-0.3c0.7-0.2,1.4-0.5,2-1c0.9-2.1,1.6-4.4,2-6.9
		c0.6-2.5,1.2-5.6,1.9-8.9c1-5.1,2.1-10.9,3.2-16.9c1.8-10,3.7-20.4,4.9-27.8c0.3-1.8,0.6-3.4,0.8-4.8l1-5.8
		c0.8,2.5,1.5,5.1,2.1,7.7c0.1,0.8,0.1,1.7,0,2.5C1484.6,726.4,1480.6,744.8,1477.2,759.4z"/>
	<path id="Path_228" class="st31" d="M1472.6,768.6c-7.5,26.8-15.3,52.7-18.4,55.1c-5.7,4.3-44.9-29.9-52.9-37l-1.4-1.3l0.1-0.5
		c0.7,0.1,1.3,0.1,2,0.1c0,0,45.7,35,50.3,30.2c4.2-4.3,11.8-43.9,13.3-51.6l0.2-1.3c2,1.7,4.1,3.4,6,4.9l0.9,0.8L1472.6,768.6z"/>
	<path id="Path_229" class="st18" d="M1404.5,785.6l-0.1,0.5h-1.3c-1.4,0.2-2.8,0-4.1-0.6c-0.7-0.5-1.4-1.2-1.9-2.2
		c-0.5-0.8-0.9-1.7-1.2-2.7l-0.3,2.3l-0.2,1.6c-1.9,2-3.9,3.7-6,5.2c-0.5,0.4-1.1,0.6-1.7,0.6c-0.8-0.5-1.6-1.2-2.2-2.2l-0.5-0.6
		l-0.2-0.3c-0.7-0.9-1.4-2-2.1-2.9c-1.4-2.2-2.5-3.9-2.5-3.9v-2.6l0.5,1.8c0.3,0.8,4,5.4,5.2,7.1c1.1,1.2,2.5,1.4,3.8,0.7
		c0.8-0.4,1.6-1,2.3-1.8c0.4-0.5,0.8-1,1.1-1.6c0.3-0.6,0.6-1.2,0.9-1.8c1.1-0.5,1.9-1.7,2.5-3.3c1,2,2.2,3.6,3.6,4.8
		c1.1,0.8,2.3,1.3,3.5,1.5C1403.9,785.5,1404.2,785.6,1404.5,785.6z"/>
	<path id="Path_230" class="st6" d="M1393,791.2l4.9,2.3c0,0-14,45.9-20.1,79.8c-6.1,33.8-0.9,84.9-4.4,77.6s-7.5-54.9-0.4-87.9
		C1380,829.9,1393,791.2,1393,791.2z"/>
	<path id="Path_231" class="st32" d="M1477.4,606.9c7.5,14.1,8.5,40.5,3.1,43.3c-5.4,2.7-25.2-0.3-23.3-7.7
		c1.9-7.3,11.4-20.5,6.6-30.3c-4.9-9.9-25.7-19.7-23.6-23.9C1445.1,578.4,1469.9,592.8,1477.4,606.9z"/>
	<path id="Path_232" class="st6" d="M1529.5,752.3c-12.5-29.7-24.6-49.6-37.3-61.4s-16.1-13.6-14.7-14.1
		c40.2,16.5,75.3,102.3,71,180.8C1548.5,857.5,1542,782,1529.5,752.3z"/>
	<path id="Path_233" class="st33" d="M1425,674.9l-1.1-2.2l-0.7-1.5c0,0,5.8,2,9.2,0.7c3.4-1.3,3-0.8,4.4-2.2
		c0.7-0.6,1.4-1.6,1.7-2.8c0,0.1,0,0.2,0,0.3c-0.1,0.5-0.2,1-0.4,1.5c-1,2.3-2.2,4.3-3.7,5.8c-0.4,0.4-0.8,0.8-1.2,1.3
		c-6.1,5.5-13.7,5-19.4-1.3c-0.5-0.7-1-1.4-1.4-2.3c-1.3-2.4-1.7-5.7-1-8.6c0.2,0.9,0.5,1.7,0.8,2.5c0.3,0.7,0.5,1.3,0.8,2
		c0.7,1.6,1.6,2.9,2.7,3.9c-0.1-0.2-0.7-4.8-0.7-4.8c2.4,3,5.1,5.5,8,7.3C1423.7,674.6,1424.3,674.8,1425,674.9z"/>
	<path id="Rectangle_33" class="st6" d="M1549.9,939.9h39c0.7,0,1.4,1,1.4,2.1l0,0c0,1.2-0.6,2.1-1.4,2.1h-39c-0.7,0-1.4-1-1.4-2.1
		l0,0C1548.6,940.8,1549.2,939.9,1549.9,939.9z"/>
	<path id="Rectangle_34" class="st6" d="M1549.9,950.1h39c0.7,0,1.4,1,1.4,2.1l0,0c0,1.2-0.6,2.1-1.4,2.1h-39c-0.7,0-1.4-1-1.4-2.1
		l0,0C1548.6,951,1549.2,950.1,1549.9,950.1z"/>
	<path id="Rectangle_35" class="st6" d="M1549.9,960.8h39c0.7,0,1.4,1,1.4,2.1l0,0c0,1.2-0.6,2.1-1.4,2.1h-39c-0.7,0-1.4-1-1.4-2.1
		l0,0C1548.6,961.8,1549.2,960.8,1549.9,960.8z"/>
	<path id="Path_234" class="st34" d="M1679,629.8c5.5,9,11.6,16.8,18.4,23.3c9.7,8.6,8.6,0.2,19.5,4.3c11,4.1,20.6,30.7,20.6,30.7
		s-18.4-13.1-27.6-12.9s-13.1,4.6-23.8,3.4c-10.7-1.2-27.6-21.3-27.6-21.3c4.7-0.1,9.3-1.7,13.6-4.7
		C1678.8,647.7,1679,629.8,1679,629.8z"/>
	<path id="Path_235" class="st6" d="M1677.7,627.8c0.9,0.6,1.7,1.5,2.3,2.7c0.1,0.5,0.1,1.1-0.1,1.6c-0.2,0.5-0.5,0.8-0.9,0.9
		c-1.1-0.4-2-1.4-2.6-2.9C1676.3,629.2,1677.7,627.8,1677.7,627.8z"/>
	<path id="Path_236" class="st6" d="M1662.4,658.2c-0.2-0.3-1.7-3.1-2.9-2.9c-1.2,0.2-1.9,1.3-1.4,2.5c0.7,1.5,1.8,2.6,3.1,2.8
		C1662.5,660.6,1662.4,658.2,1662.4,658.2z"/>
	<path id="Path_237" class="st35" d="M1635.2,980.1c-4.2-0.2-7.8,5-7.9,11.6c0,1.6,0.3,3.2,0.8,4.7c-2.6,0.2-4.7,3.3-4.8,7.4
		c0.2,4.4,2.7,7.7,5.5,7.4c1.4,0,2.7-0.7,3.8-2c1.6,4.2,4.5,6.7,7.6,6.5c2.7,0.2,5.3-1.7,7.1-5c1,1.3,2.3,2,3.6,2
		c1.6,0.1,3.2-1.1,4.2-3.1c0.8,0.4,1.7,0.6,2.6,0.6c4,0,7.1-4.2,7.1-9.3c0-0.6,0-1.3-0.1-1.9c0.3,0.1,0.6,0.1,0.8,0.1
		c2.3,0.2,4.2-2.5,4.4-6.1c0.1-3.6-1.6-6.6-3.9-6.8c-0.2,0-0.3,0-0.5,0c-0.4,0-0.9,0.1-1.3,0.3c-0.5-4.5-3.1-7.6-6-7.3
		c-2.3-0.1-4.4,1.7-5.6,4.8c-0.5-4.6-3.1-7.9-6.1-7.5c-2.7-0.3-5.2,2.4-6,6.5C1639,981.1,1637.2,980.1,1635.2,980.1z"/>
	<path id="Path_238" class="st35" d="M1676.6,985.1c-1,0-2,0.6-2.8,1.6c-0.7,1.1-1.2,2.5-1.2,4.1c0,0.8,0.1,1.6,0.3,2.3
		c-1.3,0.1-2.3,1.6-2.4,3.6c0.1,2.2,1.3,3.8,2.7,3.7c0.7,0,1.4-0.3,1.9-1c0.8,2.1,2.2,3.3,3.8,3.2c1.3,0.1,2.6-0.8,3.5-2.5
		c0.5,0.7,1.1,1,1.8,1c0.8,0,1.6-0.5,2.1-1.5c0.4,0.2,0.8,0.3,1.3,0.3c0.9,0.1,1.8-0.3,2.5-1.2c0.7-0.8,1.1-2.1,1.2-3.4
		c0-0.3,0-0.6,0-0.9c0.1,0,0.3,0,0.4,0c1.1,0,2.1-1.4,2.1-3.2c0-1.8-0.9-3.2-2.1-3.2c0,0,0,0,0,0c-0.2,0-0.4,0-0.6,0.1
		c-0.3-2.2-1.6-3.7-3-3.6c-1.1-0.1-2.2,0.8-2.8,2.3c-0.4-2.6-2.1-4.2-3.8-3.5c-1,0.4-1.8,1.5-2.2,3.1
		C1678.5,985.5,1677.6,985,1676.6,985.1L1676.6,985.1z"/>
	<path id="Path_239" class="st35" d="M1509.5,647.6c48.9,3.3,97.9,2.9,147.1,5.9C1607.9,643.7,1558.4,644.1,1509.5,647.6z"/>
	<path id="Path_240" class="st35" d="M1472.2,743.6c72.1-1.5,137.2,1,209,4.3c19.4,0.9,12.7,0.6,32.4,0.8
		C1634.7,739.6,1550.9,733.5,1472.2,743.6z"/>
	<path id="Path_241" class="st35" d="M1523.8,855.3c61,1.3,116.6,7.2,176.9,10.9c15.5,1,11.4,0.7,27.3,0.8
		C1661.6,858.2,1590.1,848.5,1523.8,855.3z"/>
	<path id="Path_242" class="st35" d="M1492.7,941c75.9,1,148.9,2,224.7,11.7C1662.2,937.8,1549.2,933.4,1492.7,941z"/>
</g>
</svg>
