<svg xmlns="http://www.w3.org/2000/svg" width="95.789" height="97.436" viewBox="0 0 95.789 97.436">
  <g id="route" transform="translate(-0.507)">
    <path id="Path_3538" data-name="Path 3538" d="M33.82,31.458A18.386,18.386,0,0,0,19.971,25,18.38,18.38,0,0,0,6.124,31.458a23.769,23.769,0,0,0,0,30.691L19.971,77.792,33.819,62.149A23.767,23.767,0,0,0,33.82,31.458ZM31.388,60l-11.415,12.9L8.557,60a20.429,20.429,0,0,1,0-26.384,15.179,15.179,0,0,1,11.415-5.364,15.177,15.177,0,0,1,11.415,5.364A20.431,20.431,0,0,1,31.388,60Z" transform="translate(0 15.598)" fill="#fff"/>
    <path id="Path_3539" data-name="Path 3539" d="M54.408,39.8l10.5-11.832a17.845,17.845,0,0,0,0-23.086,13.732,13.732,0,0,0-21,0,17.845,17.845,0,0,0,0,23.086ZM46.339,7.036a10.486,10.486,0,0,1,16.137,0,14.512,14.512,0,0,1,0,18.773l-8.068,9.1-8.069-9.1A14.512,14.512,0,0,1,46.339,7.036Z" transform="translate(24.437)" fill="#fff"/>
    <path id="Path_3540" data-name="Path 3540" d="M53.9,54.532a1.623,1.623,0,0,0-1.941,1.228,5.634,5.634,0,0,1-1.077,2.261,1.624,1.624,0,1,0,2.553,2.007,8.948,8.948,0,0,0,1.692-3.553A1.624,1.624,0,0,0,53.9,54.532Z" transform="translate(31.212 33.999)" fill="#fff"/>
    <path id="Path_3541" data-name="Path 3541" d="M33.623,31.184a5.712,5.712,0,0,1-2.033-.374,1.624,1.624,0,1,0-1.158,3.035,8.966,8.966,0,0,0,3.188.586h.58a1.624,1.624,0,1,0,0-3.248Z" transform="translate(18.019 19.158)" fill="#fff"/>
    <path id="Path_3542" data-name="Path 3542" d="M30.246,26.328a1.624,1.624,0,0,0,.857-.245,5.6,5.6,0,0,1,2.361-.817,1.625,1.625,0,0,0-.356-3.23,8.806,8.806,0,0,0-3.725,1.289,1.625,1.625,0,0,0,.862,3Z" transform="translate(17.54 13.744)" fill="#fff"/>
    <path id="Path_3543" data-name="Path 3543" d="M19.936,58H16.688a1.624,1.624,0,1,0,0,3.248h3.248a1.624,1.624,0,1,0,0-3.248Z" transform="translate(9.083 36.188)" fill="#fff"/>
    <path id="Path_3544" data-name="Path 3544" d="M36.751,40c-.14,0-.278,0-.416.01a1.624,1.624,0,0,0,.065,3.246c.023,0,.045,0,.068,0l3.181-.006a1.624,1.624,0,0,0,0-3.248Z" transform="translate(21.383 24.957)" fill="#fff"/>
    <path id="Path_3545" data-name="Path 3545" d="M36.117,25.248h3.248a1.624,1.624,0,0,0,0-3.248H36.117a1.624,1.624,0,0,0,0,3.248Z" transform="translate(21.205 13.726)" fill="#fff"/>
    <path id="Path_3546" data-name="Path 3546" d="M48.4,40a1.624,1.624,0,0,0,0,3.248H51.65a1.624,1.624,0,0,0,0-3.248Z" transform="translate(28.87 24.957)" fill="#fff"/>
    <path id="Path_3547" data-name="Path 3547" d="M53.847,32.624A1.622,1.622,0,0,0,52.223,31H48.975a1.624,1.624,0,1,0,0,3.248h3.248A1.623,1.623,0,0,0,53.847,32.624Z" transform="translate(29.227 19.342)" fill="#fff"/>
    <path id="Path_3548" data-name="Path 3548" d="M42.4,43.248H45.65a1.624,1.624,0,0,0,0-3.248H42.4a1.624,1.624,0,0,0,0,3.248Z" transform="translate(25.126 24.957)" fill="#fff"/>
    <path id="Path_3549" data-name="Path 3549" d="M45.365,25.248a1.624,1.624,0,1,0,0-3.248H42.117a1.624,1.624,0,1,0,0,3.248Z" transform="translate(24.948 13.726)" fill="#fff"/>
    <path id="Path_3550" data-name="Path 3550" d="M36.975,31a1.624,1.624,0,0,0,0,3.248h3.248a1.624,1.624,0,0,0,0-3.248Z" transform="translate(21.74 19.342)" fill="#fff"/>
    <path id="Path_3551" data-name="Path 3551" d="M47.847,32.624A1.622,1.622,0,0,0,46.223,31H42.975a1.624,1.624,0,1,0,0,3.248h3.248A1.623,1.623,0,0,0,47.847,32.624Z" transform="translate(25.484 19.342)" fill="#fff"/>
    <path id="Path_3552" data-name="Path 3552" d="M60.746,36.158a1.624,1.624,0,0,0-3.207.515,5.351,5.351,0,0,1,.068.9,5.687,5.687,0,0,1-.231,1.6,1.624,1.624,0,0,0,1.1,2.015,1.648,1.648,0,0,0,.456.065,1.624,1.624,0,0,0,1.559-1.168,8.946,8.946,0,0,0,.361-2.506A8.632,8.632,0,0,0,60.746,36.158Z" transform="translate(35.441 21.706)" fill="#fff"/>
    <path id="Path_3553" data-name="Path 3553" d="M43.936,58H40.688a1.624,1.624,0,1,0,0,3.248h3.248a1.624,1.624,0,1,0,0-3.248Z" transform="translate(24.057 36.188)" fill="#fff"/>
    <path id="Path_3554" data-name="Path 3554" d="M37.936,58H34.688a1.624,1.624,0,0,0,0,3.248h3.248a1.624,1.624,0,0,0,0-3.248Z" transform="translate(20.313 36.188)" fill="#fff"/>
    <path id="Path_3555" data-name="Path 3555" d="M49.561,50.624A1.622,1.622,0,0,0,47.937,49H44.689a1.624,1.624,0,1,0,0,3.248h3.248A1.623,1.623,0,0,0,49.561,50.624Z" transform="translate(26.553 30.573)" fill="#fff"/>
    <path id="Path_3556" data-name="Path 3556" d="M43.561,50.624A1.622,1.622,0,0,0,41.937,49H38.689a1.624,1.624,0,1,0,0,3.248h3.248A1.623,1.623,0,0,0,43.561,50.624Z" transform="translate(22.81 30.573)" fill="#fff"/>
    <path id="Path_3557" data-name="Path 3557" d="M49.821,58H46.687a1.624,1.624,0,1,0,0,3.248l3.2,0,.047-1.624v1.624A1.575,1.575,0,0,0,51.5,59.622,1.672,1.672,0,0,0,49.821,58Z" transform="translate(27.8 36.188)" fill="#fff"/>
    <path id="Path_3558" data-name="Path 3558" d="M53.116,54.748A1.624,1.624,0,0,0,54.39,52.12a9,9,0,0,0-3.051-2.481,1.624,1.624,0,0,0-1.447,2.908,5.7,5.7,0,0,1,1.944,1.582A1.628,1.628,0,0,0,53.116,54.748Z" transform="translate(30.251 30.864)" fill="#fff"/>
    <path id="Path_3559" data-name="Path 3559" d="M56.947,39.778a5.639,5.639,0,0,1-2.2.44H54.4a1.624,1.624,0,1,0,0,3.248h.349a8.867,8.867,0,0,0,3.451-.693,1.623,1.623,0,0,0-1.255-2.995Z" transform="translate(32.613 24.739)" fill="#fff"/>
    <path id="Path_3560" data-name="Path 3560" d="M28.987,32.3a1.627,1.627,0,0,0,1.036-2.051,5.674,5.674,0,0,1-.283-1.767,6.37,6.37,0,0,1,.045-.729,1.624,1.624,0,0,0-3.222-.406,9.455,9.455,0,0,0-.071,1.127,8.939,8.939,0,0,0,.443,2.79,1.626,1.626,0,0,0,1.543,1.117A1.577,1.577,0,0,0,28.987,32.3Z" transform="translate(16.213 16.179)" fill="#fff"/>
    <path id="Path_3561" data-name="Path 3561" d="M25.936,58H22.688a1.624,1.624,0,1,0,0,3.248h3.248a1.624,1.624,0,1,0,0-3.248Z" transform="translate(12.826 36.188)" fill="#fff"/>
    <path id="Path_3562" data-name="Path 3562" d="M35.73,52.592a1.624,1.624,0,0,0,.677-3.1,5.745,5.745,0,0,1-1.994-1.52,1.624,1.624,0,1,0-2.486,2.09,8.993,8.993,0,0,0,3.129,2.382A1.635,1.635,0,0,0,35.73,52.592Z" transform="translate(19.366 29.569)" fill="#fff"/>
    <path id="Path_3563" data-name="Path 3563" d="M58.864,32.19A8.831,8.831,0,0,0,55.1,31.018a1.624,1.624,0,1,0-.253,3.238A5.591,5.591,0,0,1,57.236,35a1.624,1.624,0,1,0,1.629-2.809Z" transform="translate(32.971 19.35)" fill="#fff"/>
    <path id="Path_3564" data-name="Path 3564" d="M31.936,58H28.688a1.624,1.624,0,1,0,0,3.248h3.248a1.624,1.624,0,1,0,0-3.248Z" transform="translate(16.57 36.188)" fill="#fff"/>
    <path id="Path_3565" data-name="Path 3565" d="M33.792,46.714A5.642,5.642,0,0,1,34.8,44.419a1.624,1.624,0,0,0-2.616-1.924A8.9,8.9,0,0,0,30.6,46.1,1.626,1.626,0,0,0,31.891,48a1.624,1.624,0,0,0,1.9-1.291Z" transform="translate(18.758 26.101)" fill="#fff"/>
    <path id="Path_3566" data-name="Path 3566" d="M52.425,21.863a8.932,8.932,0,1,0-8.932-8.932A8.943,8.943,0,0,0,52.425,21.863Zm0-14.615a5.684,5.684,0,1,1-5.684,5.684A5.69,5.69,0,0,1,52.425,7.248Z" transform="translate(26.82 2.496)" fill="#fff"/>
    <path id="Path_3567" data-name="Path 3567" d="M16.237,31a9.744,9.744,0,1,0,9.744,9.744A9.753,9.753,0,0,0,16.237,31Zm0,16.239a6.5,6.5,0,1,1,6.5-6.5A6.5,6.5,0,0,1,16.237,47.239Z" transform="translate(3.735 19.342)" fill="#fff"/>
  </g>
</svg>
