<svg xmlns="http://www.w3.org/2000/svg" width="79.739" height="84.63" viewBox="0 0 79.739 84.63">
  <g id="Group_1217" data-name="Group 1217" transform="translate(-157.498 -1592)">
    <g id="Group_1216" data-name="Group 1216">
      <path id="Path_29" data-name="Path 29" d="M53.472.274l-37.9,18.3a1.375,1.375,0,0,0-.777,1.238V64.824a1.375,1.375,0,0,0,.777,1.238l37.9,18.3a2.749,2.749,0,0,0,2.391,0l37.9-18.3a1.375,1.375,0,0,0,.777-1.238V19.807a1.375,1.375,0,0,0-.777-1.238L55.863.274A2.75,2.75,0,0,0,53.472.274Z" transform="translate(142.7 1592)" fill="#ffe17d"/>
    </g>
    <path id="Path_30" data-name="Path 30" d="M15.027,115.273a1.37,1.37,0,0,0-.229.753v45.018a1.375,1.375,0,0,0,.777,1.238l37.9,18.295a2.747,2.747,0,0,0,1.2.273V134.41Z" transform="translate(142.7 1495.781)" fill="#ffc350"/>
    <path id="Path_31" data-name="Path 31" d="M295.641,115.273a1.369,1.369,0,0,1,.229.753v45.018a1.375,1.375,0,0,1-.777,1.238l-37.9,18.295a2.748,2.748,0,0,1-1.2.274V134.41Z" transform="translate(-58.633 1495.781)" fill="#ffd164"/>
    <path id="Path_34" data-name="Path 34" d="M160.713,57.328,120.933,38.11l-10.486,5.083L150.316,62.44Z" transform="translate(62.861 1560.189)" fill="#ff8087"/>
  </g>
</svg>
