<svg xmlns="http://www.w3.org/2000/svg" width="194.156" height="186.74" viewBox="0 0 194.156 186.74">
  <g id="Untitled-1" transform="translate(0.124 0.008)">
    <path id="Path_1" data-name="Path 1" d="M171.475,157.58,134.932,172.5a2.87,2.87,0,0,1-3.76-1.508h0a2.878,2.878,0,0,1,1.508-3.76l36.551-14.922a2.87,2.87,0,0,1,3.76,1.516h0A2.87,2.87,0,0,1,171.475,157.58Z" transform="translate(-102.064 -76.805)" fill="#fff" stroke="#4bc25a" stroke-miterlimit="10" stroke-width="3"/>
    <path id="Path_2" data-name="Path 2" d="M233.48,257.045l-35.24,15.1a1.756,1.756,0,0,1-2.3-.925h0a1.713,1.713,0,0,1,.917-2.3l35.249-15.1a1.713,1.713,0,0,1,2.3.925h0A1.756,1.756,0,0,1,233.48,257.045Z" transform="translate(-111.364 -91.374)" fill="#fff" stroke="#4bc25a" stroke-miterlimit="10" stroke-width="3"/>
    <path id="Path_3" data-name="Path 3" d="M133.321,244.288l-31.908,13.705a1.713,1.713,0,0,1-2.3-.925h0a1.756,1.756,0,0,1,.925-2.3l31.908-13.705a1.756,1.756,0,0,1,2.3.925h0a1.756,1.756,0,0,1-.925,2.3Z" transform="translate(-97.48 -89.546)" fill="#fff" stroke="#4bc25a" stroke-miterlimit="10" stroke-width="3"/>
    <path id="Path_4" data-name="Path 4" d="M118.446,244.439l-10.853,4.7a1.756,1.756,0,0,1-2.3-.925h0a1.756,1.756,0,0,1,.925-2.3l10.844-4.677a1.713,1.713,0,0,1,2.3.917h0a1.713,1.713,0,0,1-.917,2.279Z" transform="translate(-98.366 -89.57)" fill="#fff" stroke="#4bc25a" stroke-miterlimit="10" stroke-width="3"/>
    <path id="Path_5" data-name="Path 5" d="M224.655,274.223,213.81,278.9a1.713,1.713,0,0,1-2.3-.917h0a1.713,1.713,0,0,1,.925-2.3l10.844-4.711a1.756,1.756,0,0,1,2.3.925h0a1.713,1.713,0,0,1-.925,2.321Z" transform="translate(-113.597 -93.836)" fill="#fff" stroke="#4bc25a" stroke-miterlimit="10" stroke-width="3"/>
    <path id="Path_6" data-name="Path 6" d="M167.171,145.014,156.2,149.382a1.765,1.765,0,0,1-2.27-.985h0a1.713,1.713,0,0,1,.994-2.27l10.973-4.377a1.756,1.756,0,0,1,2.27.994h0a1.765,1.765,0,0,1-.994,2.27Z" transform="translate(-105.341 -75.306)" fill="#fff" stroke="#4bc25a" stroke-miterlimit="10" stroke-width="3"/>
    <path id="Path_7" data-name="Path 7" d="M144.82,181.438l-31.9,13.705a1.713,1.713,0,0,1-2.3-.925h0a1.713,1.713,0,0,1,.925-2.3l31.9-13.705a1.756,1.756,0,0,1,2.3.925h0a1.713,1.713,0,0,1-.925,2.3Z" transform="translate(-99.128 -80.533)" fill="#fff" stroke="#4bc25a" stroke-miterlimit="10" stroke-width="3"/>
    <path id="Path_8" data-name="Path 8" d="M207.02,259.317l-31.908,13.705a1.713,1.713,0,0,1-2.287-.917h0a1.713,1.713,0,0,1,.917-2.3L205.649,256.1a1.713,1.713,0,0,1,2.3.917h0a1.756,1.756,0,0,1-.925,2.3Z" transform="translate(-108.048 -91.701)" fill="#fff" stroke="#4bc25a" stroke-miterlimit="10" stroke-width="3"/>
    <path id="Path_9" data-name="Path 9" d="M190.78,179.357l-31.9,13.705a1.713,1.713,0,0,1-2.3-.917h0a1.713,1.713,0,0,1,.925-2.3l31.9-13.706a1.713,1.713,0,0,1,2.3.917h0a1.713,1.713,0,0,1-.925,2.3Z" transform="translate(-105.719 -80.234)" fill="#fff" stroke="#4bc25a" stroke-miterlimit="10" stroke-width="3"/>
    <path id="Path_10" data-name="Path 10" d="M280.523,103.2a14.245,14.245,0,0,0,7.709-18.614s12.635-3.109,13.269-6.7c.2-1.131-15.419,1.542-15.419,1.542L280.549,66l-15.119.711L254.86,78.446l6.2,14.168h0a14.052,14.052,0,0,0,.857,2.87A14.245,14.245,0,0,0,280.523,103.2Z" transform="translate(-119.835 -64.46)" fill="#fff" stroke="#4bc25a" stroke-miterlimit="10" stroke-width="3"/>
    <path id="Path_11" data-name="Path 11" d="M211.241,102.976,195.188,96.32,181.08,130.31l4.951,2.056C188.8,113.221,199.5,105.468,211.241,102.976Z" transform="translate(-109.254 -68.808)" fill="#fff" stroke="#4bc25a" stroke-miterlimit="10" stroke-width="3"/>
    <path id="Path_12" data-name="Path 12" d="M258.454,125.732l-11.007-4.686c-35.925-6.853-34.872,18.691-34.5,24.884l32.174,13.337Z" transform="translate(-113.81 -72.188)" fill="#fff" stroke="#4bc25a" stroke-miterlimit="10" stroke-width="3"/>
    <path id="Path_13" data-name="Path 13" d="M193.538,160.868c3.555.548,5.14,3.324,8.078,2.236s2.733-5.14,2.733-5.14a3.848,3.848,0,0,0,2.184-2.518c.394-4.394-3.127-4.146-3.127-4.146l-13.705.231S189.957,160.319,193.538,160.868Z" transform="translate(-110.49 -76.692)" fill="#fff" stroke="#4bc25a" stroke-miterlimit="10" stroke-width="3"/>
    <path id="Path_14" data-name="Path 14" d="M316.533,104.91c-3.426-1.174-4.429-4.18-7.547-3.641s-3.6,4.523-3.6,4.523a3.687,3.687,0,0,0-2.57,2.09c-1.182,4.283,2.339,4.643,2.339,4.643l13.5,2.21S319.934,106.083,316.533,104.91Z" transform="translate(-126.678 -69.509)" fill="#fff" stroke="#4bc25a" stroke-miterlimit="10" stroke-width="3"/>
    <path id="Path_15" data-name="Path 15" d="M153.012,228.23l-9.9,2.75,12.849,35.232s6.527-5.628,6.75-12.352-8.189-13.834-8.189-13.834l3.769-1.756Z" transform="translate(-103.809 -87.725)" fill="#fff" stroke="#4bc25a" stroke-miterlimit="10" stroke-width="3"/>
    <path id="Path_16" data-name="Path 16" d="M274.563,137.2c-3.718,1.542-11.067-7.589-14.408-12.086l3.623-5.217-14.065-13.526-4.514.051-.857,2.1c-10.656-3.641-59.353-17.44-60.6,34.264l18.271.3s-4.968-35.454,38.846-25.612l12.609,4.823-15.761,37.553-22.323-9.26a69.444,69.444,0,0,1-8.043,5.362l-.857,1.036a24.678,24.678,0,0,0-5.868,15.556l-.051,2.87c.463,26.315-46.41,30.135-46.41,30.135l9.568,18.263c34.778-7.29,54.668-30.383,64.107-45.074,11.667,2.09,22.982,5.311,24.516,10.022,3.281,10.125-15.958,33.51-15.958,33.51l5.534,1.362,12.035,2.955,3.426.857a72.824,72.824,0,0,0-5.414,5.011l1.413-4.232-11.752-2.792-3.426,21.843L275.111,232a9.954,9.954,0,0,0-8.232-7.615c-3.5-.582-5.739-.128-9.328,2.844,1.893-3.161,30.289-51.4,1.4-58.325-8.566-2.064-16.524-4.017-23.462-5.748,5.062-3.666,15.419-12.326,20.353-24.576,5.1,6.647,13.705,15.282,22.391,11.889,13.526-5.294,19.419-33.407,19.419-33.407l-17.132-3.478S279.471,135.179,274.563,137.2Z" transform="translate(-105.394 -69.926)" fill="#fff" stroke="#4bc25a" stroke-miterlimit="10" stroke-width="3"/>
  </g>
</svg>
