<svg xmlns="http://www.w3.org/2000/svg" width="156.322" height="150.32" viewBox="0 0 156.322 150.32">
  <g id="Untitled-1" transform="translate(1.61 1.548)">
    <path id="Path_1" data-name="Path 1" d="M163.439,156.49l-29.3,11.963a2.3,2.3,0,0,1-3.015-1.209h0a2.307,2.307,0,0,1,1.209-3.015l29.3-11.963a2.3,2.3,0,0,1,3.015,1.216h0A2.3,2.3,0,0,1,163.439,156.49Z" transform="translate(-108.992 -92.965)" fill="#fff" stroke="#4bc25a" stroke-miterlimit="10" stroke-width="3"/>
    <path id="Path_2" data-name="Path 2" d="M226.008,256.377l-28.253,12.108a1.408,1.408,0,0,1-1.841-.742h0a1.374,1.374,0,0,1,.735-1.841l28.26-12.107a1.373,1.373,0,0,1,1.84.742h0A1.408,1.408,0,0,1,226.008,256.377Z" transform="translate(-129.305 -124.788)" fill="#fff" stroke="#4bc25a" stroke-miterlimit="10" stroke-width="3"/>
    <path id="Path_3" data-name="Path 3" d="M126.512,243.622,100.93,254.61a1.374,1.374,0,0,1-1.84-.742h0a1.408,1.408,0,0,1,.742-1.84l25.582-10.988a1.408,1.408,0,0,1,1.84.742h0A1.408,1.408,0,0,1,126.512,243.622Z" transform="translate(-98.978 -120.796)" fill="#fff" stroke="#4bc25a" stroke-miterlimit="10" stroke-width="3"/>
    <path id="Path_4" data-name="Path 4" d="M115.811,243.776l-8.7,3.77a1.408,1.408,0,0,1-1.841-.742h0a1.408,1.408,0,0,1,.742-1.84l8.694-3.75a1.374,1.374,0,0,1,1.84.735h0a1.373,1.373,0,0,1-.735,1.827Z" transform="translate(-100.914 -120.847)" fill="#fff" stroke="#4bc25a" stroke-miterlimit="10" stroke-width="3"/>
    <path id="Path_5" data-name="Path 5" d="M222.019,273.552l-8.694,3.75a1.374,1.374,0,0,1-1.84-.735h0a1.374,1.374,0,0,1,.742-1.841l8.694-3.777a1.408,1.408,0,0,1,1.84.742h0a1.373,1.373,0,0,1-.742,1.861Z" transform="translate(-134.182 -130.165)" fill="#fff" stroke="#4bc25a" stroke-miterlimit="10" stroke-width="3"/>
    <path id="Path_6" data-name="Path 6" d="M164.519,144.343l-8.8,3.5a1.415,1.415,0,0,1-1.82-.79h0a1.374,1.374,0,0,1,.8-1.82l8.8-3.509a1.408,1.408,0,0,1,1.82.8h0a1.415,1.415,0,0,1-.8,1.82Z" transform="translate(-116.15 -89.691)" fill="#fff" stroke="#4bc25a" stroke-miterlimit="10" stroke-width="3"/>
    <path id="Path_7" data-name="Path 7" d="M138.01,180.772,112.435,191.76a1.373,1.373,0,0,1-1.84-.742h0a1.373,1.373,0,0,1,.742-1.84l25.575-10.988a1.408,1.408,0,0,1,1.84.742h0a1.374,1.374,0,0,1-.742,1.84Z" transform="translate(-102.579 -101.108)" fill="#fff" stroke="#4bc25a" stroke-miterlimit="10" stroke-width="3"/>
    <path id="Path_8" data-name="Path 8" d="M200.209,258.649l-25.582,10.988a1.373,1.373,0,0,1-1.834-.735h0a1.373,1.373,0,0,1,.735-1.84l25.582-10.988a1.374,1.374,0,0,1,1.84.735h0a1.408,1.408,0,0,1-.742,1.841Z" transform="translate(-122.062 -125.501)" fill="#fff" stroke="#4bc25a" stroke-miterlimit="10" stroke-width="3"/>
    <path id="Path_9" data-name="Path 9" d="M183.97,178.689l-25.575,10.988a1.374,1.374,0,0,1-1.841-.735h0a1.373,1.373,0,0,1,.742-1.84l25.575-10.988a1.374,1.374,0,0,1,1.841.735h0a1.374,1.374,0,0,1-.742,1.84Z" transform="translate(-116.976 -100.454)" fill="#fff" stroke="#4bc25a" stroke-miterlimit="10" stroke-width="3"/>
    <path id="Path_10" data-name="Path 10" d="M275.435,95.826A11.421,11.421,0,0,0,281.616,80.9s10.13-2.493,10.638-5.37c.158-.907-12.362,1.236-12.362,1.236L275.456,66l-12.121.57-8.475,9.409,4.972,11.359h0a11.263,11.263,0,0,0,.687,2.3A11.421,11.421,0,0,0,275.435,95.826Z" transform="translate(-147.808 -66)" fill="#fff" stroke="#4bc25a" stroke-miterlimit="10" stroke-width="3"/>
    <path id="Path_11" data-name="Path 11" d="M205.261,101.656l-12.87-5.336L181.08,123.57l3.969,1.648C187.268,109.87,195.845,103.655,205.261,101.656Z" transform="translate(-124.696 -75.498)" fill="#fff" stroke="#4bc25a" stroke-miterlimit="10" stroke-width="3"/>
    <path id="Path_12" data-name="Path 12" d="M249.412,124.573l-8.825-3.757c-28.8-5.494-27.958,14.985-27.662,19.95l25.795,10.693Z" transform="translate(-134.647 -82.88)" fill="#fff" stroke="#4bc25a" stroke-miterlimit="10" stroke-width="3"/>
    <path id="Path_13" data-name="Path 13" d="M192.777,158.97c2.85.44,4.121,2.665,6.476,1.792s2.191-4.121,2.191-4.121a3.085,3.085,0,0,0,1.751-2.019c.316-3.523-2.507-3.324-2.507-3.324l-10.988.185S189.906,158.531,192.777,158.97Z" transform="translate(-127.397 -92.719)" fill="#fff" stroke="#4bc25a" stroke-miterlimit="10" stroke-width="3"/>
    <path id="Path_14" data-name="Path 14" d="M313.766,104.175c-2.747-.941-3.551-3.351-6.05-2.919s-2.884,3.626-2.884,3.626a2.956,2.956,0,0,0-2.06,1.676c-.948,3.434,1.875,3.722,1.875,3.722l10.823,1.772S316.493,105.116,313.766,104.175Z" transform="translate(-162.755 -77.028)" fill="#fff" stroke="#4bc25a" stroke-miterlimit="10" stroke-width="3"/>
    <path id="Path_15" data-name="Path 15" d="M151.049,228.23l-7.939,2.2,10.3,28.246s5.233-4.512,5.412-9.9-6.565-11.091-6.565-11.091l3.022-1.408Z" transform="translate(-112.802 -116.818)" fill="#fff" stroke="#4bc25a" stroke-miterlimit="10" stroke-width="3"/>
    <path id="Path_16" data-name="Path 16" d="M250.69,130.641c-2.981,1.236-8.873-6.085-11.551-9.69l2.9-4.182-11.276-10.844-3.619.041-.687,1.683c-8.543-2.919-47.585-13.982-48.581,27.47l14.648.24s-3.983-28.425,31.144-20.534l10.109,3.866L221.146,148.8l-17.9-7.424a55.679,55.679,0,0,1-6.449,4.3l-.687.831a19.785,19.785,0,0,0-4.7,12.471l-.041,2.3c.371,21.1-37.208,24.16-37.208,24.16l7.671,14.642c27.882-5.844,43.829-24.359,51.4-36.137,9.354,1.676,18.426,4.258,19.655,8.035,2.63,8.117-12.794,26.866-12.794,26.866l4.436,1.092,9.649,2.369,2.747.687a58.386,58.386,0,0,0-4.34,4.017l1.133-3.393-9.422-2.239-2.747,17.512,29.585-12.245a7.98,7.98,0,0,0-6.6-6.105c-2.809-.467-4.6-.1-7.479,2.28,1.518-2.534,24.284-41.205,1.119-46.761-6.868-1.655-13.247-3.221-18.81-4.608,4.059-2.939,12.362-9.882,16.317-19.7,4.086,5.329,10.988,12.252,17.952,9.532C264.473,137.035,269.2,114.5,269.2,114.5l-13.735-2.788S254.625,129.02,250.69,130.641Z" transform="translate(-116.264 -77.939)" fill="#fff" stroke="#4bc25a" stroke-miterlimit="10" stroke-width="3"/>
  </g>
</svg>
