<svg xmlns="http://www.w3.org/2000/svg" width="131.419" height="126.348" viewBox="0 0 131.419 126.348"><defs><style>.a{fill:#fff;stroke:#4bc25a;stroke-miterlimit:10;stroke-width:3px;}</style></defs><g transform="translate(1.602 1.548)"><path class="a" d="M158.149,155.773l-24.528,10.016a1.926,1.926,0,0,1-2.524-1.012h0a1.932,1.932,0,0,1,1.012-2.524l24.534-10.016a1.926,1.926,0,0,1,2.524,1.018h0A1.926,1.926,0,0,1,158.149,155.773Z" transform="translate(-112.565 -102.589)"/><path class="a" d="M221.089,255.937l-23.654,10.137a1.179,1.179,0,0,1-1.541-.621h0a1.15,1.15,0,0,1,.615-1.541l23.66-10.137a1.15,1.15,0,0,1,1.541.621h0A1.179,1.179,0,0,1,221.089,255.937Z" transform="translate(-140.128 -145.768)"/><path class="a" d="M122.03,243.183l-21.417,9.2a1.15,1.15,0,0,1-1.541-.621h0a1.179,1.179,0,0,1,.621-1.541l21.417-9.2a1.179,1.179,0,0,1,1.541.621h0A1.179,1.179,0,0,1,122.03,243.183Z" transform="translate(-98.978 -140.351)"/><path class="a" d="M114.077,243.339l-7.285,3.157a1.179,1.179,0,0,1-1.541-.621h0a1.179,1.179,0,0,1,.621-1.541l7.279-3.139a1.15,1.15,0,0,1,1.541.615h0a1.15,1.15,0,0,1-.615,1.529Z" transform="translate(-101.605 -140.42)"/><path class="a" d="M220.285,273.111l-7.279,3.139a1.15,1.15,0,0,1-1.541-.615h0a1.15,1.15,0,0,1,.621-1.541l7.279-3.162a1.179,1.179,0,0,1,1.541.621h0a1.15,1.15,0,0,1-.621,1.558Z" transform="translate(-146.746 -153.064)"/><path class="a" d="M162.773,143.9l-7.365,2.932a1.184,1.184,0,0,1-1.524-.661h0a1.15,1.15,0,0,1,.667-1.524l7.365-2.938a1.179,1.179,0,0,1,1.524.667h0a1.184,1.184,0,0,1-.667,1.524Z" transform="translate(-122.278 -98.146)"/><path class="a" d="M133.527,180.333l-21.412,9.2a1.15,1.15,0,0,1-1.541-.621h0a1.15,1.15,0,0,1,.621-1.541l21.412-9.2a1.179,1.179,0,0,1,1.541.621h0a1.15,1.15,0,0,1-.621,1.541Z" transform="translate(-103.864 -113.638)"/><path class="a" d="M195.727,258.21l-21.417,9.2a1.15,1.15,0,0,1-1.535-.615h0a1.15,1.15,0,0,1,.615-1.541l21.417-9.2a1.15,1.15,0,0,1,1.541.615h0a1.179,1.179,0,0,1-.621,1.541Z" transform="translate(-130.301 -146.736)"/><path class="a" d="M179.487,178.25l-21.412,9.2a1.15,1.15,0,0,1-1.541-.615h0a1.15,1.15,0,0,1,.621-1.541l21.412-9.2a1.15,1.15,0,0,1,1.541.615h0a1.15,1.15,0,0,1-.621,1.541Z" transform="translate(-123.399 -112.75)"/><path class="a" d="M272.086,90.971a9.562,9.562,0,0,0,5.175-12.494s8.481-2.087,8.906-4.5c.132-.759-10.349,1.035-10.349,1.035L272.1,66l-10.148.477-7.1,7.877,4.163,9.51h0a9.431,9.431,0,0,0,.575,1.926A9.562,9.562,0,0,0,272.086,90.971Z" transform="translate(-165.234 -66)"/><path class="a" d="M201.324,100.787,190.55,96.32l-9.47,22.814,3.323,1.38C186.26,107.664,193.442,102.461,201.324,100.787Z" transform="translate(-133.875 -78.887)"/><path class="a" d="M243.459,123.811l-7.388-3.145c-24.114-4.6-23.407,12.546-23.159,16.7l21.6,8.952Z" transform="translate(-147.377 -88.905)"/><path class="a" d="M192.276,157.721c2.386.368,3.45,2.231,5.422,1.5s1.834-3.45,1.834-3.45a2.583,2.583,0,0,0,1.466-1.69c.264-2.95-2.1-2.783-2.1-2.783l-9.2.155S189.872,157.353,192.276,157.721Z" transform="translate(-137.539 -102.254)"/><path class="a" d="M311.945,103.692c-2.3-.788-2.973-2.806-5.065-2.444s-2.415,3.036-2.415,3.036a2.475,2.475,0,0,0-1.725,1.4c-.793,2.875,1.57,3.116,1.57,3.116l9.061,1.483S314.227,104.479,311.945,103.692Z" transform="translate(-185.515 -80.963)"/><path class="a" d="M149.757,228.23l-6.647,1.846,8.624,23.648s4.381-3.777,4.531-8.291-5.5-9.286-5.5-9.286l2.53-1.179Z" transform="translate(-117.736 -134.954)"/><path class="a" d="M234.977,126.323c-2.5,1.035-7.429-5.094-9.671-8.113l2.432-3.5L218.3,105.63l-3.03.035-.575,1.409c-7.153-2.444-39.839-11.706-40.673,23l12.264.2s-3.335-23.8,26.075-17.191l8.463,3.237-10.579,25.206-14.984-6.215a46.611,46.611,0,0,1-5.4,3.6l-.575.7a16.565,16.565,0,0,0-3.938,10.441l-.035,1.926c.31,17.663-31.151,20.227-31.151,20.227l6.422,12.258c23.343-4.893,36.694-20.394,43.03-30.255,7.831,1.4,15.426,3.565,16.455,6.727,2.2,6.8-10.712,22.493-10.712,22.493l3.714.914,8.078,1.984,2.3.575a48.887,48.887,0,0,0-3.634,3.364l.949-2.84-7.888-1.874-2.3,14.662,24.769-10.252a6.681,6.681,0,0,0-5.525-5.111c-2.352-.391-3.852-.086-6.261,1.909,1.271-2.122,20.331-34.5.937-39.149-5.75-1.386-11.091-2.7-15.748-3.858,3.4-2.461,10.349-8.274,13.661-16.5,3.421,4.462,9.2,10.257,15.03,7.98,9.079-3.553,13.034-22.424,13.034-22.424l-11.5-2.334S238.271,124.966,234.977,126.323Z" transform="translate(-122.433 -82.2)"/></g></svg>