<svg id="Group_207" data-name="Group 207" xmlns="http://www.w3.org/2000/svg" width="101.598" height="98.388" viewBox="0 0 101.598 98.388">
  <path id="Path_668" data-name="Path 668" d="M649.145,839.207c-21.312,0-38.651,17.842-38.651,39.772s17.339,39.771,38.651,39.771S687.8,900.908,687.8,878.979,670.457,839.207,649.145,839.207Zm0,75.28c-19.028,0-34.509-15.928-34.509-35.507s15.481-35.51,34.509-35.51,34.508,15.929,34.508,35.51S668.173,914.486,649.145,914.486Z" transform="translate(-598.348 -829.785)" fill="#fff"/>
  <path id="Path_669" data-name="Path 669" d="M655.385,870.345l-11.062,8.578V848.41c0-1.176-1.23-2.13-2.748-2.13s-2.748.954-2.748,2.13v35.658a1.624,1.624,0,0,0,.055.42,1.759,1.759,0,0,0,.066.175,1.684,1.684,0,0,0,.091.223,1.861,1.861,0,0,0,.136.2,1.945,1.945,0,0,0,.116.166,2.58,2.58,0,0,0,.764.592c.056.03.118.048.175.073a3.038,3.038,0,0,0,.3.121c.081.026.168.042.252.061s.168.047.259.06a3.661,3.661,0,0,0,.537.042,3.5,3.5,0,0,0,.535-.042,2.658,2.658,0,0,0,.261-.061c.084-.02.17-.034.252-.06a2.97,2.97,0,0,0,.3-.124c.055-.025.114-.042.168-.071a2.49,2.49,0,0,0,.426-.271l15.751-12.215a1.814,1.814,0,0,0,0-3.014A3.335,3.335,0,0,0,655.385,870.345Z" transform="translate(-593.31 -827.613)" fill="#fff"/>
  <path id="Path_670" data-name="Path 670" d="M654.076,832c-28.01,0-50.8,22.068-50.8,49.194s22.789,49.194,50.8,49.194,50.8-22.068,50.8-49.194S682.086,832,654.076,832Zm0,94.122c-25.583,0-46.4-20.155-46.4-44.929s20.813-44.931,46.4-44.931,46.4,20.157,46.4,44.931S679.659,926.122,654.076,926.122Z" transform="translate(-603.277 -831.999)" fill="#fff"/>
</svg>
