<svg xmlns="http://www.w3.org/2000/svg" width="899.622" height="501.521" viewBox="0 0 899.622 501.521">
  <g id="bike" transform="translate(158.101 -0.005)">
    <path id="Path_157" data-name="Path 157" d="M75.451,214.3a1.941,1.941,0,0,0,1.715,2.038,1.992,1.992,0,0,0,2.231-1.505,208.755,208.755,0,0,1,27.576-76.248,202.33,202.33,0,0,1,53.685-59.35,1.86,1.86,0,0,0,.373-2.674,2.035,2.035,0,0,0-2.779-.359,205.994,205.994,0,0,0-54.743,60.484A213.11,213.11,0,0,0,75.451,214.3Z" transform="translate(484.37 -23.04)" fill="#5a5858" fill-rule="evenodd"/>
    <path id="Path_158" data-name="Path 158" d="M386.534,141.707c-5.8,11.18-43.121,114.58-53.805,120.367S239.8,221.08,239.8,221.08l1.275-13.426s75.943,21.573,77,20.833S345.8,129.971,349.357,123.12C359.078,104.648,392.358,130.527,386.534,141.707Z" transform="translate(-68.723 7.974)" fill="#e7c0ad" fill-rule="evenodd"/>
    <path id="Path_159" data-name="Path 159" d="M299.4,125.96c-5.342-7.2-19.948-12.338-30.3-11.99s-17.373,15.74-19.106,22.175-12.417,54.466-12.417,54.466,36.528,17.916,36.889,16.759C279.279,191.884,305.893,149.015,299.4,125.96Z" transform="translate(15.316 7.791)" fill="#95a198" fill-rule="evenodd"/>
    <path id="Path_160" data-name="Path 160" d="M125.73,285.429c1.9,0,37.755,6.782,47.284,7.453l1.973-12.222-47.476-6.551Z" transform="translate(376.15 172.927)" fill="#2d2929" fill-rule="evenodd"/>
    <path id="Path_161" data-name="Path 161" d="M175.215,277.26S197.666,289.6,207.652,292.7s178.885,3.773,178.885,3.773,45.72,8.912,49.883,9.583,51.327,5.833,52.024,2.315-4.981-41.48-4.981-41.48-69.783,8.241-68.772,11.319-4.187,4.444-4.187,4.444Z" transform="translate(-21.422 163.435)" fill="#2d2929" fill-rule="evenodd"/>
    <path id="Path_162" data-name="Path 162" d="M420.474,180.56c-3.922,2.315-152.343,21.62-166.228,36.527s-61.818,142.4-58.618,142.4,48.848,16.574,48.848,16.574,31.282-134.973,34.17-134.648,111.2-9.444,132.924-8.055,36.094.324,39.2-15.092S420.474,180.56,420.474,180.56Z" transform="translate(-30.715 49.933)" fill="#08334c" fill-rule="evenodd"/>
    <path id="Path_163" data-name="Path 163" d="M139.29,306.363c-.013-35.3,29.726-63.925,66.422-63.933,36.712,0,66.459,28.618,66.454,63.918s-29.75,63.907-66.446,63.9c-36.672,0-66.412-28.595-66.43-63.879Z" transform="translate(253.901 131.276)" fill="#3e3b3a" fill-rule="evenodd"/>
    <path id="Path_164" data-name="Path 164" d="M148.65,294.044c0-23.331,19.662-42.244,43.915-42.244s43.915,18.913,43.915,42.244-19.661,42.244-43.915,42.244S148.65,317.375,148.65,294.044Z" transform="translate(267.904 143.595)" fill="#f2f2f2" fill-rule="evenodd"/>
    <path id="Path_165" data-name="Path 165" d="M154.11,286.866c0-16.351,13.779-29.605,30.777-29.606s30.777,13.255,30.777,29.606-13.779,29.606-30.777,29.606a31.382,31.382,0,0,1-21.769-8.664A29.022,29.022,0,0,1,154.11,286.866Z" transform="translate(276.028 150.774)" fill="#717172" fill-rule="evenodd"/>
    <path id="Path_166" data-name="Path 166" d="M162.88,275.4a9.777,9.777,0,1,1,9.77,9.375,9.587,9.587,0,0,1-9.77-9.375Z" transform="translate(288.832 162.238)" fill="#ece2ba" fill-rule="evenodd"/>
    <path id="Path_167" data-name="Path 167" d="M276.937,66.785s-25.82,29.721-26.469,31.18,2.84,14.652.529,17.245-14.438,11.3-13.716,13.888,6.329,6.782,10.419,6.6,2.888,2.685,2.888,2.685-4.668,9.4,6.377,21.921,29.574,16.805,37.779,15.763,11.045-3.079,11.045-3.079,10.876-5.833,20.839,4.977a63.027,63.027,0,0,1,13.379,25.022l39.921-35.439s-12.031-3.819-16.844-11.875-7.219-26.226-7.219-26.226,18.336-32.221,6.593-48.61S276.937,66.785,276.937,66.785Z" transform="translate(-56.615 -35.057)" fill="#f9d8c7" fill-rule="evenodd"/>
    <path id="Path_168" data-name="Path 168" d="M255.461,128.8a16.534,16.534,0,0,0,2.238-.139c8.206-1.018,11.045-3.079,11.045-3.079s10.877-5.833,20.839,4.977a58,58,0,0,1,10.467,16.643,51.741,51.741,0,0,0,8.446-6.065c.89-1.551-17.374-21.851-22.258-25.971s-3.633-6.574-1.877-7.2,21.825,0,19.251-1.458c-.554-.3-36.576-3.819-36.7-3.773-.963.393-17.566,13.333-15.16,21.6A6.256,6.256,0,0,0,255.461,128.8Z" transform="translate(-22.674 -1.917)" fill="#f8cbb1" fill-rule="evenodd"/>
    <path id="Path_169" data-name="Path 169" d="M274.167,74.62c-1.588,1.875-3.152,3.68-4.548,5.347,13.86,3.611,43.7,11.574,43.7,11.574s-.746,2.824-1.685,6.759l-43.939-1.667s-.891,17.661-.842,18.749,1.733,1.042,3.826-.579,3.706-15.092,3.706-15.092l36.335,2.755A96.271,96.271,0,0,0,308.505,117c-.361,8.912,5.968,19.12,5.7,18.518s7.483-47.036,7.483-47.036Z" transform="translate(-68.397 -24.606)" fill="#ebc1a9" fill-rule="evenodd"/>
    <path id="Path_170" data-name="Path 170" d="M298.377,81.485c7.411,3.866,10.78,10.463,7.676,9.259s-25.916-5.787-27.384-7.407,0-3.819.746-4.629C282.158,75.582,295.609,80.049,298.377,81.485Z" transform="translate(-79.812 -20.66)" fill="#a95c40" fill-rule="evenodd"/>
    <path id="Path_171" data-name="Path 171" d="M234.26,102.035c4.693,12.476,18.938,19.837,25.627,22.245s10.949,2.315,10.323,2.13a41.356,41.356,0,0,1-4.548-3.5,55.009,55.009,0,0,0,12.031.417,32.6,32.6,0,0,1,10.419,1.9c-.529-.6-5.968-4.305-5.968-4.305s2.936,2.662,9.361,1.713a20.176,20.176,0,0,0,9.264-3.241,65.552,65.552,0,0,1-9.625-.6s9-2.477,5.7-2.917S279.571,113.1,270.692,92.73Z" transform="translate(22.236 -11.973)" fill="#a95c40" fill-rule="evenodd"/>
    <path id="Path_172" data-name="Path 172" d="M266.268,107.909c22.667,7.245,30.536-12.129,34.507-10.277,0,0,3.272,12.546,5.534,14.838,0,0-7.387-1.389-5.246-.44,11.334,5,9.072,32.73,8.446,32.406s-6.666-4.791-6.666-4.791,3.634,5.741,2.575,5.231l-9-4.282-3.73-1.9,1.42,4.213s-4.38-2.315-12.032-5.926-12.465-15.856-12.465-15.856,0,3.171-.192,2.662C264.752,114.853,266.533,117.677,266.268,107.909Z" transform="translate(-56.269 -7.367)" fill="#a5573b" fill-rule="evenodd"/>
    <path id="Path_173" data-name="Path 173" d="M330.68,90.495l-55.874-5c-.433-1.759-1.2-1.991-5.077-3.472l-4.4-1.713c-.963.764-2.07,17.407-.289,23.749,1.323,4.63,2.406,6.944,4.524,5.532,5.366-3.5,2.045-19.073,7.219-18.749l53.155,3.426Z" transform="translate(-70.531 -17.125)" fill="#3e3b3a" fill-rule="evenodd"/>
    <path id="Path_174" data-name="Path 174" d="M373.332,256.105c.361,3.588,3.537,36.781,2.286,36.434s-41.316-1.134-61.625-3.194S271.4,270.827,277.9,266.73s41.7-1.551,48.463-4.12a71.984,71.984,0,0,0,14.8-8.75Z" transform="translate(-139.259 146.304)" fill="#a95c40" fill-rule="evenodd"/>
    <path id="Path_175" data-name="Path 175" d="M288.56,264.276c12.441-.463,27.552,0,31.739-1.667a72,72,0,0,0,14.8-8.75l6.232.44c-2.118,4.768-8.061,14.212-12.2,15.763-5.534,2.06-29.237,2.917-33.5,2.315C292.482,271.776,289.739,267.725,288.56,264.276Z" transform="translate(-134.082 146.304)" fill="#76564b" fill-rule="evenodd"/>
    <path id="Path_176" data-name="Path 176" d="M375.791,280.122c.168,3.68.168,6.134-.168,6.041-1.251-.347-41.316-1.134-61.626-3.194s-42.591-18.518-36.094-22.615a15.958,15.958,0,0,1,5.534-1.574c5.294,5.046,18.1,15.74,32.87,16.9C332.55,276.881,364.674,279.335,375.791,280.122Z" transform="translate(-139.263 152.772)" fill="#fffadc" fill-rule="evenodd"/>
    <path id="Path_177" data-name="Path 177" d="M416.229,180.34c-3.922,2.315-157.589,26.55-170.7,37.545S188.16,359.27,191.36,359.27s48.848,16.573,48.848,16.573S265.45,256.287,276.5,250.454s109.054-18.7,130.783-17.337,36.094.347,39.2-15.069S416.229,180.34,416.229,180.34Z" transform="translate(-17.82 49.644)" fill="#194867" fill-rule="evenodd"/>
    <path id="Path_178" data-name="Path 178" d="M363.039,185.215l-3.586.717h0c-2.093.671,30.993,33.4,30.993,33.4-40.907-2.06-111.677,8.634-121.061,15.786s-36.7,102.705-44.18,113.145c-6.545,9.12-28.491,5.972-34.025,5.023,8.109,2.014,47.6,16.342,47.6,16.342s25.242-119.556,36.287-125.39,109.054-18.7,130.783-17.337,36.095.347,39.2-15.069a12.488,12.488,0,0,0-.385-6.134c-5.486.208-10.251.81-10.251.81C432.316,207.807,384.383,182.923,363.039,185.215Z" transform="translate(-2.519 54.857)" fill="#133f5c" fill-rule="evenodd"/>
    <path id="Path_179" data-name="Path 179" d="M221.041,107.367c77,10.671,146.785,120.922,127.9,213.859-5.077,25.022-69.205-19.351-94.664-35.74,7.219-39.628-17.446-73.632-44.132-103.261,0,0-17.47-17.314-20.5-24C180.013,136.949,212.931,106.256,221.041,107.367Z" transform="translate(75.265 -5.196)" fill="#4bc25a" fill-rule="evenodd"/>
    <path id="Path_180" data-name="Path 180" d="M327.56,202.053c3.561-13.356,12.826-39.073,12.826-39.073l-26.734,6.5-4.981,28.124Z" transform="translate(-177.718 60.305)" fill="#f2f2f2" fill-rule="evenodd"/>
    <path id="Path_181" data-name="Path 181" d="M368.132,163.529c-13.572-16.319-65.355-17.407-65.692-17.337l5.149,51.781C326.069,197.81,388.995,188.621,368.132,163.529Z" transform="translate(-176.999 42.348)" fill="#4bc25a" fill-rule="evenodd"/>
    <path id="Path_182" data-name="Path 182" d="M350.206,157.427a27.994,27.994,0,0,0-8.855-6.6,53.586,53.586,0,0,0-1.733,12.106c-.7,9.838-22.33,21.018-37.177,28.008C327.274,188.1,367.483,178.213,350.206,157.427Z" transform="translate(-176.549 47.73)" fill="#f2f2f2" fill-rule="evenodd"/>
    <path id="Path_183" data-name="Path 183" d="M336.715,152.764c-6.088-5.625-24.809-3.241-27.1,7.523-2.117,10.115,10.443,19.259,20.526,20.161S336.715,152.764,336.715,152.764Z" transform="translate(-176.52 47.173)" fill="#f2f2f2" fill-rule="evenodd"/>
    <path id="Path_184" data-name="Path 184" d="M157.58,239.261c-22.547-41.411,85.4-29.953,100.247-30.277,19.852-.417,29.646-8.287,48.535-8.912,27.095-.9,50.942-5.046,57.751,10.046S365.7,245,365.7,245C337.884,247.779,165.737,254.261,157.58,239.261Z" transform="translate(131.834 96.417)" fill="#31140c" fill-rule="evenodd"/>
    <path id="Path_185" data-name="Path 185" d="M130.828,229.661c20.526-2.153,15.5,34.953,11.382,32.661C141.728,262.045,130.828,229.661,130.828,229.661Z" transform="translate(393.283 129.51)" fill="#a61d35" fill-rule="evenodd"/>
    <path id="Path_186" data-name="Path 186" d="M130.73,234.715a41.276,41.276,0,0,1,5.342-6l19.25.394,10.708,45.346Z" transform="translate(374.053 127.408)" fill="#f2f2f2" fill-rule="evenodd"/>
    <path id="Path_187" data-name="Path 187" d="M123.15,355.685c0-4.861,55.586-58.563,46.321-84.951s-34.121-22.962-37.057-39.351-2.142-16.9-2.142-16.967,104.771.232,205.787.232c42.159,24.12,76.28,93.215,81.814,137.172L318.59,323.556l-119.3,32.406Z" transform="translate(150.287 94.431)" fill="#4bc25a" fill-rule="evenodd"/>
    <path id="Path_188" data-name="Path 188" d="M205.981,355.692c0-4.861,55.586-58.563,46.321-84.951s-33.135-22.2-37.057-39.351c-.794-3.472-3.826-13.518-2.118-16.99h0c6.762,27.777,82.272,34.559,87.421,46.11,4.283,9.606-9.192,64.072-9.192,64.072s-3.369,18.125-13.138,31.388Z" transform="translate(83.197 94.424)" fill="#4bc25a" fill-rule="evenodd"/>
    <path id="Path_189" data-name="Path 189" d="M328.39,306.326c-.027-35.3,29.707-63.939,66.406-63.956s66.461,28.592,66.47,63.895c0,35.318-29.755,63.934-66.454,63.925-36.652,0-66.387-28.576-66.422-63.848Z" transform="translate(-328.39 131.197)" fill="#3e3b3a" fill-rule="evenodd"/>
    <path id="Path_190" data-name="Path 190" d="M337.75,294.02c-.027-23.337,19.623-42.273,43.883-42.29s43.938,18.892,43.947,42.229-19.655,42.259-43.915,42.259C357.43,336.218,337.777,317.333,337.75,294.02Z" transform="translate(-315.227 143.503)" fill="#ece2ba" fill-rule="evenodd"/>
    <path id="Path_191" data-name="Path 191" d="M343.21,286.842c-.027-16.357,13.741-29.635,30.745-29.652s30.8,13.233,30.809,29.59S390.991,316.4,373.987,316.4c-16.979,0-30.75-13.227-30.777-29.56Z" transform="translate(-307.549 150.682)" fill="#717172" fill-rule="evenodd"/>
    <path id="Path_192" data-name="Path 192" d="M351.931,275.417a9.391,9.391,0,0,1,5.935-8.783,10.056,10.056,0,0,1,10.7,1.958,9.14,9.14,0,0,1,2.168,10.266,10.052,10.052,0,0,1-15.94,3.148A9.085,9.085,0,0,1,351.931,275.417Z" transform="translate(-295.239 162.107)" fill="#ece2ba" fill-rule="evenodd"/>
    <path id="Path_193" data-name="Path 193" d="M460.239,310.4c-71.8.509-45.022-26.619-134.079-35.439,13.812-30.369,49.113-41.665,82.488-33.587C436.345,249.015,460.383,279.986,460.239,310.4Z" transform="translate(-321.997 126.566)" fill="#4bc25a" fill-rule="evenodd"/>
    <path id="Path_194" data-name="Path 194" d="M460.215,292.754c-71.8.509-45.022-26.62-134.079-35.439-1.275,0-.192-4.838,2.527-4.93,8.446-.509,32.293.556,45.19,6.111,15.521,6.69,32.8,19.027,47.043,23.657,10.8,3.518,30.32,5.139,39.127,5.741C461.659,287.869,462.357,292.8,460.215,292.754Z" transform="translate(-321.973 144.215)" fill="#e6e6e6" fill-rule="evenodd"/>
    <path id="Path_195" data-name="Path 195" d="M256.645,168.42c6.184.625,29.838.671,32.076,8.564s-44.541,125-36.095,163.513,30.464,56.295,45.72,60.507,217.554,7.8,217.554,7.8l-.169,7.569s-189.569-.486-213.079-1.852-65.572-36.666-84.822-70.947S256.645,168.42,256.645,168.42Z" transform="translate(-107.575 33.972)" fill="#4bc25a" fill-rule="evenodd"/>
    <path id="Path_196" data-name="Path 196" d="M290.219,171.42c6.184.625,29.838.671,32.076,8.565s-44.541,125-36.095,163.513c9.312,41.341,39.295,69.326,83.571,70,13.475.208,121.061,1.967,179.583,2.083v3.773s-189.569-.486-213.079-1.852c-52.819-3.079-67.786-72.706-121.109-81.224C210.763,335.6,281.917,193.063,290.219,171.42Z" transform="translate(-143.554 37.916)" fill="#4bc25a" fill-rule="evenodd"/>
    <path id="Path_197" data-name="Path 197" d="M391.4,168.42l2.815.208,10.2.764h0c-80.395,124.186-38.934,190.827-27.456,206.5-16.989-18.842-34.073-39.837-60.711-44.1C322.6,309.689,383.1,190.063,391.4,168.42Z" transform="translate(-242.329 50.513)" fill="#4bc25a" fill-rule="evenodd"/>
    <path id="Path_198" data-name="Path 198" d="M256.132,237.124c87.3,27.985,93.846,101.432,93.846,101.432l-225.567.671C114.954,252.748,156.9,205.3,256.132,237.124Z" transform="translate(214.136 111.236)" fill="#4bc25a" fill-rule="evenodd"/>
    <path id="Path_199" data-name="Path 199" d="M331.1,198.113s-5.149-49.4-5.149-51.781c0-.255,8.182-.532,8.374.37l5.125,50.924C339.329,198.668,331.1,199.131,331.1,198.113Z" transform="translate(-200.702 42.195)" fill="#5a5749" fill-rule="evenodd"/>
    <path id="Path_200" data-name="Path 200" d="M336.807,195.334c-5.679,0-10.491-47.313-4.813-48.424Z" transform="translate(-206.481 43.263)" fill="#d4ead7" fill-rule="evenodd"/>
    <path id="Path_201" data-name="Path 201" d="M296.1,93.74a162.693,162.693,0,0,1-18.673,28.124,219.66,219.66,0,0,1-15.689,17.314l12.657,4.1s22.619-24.166,28.154-33.934,4.259-11.319,4.259-11.319Z" transform="translate(-43.653 -11.279)" fill="#5a5749" fill-rule="evenodd"/>
    <path id="Path_202" data-name="Path 202" d="M235.829,101.589c2.118.347,64.97,18.634,64.97,18.634s-15.785,44.582,1.781,51.086c22.066,8.148,69.229-2.315,70.745-8.4,16.844-68.077-6.28-89.743-38.332-103.446C298.249,43.721,249.786,56.452,235.829,101.589Z" transform="translate(-52.677 -53.01)" fill="#41292f" fill-rule="evenodd"/>
    <path id="Path_203" data-name="Path 203" d="M237.84,76.892c2.118.347,64.97,18.634,64.97,18.634s-15.785,44.582,1.781,51.086c22.066,8.148,69.23-2.315,70.745-8.4.289-1.157.554-2.315.818-3.449-2.984.81-7.8,2.06-13.5,3.379-9.625,2.315-40.45,7.893-48.294,6.342s-11.767-4.954-12.657-13.541S309.837,93.1,309.837,93.1s-55.465-16.99-70.216-21.3C238.971,73.42,238.369,75.11,237.84,76.892Z" transform="translate(-54.486 -28.313)" fill="#36434e" fill-rule="evenodd"/>
    <path id="Path_204" data-name="Path 204" d="M279.078,245.675c-94.062-30.092-136.654,10.9-132.732,88.932,0,1.319.144,2.685.241,4.028v.556h-8.494v-.139c-.144-1.273-.265-2.523-.385-3.773v-.9c0-1.019-.168-2.014-.241-3.032-6.16-81.456,36.095-125,132.347-94.256,27.432,8.8,46.9,22.083,60.711,36.179a150.928,150.928,0,0,0-51.447-27.592Z" transform="translate(203.679 111.249)" fill="#f2f2f2" fill-rule="evenodd"/>
    <rect id="Rectangle_29" data-name="Rectangle 29" width="159.851" height="11.018" transform="translate(374.322 320.419)" fill="#94a8b2"/>
    <rect id="Rectangle_30" data-name="Rectangle 30" width="164.832" height="167.796" transform="translate(447.376 139.131)" fill="#4bc25a"/>
    <rect id="Rectangle_31" data-name="Rectangle 31" width="173.543" height="24.675" transform="translate(442.674 138.417)" fill="#f2f2f2"/>
    <rect id="Rectangle_32" data-name="Rectangle 32" width="173.182" height="11.018" transform="translate(442.88 285.902)" fill="#94a8b2"/>
    <path id="Path_205" data-name="Path 205" d="M121.781,141.37h-8.735L97.14,184.4h8.735Z" transform="translate(413.529 145.367)" fill="#717f86" fill-rule="evenodd"/>
    <path id="Path_206" data-name="Path 206" d="M139.051,141.37h-8.735L114.41,184.4h8.735Z" transform="translate(359.598 145.367)" fill="#717f86" fill-rule="evenodd"/>
    <path id="Path_207" data-name="Path 207" d="M346.344,168.35c-1.107-1.157-23.269-18.217-24.689-18.749a134.382,134.382,0,0,0-22.812,1.9c-2.142.856-1.949,20.393-1.949,20.393s10.2,10.277,12.753,10.717,12.9-6.273,12.9-6.273l.89-4.282a10.973,10.973,0,0,0,5.27,5.185c3.634,1.5,16.026,0,14.871-.718S346.344,168.35,346.344,168.35Z" transform="translate(-157.017 46.828)" fill="#f9d8c7" fill-rule="evenodd"/>
    <path id="Path_208" data-name="Path 208" d="M312.622,167.893a6.789,6.789,0,1,1,7.219-6.759,6.683,6.683,0,0,1-2.14,4.832A7.228,7.228,0,0,1,312.622,167.893Z" transform="translate(-152.613 52.721)" fill="#3e3b3a" fill-rule="evenodd"/>
    <path id="Path_209" data-name="Path 209" d="M388.035,140.2c-5.823,11.18-48.126,118.793-58.882,123.931s-91.44-41.087-91.44-41.087l3.754-13.194s68.026,27.2,75.51,23.147,30.175-104.418,33.688-111.27C360.628,103.165,393.907,128.928,388.035,140.2Z" transform="translate(-65.561 6.393)" fill="#f9d8c7" fill-rule="evenodd"/>
    <path id="Path_210" data-name="Path 210" d="M327.936,153.406a3.887,3.887,0,0,0-1.973.556l-6.4-.6s-4.043,2.315-3.176,4.954a5.088,5.088,0,0,0,4.428,3.75l4.307-.255a3.866,3.866,0,0,0,2.815,1.25,4.876,4.876,0,0,0,0-9.652Z" transform="translate(-170.058 51.897)" fill="#5a5749" fill-rule="evenodd"/>
    <path id="Path_211" data-name="Path 211" d="M345.789,154.09c-.818-.44-11.262-3.68-11.262-3.68l-12.8,2.477s-10.877,10.277-9.625,10.972,6.689,1.042,7.58-.694a22.572,22.572,0,0,1,4.019-4.352l8.181-2.153,8.3,2.315Z" transform="translate(-189.978 48.608)" fill="#f9d8c7" fill-rule="evenodd"/>
    <path id="Path_212" data-name="Path 212" d="M272.978,98.551c3.032-2.315,22.138,0,26.108,1.9,0,0-4.813,1.111-3.561,1.18,6.112.394,15.28,8.287,19.419,12.43,0,0-7.388-1.366-5.27-.417,11.358,5,9.1,32.73,8.47,32.406s-6.666-4.792-6.666-4.792,3.634,5.741,2.575,5.208l-9-4.282-3.754-1.875,1.444,4.19s-4.379-2.315-12.032-5.9-12.465-15.856-12.465-15.856,0,3.171-.193,2.662C273.339,116.421,273.195,108.388,272.978,98.551Z" transform="translate(-79.199 -7.328)" fill="#a95c40" fill-rule="evenodd"/>
    <path id="Path_213" data-name="Path 213" d="M274.1,99.982c7.532-13.564,35.589,15.416,45.72,3.611,0,0,0,3.68-9,9.421C295.489,122.828,269.453,113.523,274.1,99.982Z" transform="translate(-81.431 -8.014)" fill="#a95c40" fill-rule="evenodd"/>
    <path id="Path_214" data-name="Path 214" d="M289.062,81.14s-.553,14.652-.12,19.351c.505,5.324,1.9,7.453,3.345,6.574,2.863-1.782,2.719-20.833,1.588-23.749a26.394,26.394,0,0,0-4.813-2.176Z" transform="translate(-92.032 -16.033)" fill="#717f86" fill-rule="evenodd"/>
    <path id="Path_215" data-name="Path 215" d="M289.3,81.14s-.144,3.819-.217,8.171c.963,6.041,2.166,13.472,2.864,17.939a1.409,1.409,0,0,0,.577-.185c.722-.44,1.227-1.944,1.612-4l-3.73-21.5Z" transform="translate(-92.25 -16.033)" fill="#81939c" fill-rule="evenodd"/>
    <path id="Path_216" data-name="Path 216" d="M296.832,133.824c2.406-19.351-40.907-36.2-48.752,3.773-1.3,6.528-12.441,54.466-12.441,54.466s37.779,20.648,38.14,19.49C278.616,196.067,292.934,164.563,296.832,133.824Z" transform="translate(22.767 6.839)" fill="#b7c9ba" fill-rule="evenodd"/>
    <path id="Path_217" data-name="Path 217" d="M136.483,198.951a1.915,1.915,0,0,1-1.973-1.852,1.819,1.819,0,0,1,.589-1.311,1.968,1.968,0,0,1,1.384-.518,1.892,1.892,0,0,1,1.949,1.829,1.817,1.817,0,0,1-.572,1.318A1.966,1.966,0,0,1,136.483,198.951Z" transform="translate(392.572 96.122)" fill="#b7c9ba" fill-rule="evenodd"/>
    <path id="Path_218" data-name="Path 218" d="M153.715,198.744a1.853,1.853,0,1,1,1.925-1.852A1.889,1.889,0,0,1,153.715,198.744Z" transform="translate(338.557 95.88)" fill="#b7c9ba" fill-rule="evenodd"/>
    <path id="Path_219" data-name="Path 219" d="M159.129,214.161a1.892,1.892,0,0,1-1.949-1.829,1.817,1.817,0,0,1,.572-1.318,1.966,1.966,0,0,1,1.377-.534,1.915,1.915,0,0,1,1.973,1.852,1.819,1.819,0,0,1-.589,1.311A1.968,1.968,0,0,1,159.129,214.161Z" transform="translate(321.617 112.068)" fill="#b7c9ba" fill-rule="evenodd"/>
    <path id="Path_220" data-name="Path 220" d="M141.725,214.4a1.853,1.853,0,1,1,1.925-1.852A1.889,1.889,0,0,1,141.725,214.4Z" transform="translate(376.084 112.297)" fill="#b7c9ba" fill-rule="evenodd"/>
    <path id="Path_221" data-name="Path 221" d="M283.977,220.615c11.382,4,56.644,44.512,52.145,49.35s-33.255-28.425-56.6-37.036-56.308-4.977-97.094-4.467-50.966-7.477-40.907-9.606S269.491,215.546,283.977,220.615Z" transform="translate(195.917 114.7)" fill="#f2f2f2" fill-rule="evenodd"/>
    <path id="Path_222" data-name="Path 222" d="M149.489,318.82c4.163.81,38.91,3.426,36.095-1.782s-30.993-36.527-3.561-54,62.732-10.787,89.8-.741,44.18,21.944,37.057,18.147c-7.219-6.528-21.007-24.976-50.941-35.994C135.532,199.333,116.378,312.5,149.489,318.82Z" transform="translate(226.394 119.999)" fill="#e6e6e6" fill-rule="evenodd"/>
    <path id="Path_223" data-name="Path 223" d="M346.13,260.252l9.625,4.213s17.229-12.014,34.747-14.93a56.92,56.92,0,0,1,30.1,2.755,34.371,34.371,0,0,0-20.67-11.828C367.089,235.6,346.13,260.252,346.13,260.252Z" transform="translate(-330.417 140.907)" fill="#f2f2f2" fill-rule="evenodd"/>
    <path id="Path_224" data-name="Path 224" d="M108.5,220.335V78.58h36l18.529,141.755Z" transform="translate(349.342 75.566)" fill="#f2f2f2" fill-rule="evenodd"/>
    <path id="Path_225" data-name="Path 225" d="M156.554,92.6H116.2V67.92h40.354V92.6Z" transform="translate(338.944 70.497)" fill="#4bc25a" fill-rule="evenodd"/>
    <path id="Path_226" data-name="Path 226" d="M227.574,270.109Zm-27-99.719s6.786,6.528,23.87,27.43c14.438,17.754,14.919,50.091,22.09,66.85.217.486.433,1,.674,1.458a21.377,21.377,0,0,0,3.9,5.833c7.508,7.5,31.282,20.833,49.738,30.254l7.219,3.588,4.6,2.315c-3.032.833-6.136,1.6-9.625,2.315l-2.238-.463c-1.781-.417-3.633-.972-5.583-1.62-20.67-6.944-50.268-26.689-67.689-38.031l-1.829-1.2-2.238-1.435c6.064-33.494-10.588-62.961-31.98-89.164,5.751-15.787,12.32-35.439,14.775-54.79a11.139,11.139,0,0,0,0-2.685c.866,2.315,1.9,5.347,3.128,9.12C214.147,144.326,200.576,170.39,200.576,170.39Z" transform="translate(104.056 9.374)" fill="#f2f2f2" fill-rule="evenodd"/>
    <path id="Path_227" data-name="Path 227" d="M265.657,183.132c-3.393,9.259-6.473,17.2-8.278,22.939,0,.324-3.152-1.065-7.484-3.241l-2.6-1.319-1.588-.81c-3.176-1.644-6.689-3.5-10.082-5.3a90.042,90.042,0,0,0,12.344-.278,11.8,11.8,0,0,0,2.262-.347,10.255,10.255,0,0,0,3.369-1.111,22.927,22.927,0,0,0,3.441-7.43c.962-2.685,2.021-5.949,3.176-9.583,1.709-5.44,3.585-11.713,5.414-18.1,3.1-10.764,6.16-21.851,8.3-29.814.529-1.9.986-3.634,1.4-5.139l1.66-6.227a52.092,52.092,0,0,1,3.489,8.287,11.139,11.139,0,0,1,0,2.685C277.977,147.693,271.408,167.438,265.657,183.132Z" transform="translate(37.939 11.402)" fill="#abc0ad" fill-rule="evenodd"/>
    <path id="Path_228" data-name="Path 228" d="M371.907,157.839c-12.585,28.749-25.7,56.6-31.017,59.142-9.625,4.629-75.558-32.152-89.033-39.744l-2.406-1.343.169-.579a29.715,29.715,0,0,0,3.393.139S329.917,213,337.737,207.861c7.075-4.629,19.9-47.2,22.331-55.415l.409-1.366c3.393,1.806,6.906,3.657,10.082,5.3l1.588.81Z" transform="translate(-76.129 46.524)" fill="#f8cbb3" fill-rule="evenodd"/>
    <path id="Path_229" data-name="Path 229" d="M341.488,166.1l-.168.579h-2.262a19.5,19.5,0,0,1-6.906-.625,9.253,9.253,0,0,1-3.273-2.315,11.068,11.068,0,0,1-2-2.87l-.529,2.523-.361,1.759a81.439,81.439,0,0,1-10.058,5.579,6.3,6.3,0,0,1-2.839.694,12.538,12.538,0,0,1-3.778-2.315l-.794-.671-.409-.347c-1.155-1-2.406-2.106-3.489-3.148-2.406-2.315-4.283-4.143-4.283-4.143V158l.914,1.944c.457.88,6.762,5.787,8.711,7.592a7.112,7.112,0,0,0,6.328.764,11.284,11.284,0,0,0,3.9-1.921,15.983,15.983,0,0,0,1.853-1.736c.529-.6,1.059-1.25,1.54-1.9a7.138,7.138,0,0,0,4.139-3.5,19.046,19.046,0,0,0,6.136,5.162,20.768,20.768,0,0,0,5.968,1.574C340.4,166.009,340.958,166.079,341.488,166.1Z" transform="translate(-160.261 56.558)" fill="#4bc25a" fill-rule="evenodd"/>
    <path id="Path_230" data-name="Path 230" d="M353.368,171.2l8.254,2.523s-23.51,49.327-33.833,85.645-1.444,91.178-7.484,83.331-12.657-58.98-.722-94.442S353.368,171.2,353.368,171.2Z" transform="translate(-191.567 57.419)" fill="#f2f2f2" fill-rule="evenodd"/>
    <path id="Path_231" data-name="Path 231" d="M301.389,79.639c12.585,15.162,14.269,43.54,5.15,46.457s-42.4-.347-39.2-8.217,19.25-21.99,11.069-32.592-43.314-21.18-39.752-25.694C247.03,49.038,288.78,64.5,301.389,79.639Z" transform="translate(2.556 -48.93)" fill="#4c3239" fill-rule="evenodd"/>
    <path id="Path_232" data-name="Path 232" d="M275.876,189.455c-21.031-31.874-41.34-53.239-62.708-65.97s-27.119-14.606-24.785-15.185c67.689,17.685,126.74,109.9,119.473,194.161C307.856,302.461,296.907,221.352,275.876,189.455Z" transform="translate(115.68 -2.591)" fill="#f2f2f2" fill-rule="evenodd"/>
    <path id="Path_233" data-name="Path 233" d="M297.11,110.1l-1.781-2.315-1.227-1.574s9.794,2.106,15.5.718,5.005-.9,7.363-2.315a6.7,6.7,0,0,0,2.888-3.032,1.236,1.236,0,0,1,0,.278,4.862,4.862,0,0,1-.65,1.574,20.712,20.712,0,0,1-6.28,6.2c-.626.44-1.3.9-2.021,1.366a30.545,30.545,0,0,1-32.726-1.435,14.787,14.787,0,0,1-2.406-2.454,9.3,9.3,0,0,1-1.636-9.259,25.046,25.046,0,0,0,1.323,2.662,19.477,19.477,0,0,0,1.42,2.106,13.142,13.142,0,0,0,4.62,4.143c-.144-.208-1.155-5.185-1.155-5.185a55.551,55.551,0,0,0,13.5,7.87A14.09,14.09,0,0,0,297.11,110.1Z" transform="translate(-81.461 -6.302)" fill="#9a5237" fill-rule="evenodd"/>
    <rect id="Rectangle_33" data-name="Rectangle 33" width="70.216" height="4.56" rx="0.98" transform="translate(423.641 388.312)" fill="#f2f2f2"/>
    <rect id="Rectangle_34" data-name="Rectangle 34" width="70.216" height="4.56" rx="0.98" transform="translate(423.641 399.307)" fill="#f2f2f2"/>
    <rect id="Rectangle_35" data-name="Rectangle 35" width="70.216" height="4.56" rx="0.98" transform="translate(423.641 410.835)" fill="#f2f2f2"/>
    <path id="Path_234" data-name="Path 234" d="M70.225,76.94a155.634,155.634,0,0,0,30.9,25.046c16.291,9.259,14.438.231,32.87,4.629s34.7,32.962,34.7,32.962-30.9-14.074-46.514-13.888-22.066,4.93-40.089,3.68S35.67,106.453,35.67,106.453a59.658,59.658,0,0,0,22.884-5.046C69.96,96.152,70.225,76.94,70.225,76.94Z" transform="translate(572.831 -21.555)" fill="#000915" fill-rule="evenodd"/>
    <path id="Path_235" data-name="Path 235" d="M77.991,76a9.573,9.573,0,0,1,3.85,2.94,1.879,1.879,0,0,1-.13,1.689,2.024,2.024,0,0,1-1.458.95,7.205,7.205,0,0,1-4.428-3.125C75.609,77.481,77.991,76,77.991,76Z" transform="translate(562.947 -22.791)" fill="#f2f2f2" fill-rule="evenodd"/>
    <path id="Path_236" data-name="Path 236" d="M95.59,91.882c-.385-.3-2.791-3.356-4.813-3.125S87.649,90.1,88.371,91.4a7.538,7.538,0,0,0,5.174,2.986C95.638,94.5,95.59,91.882,95.59,91.882Z" transform="translate(519.648 -6.035)" fill="#f2f2f2" fill-rule="evenodd"/>
    <path id="Path_237" data-name="Path 237" d="M110.029,269.665a12.911,12.911,0,0,0-13.307,12.477A11.757,11.757,0,0,0,98,287.188,8.57,8.57,0,0,0,89.84,295.1a8.763,8.763,0,0,0,9.336,7.986,10.109,10.109,0,0,0,6.425-2.2,14,14,0,0,0,12.826,6.944,14.668,14.668,0,0,0,11.887-5.347,9.113,9.113,0,0,0,6.04,2.152,8.668,8.668,0,0,0,7.05-3.287,14.585,14.585,0,0,0,4.331.648c6.69,0,12.032-4.467,12.032-10a8.275,8.275,0,0,0-.241-2.037,7.186,7.186,0,0,0,1.42.139,6.949,6.949,0,1,0,0-13.888,8.084,8.084,0,0,0-2.142.3A9.544,9.544,0,0,0,148.7,268.67a10.434,10.434,0,0,0-9.409,5.116,9.538,9.538,0,0,0-10.227-8.032,9.913,9.913,0,0,0-10.106,6.944A13.809,13.809,0,0,0,110.029,269.665Z" transform="translate(459.449 161.909)" fill="#fff" fill-rule="evenodd"/>
    <path id="Path_238" data-name="Path 238" d="M76.316,270.87a6.662,6.662,0,0,0-4.655,1.763,6.163,6.163,0,0,0-1.986,4.417,5.894,5.894,0,0,0,.577,2.523,4.227,4.227,0,0,0-4.043,3.912,4.346,4.346,0,0,0,4.62,3.958,4.93,4.93,0,0,0,3.176-1.088,6.943,6.943,0,0,0,6.353,3.4,7.336,7.336,0,0,0,5.9-2.639,4.456,4.456,0,0,0,2.96,1.065,4.249,4.249,0,0,0,3.489-1.62,7.253,7.253,0,0,0,2.142.324,5.779,5.779,0,0,0,4.128-1.253,5.352,5.352,0,0,0,1.984-3.7,4.72,4.72,0,0,0,0-1.018,3.41,3.41,0,0,0,.7,0,3.475,3.475,0,1,0,0-6.944,4.019,4.019,0,0,0-1.059.139,4.777,4.777,0,0,0-5.029-3.819,5.194,5.194,0,0,0-4.668,2.523,5.26,5.26,0,0,0-10.034-.509,6.865,6.865,0,0,0-4.548-1.435Z" transform="translate(562.769 166.006)" fill="#fff" fill-rule="evenodd"/>
    <path id="Path_239" data-name="Path 239" d="M103.24,86.567c82.272,3.542,164.808,3.1,247.465,6.3C268.89,82.354,185.56,82.794,103.24,86.567Z" transform="translate(254.614 -12.109)" fill="#fff" fill-rule="evenodd"/>
    <path id="Path_240" data-name="Path 240" d="M52.41,142.677c121.278-1.6,230.837,1.065,351.634,4.629,32.654.949,21.32.694,54.527.833C325.911,138.4,184.949,131.868,52.41,142.677Z" transform="translate(242.67 34.825)" fill="#9b9d9f" fill-rule="evenodd"/>
    <path id="Path_241" data-name="Path 241" d="M42.32,199.905c102.6,1.389,196.258,7.708,297.732,11.713,26.108,1.042,19.25.764,45.888.856C274.264,202.984,153.9,192.568,42.32,199.905Z" transform="translate(-200.421 97.595)" fill="#9b9d9f" fill-rule="evenodd"/>
    <path id="Path_242" data-name="Path 242" d="M49.69,245.726c127.727,1.111,250.593,2.153,378.2,12.569C334.909,242.346,144.835,237.6,49.69,245.726Z" transform="translate(279.896 143.758)" fill="#9b9d9f" fill-rule="evenodd"/>
  </g>
</svg>
