<svg xmlns="http://www.w3.org/2000/svg" width="101.197" height="63.248" viewBox="0 0 101.197 63.248">
  <g id="business-card" transform="translate(0 -96)">
    <g id="Group_1177" data-name="Group 1177" transform="translate(0 96)">
      <g id="Group_1176" data-name="Group 1176">
        <path id="Path_3523" data-name="Path 3523" d="M99.09,96H2.108A2.107,2.107,0,0,0,0,98.108v59.034a2.108,2.108,0,0,0,2.108,2.106H99.09a2.109,2.109,0,0,0,2.106-2.106V98.108A2.108,2.108,0,0,0,99.09,96Zm-2.112,59.029H4.217V100.217H96.978Z" transform="translate(0 -96)" fill="#f7f7f7"/>
      </g>
    </g>
    <g id="Group_1179" data-name="Group 1179" transform="translate(8.433 107.244)">
      <g id="Group_1178" data-name="Group 1178">
        <path id="Path_3524" data-name="Path 3524" d="M63.547,152.891,56.181,165.78,52.3,159.316l-9.639,16.062H76.4ZM53.105,171.163H50.112l2.191-3.652,1.479,2.467Zm4.856,0,5.585-9.773,5.584,9.773Z" transform="translate(-42.664 -152.891)" fill="#f7f7f7"/>
      </g>
    </g>
    <g id="Group_1181" data-name="Group 1181" transform="translate(54.817 146.598)">
      <g id="Group_1180" data-name="Group 1180">
        <path id="Path_3525" data-name="Path 3525" d="M313.18,352H279.45a2.109,2.109,0,0,0,0,4.219h33.73a2.109,2.109,0,1,0,0-4.219Z" transform="translate(-277.344 -352)" fill="#f7f7f7"/>
      </g>
    </g>
    <g id="Group_1183" data-name="Group 1183" transform="translate(71.679 138.167)">
      <g id="Group_1182" data-name="Group 1182">
        <path id="Path_3526" data-name="Path 3526" d="M381.63,309.344H364.768a2.106,2.106,0,1,0,0,4.212H381.63a2.106,2.106,0,1,0,0-4.212Z" transform="translate(-362.656 -309.344)" fill="#f7f7f7"/>
      </g>
    </g>
  </g>
</svg>
