<svg id="calendar_1_" data-name="calendar (1)" xmlns="http://www.w3.org/2000/svg" width="98.427" height="95.147" viewBox="0 0 98.427 95.147">
  <path id="Path_3580" data-name="Path 3580" d="M235.888,192a27.888,27.888,0,1,0,27.888,27.888A27.888,27.888,0,0,0,235.888,192Zm0,52.495a24.607,24.607,0,1,1,24.607-24.607A24.607,24.607,0,0,1,235.888,244.495Zm0,0" transform="translate(-165.348 -152.629)" fill="#fff"/>
  <path id="Path_3581" data-name="Path 3581" d="M301.124,266.145V256h-3.281v10.145a4.917,4.917,0,0,0-2.979,2.979H288V272.4h6.864a4.91,4.91,0,1,0,6.26-6.26Zm-1.64,6.26a1.64,1.64,0,1,1,1.64-1.64A1.641,1.641,0,0,1,299.483,272.4Zm0,0" transform="translate(-228.943 -203.505)" fill="#fff"/>
  <path id="Path_3582" data-name="Path 3582" d="M240,320h3.281v3.281H240Zm0,0" transform="translate(-190.786 -254.382)" fill="#fff"/>
  <path id="Path_3583" data-name="Path 3583" d="M336,416h3.281v3.281H336Zm0,0" transform="translate(-267.101 -330.696)" fill="#fff"/>
  <path id="Path_3584" data-name="Path 3584" d="M432,320h3.281v3.281H432Zm0,0" transform="translate(-343.415 -254.382)" fill="#fff"/>
  <path id="Path_3585" data-name="Path 3585" d="M336,224h3.281v3.281H336Zm0,0" transform="translate(-267.101 -178.067)" fill="#fff"/>
  <path id="Path_3586" data-name="Path 3586" d="M3.281,70.54V22.966H78.742V37.731h3.281V14.764a8.212,8.212,0,0,0-8.2-8.2H62.337V4.921a4.921,4.921,0,1,0-9.843,0v1.64H29.528V4.921a4.921,4.921,0,1,0-9.843,0v1.64H8.2a8.212,8.212,0,0,0-8.2,8.2V70.54a8.212,8.212,0,0,0,8.2,8.2H41.011V75.461H8.2A4.922,4.922,0,0,1,3.281,70.54ZM55.776,4.921a1.64,1.64,0,0,1,3.281,0v6.562a1.64,1.64,0,1,1-3.281,0Zm-32.809,0a1.64,1.64,0,0,1,3.281,0v6.562a1.64,1.64,0,1,1-3.281,0ZM8.2,9.843H19.686v1.64a4.921,4.921,0,1,0,9.843,0V9.843H52.495v1.64a4.921,4.921,0,1,0,9.843,0V9.843H73.821a4.922,4.922,0,0,1,4.921,4.921v4.921H3.281V14.764A4.922,4.922,0,0,1,8.2,9.843Zm0,0" fill="#fff"/>
  <path id="Path_3587" data-name="Path 3587" d="M61.124,163.281A3.281,3.281,0,0,0,57.843,160H51.281A3.281,3.281,0,0,0,48,163.281v6.562a3.281,3.281,0,0,0,3.281,3.281h6.562a3.281,3.281,0,0,0,3.281-3.281Zm-9.843,6.562v-6.562h6.562v6.562Zm0,0" transform="translate(-38.157 -127.191)" fill="#fff"/>
  <path id="Path_3588" data-name="Path 3588" d="M141.124,163.281A3.281,3.281,0,0,0,137.843,160h-6.562A3.281,3.281,0,0,0,128,163.281v6.562a3.281,3.281,0,0,0,3.281,3.281h6.562a3.281,3.281,0,0,0,3.281-3.281Zm-9.843,6.562v-6.562h6.562v6.562Zm0,0" transform="translate(-101.753 -127.191)" fill="#fff"/>
  <path id="Path_3589" data-name="Path 3589" d="M221.124,168.2v-4.921A3.281,3.281,0,0,0,217.843,160h-6.562A3.281,3.281,0,0,0,208,163.281v6.562a3.281,3.281,0,0,0,3.281,3.281h3.281v-3.281h-3.281v-6.562h6.562V168.2Zm0,0" transform="translate(-165.348 -127.191)" fill="#fff"/>
  <path id="Path_3590" data-name="Path 3590" d="M57.843,256H51.281A3.281,3.281,0,0,0,48,259.281v6.562a3.281,3.281,0,0,0,3.281,3.281h6.562a3.281,3.281,0,0,0,3.281-3.281v-6.562A3.281,3.281,0,0,0,57.843,256Zm-6.562,9.843v-6.562h6.562v6.562Zm0,0" transform="translate(-38.157 -203.505)" fill="#fff"/>
  <path id="Path_3591" data-name="Path 3591" d="M137.843,256h-6.562A3.281,3.281,0,0,0,128,259.281v6.562a3.281,3.281,0,0,0,3.281,3.281h6.562a3.281,3.281,0,0,0,3.281-3.281v-6.562A3.281,3.281,0,0,0,137.843,256Zm-6.562,9.843v-6.562h6.562v6.562Zm0,0" transform="translate(-101.753 -203.505)" fill="#fff"/>
  <path id="Path_3592" data-name="Path 3592" d="M301.124,164.921v-1.64A3.281,3.281,0,0,0,297.843,160h-6.562A3.281,3.281,0,0,0,288,163.281v1.64h3.281v-1.64h6.562v1.64Zm0,0" transform="translate(-228.943 -127.191)" fill="#fff"/>
</svg>
