<?xml version="1.0" encoding="utf-8"?>
<!-- Generator: Adobe Illustrator 22.0.1, SVG Export Plug-In . SVG Version: 6.00 Build 0)  -->
<svg version="1.1" id="Layer_1" xmlns="http://www.w3.org/2000/svg" xmlns:xlink="http://www.w3.org/1999/xlink" x="0px" y="0px"
	 viewBox="0 0 1920 1080" style="enable-background:new 0 0 1920 1080;" xml:space="preserve">
<style type="text/css">
	.st0{fill:#9B9D9F;}
</style>
<g>
	<path class="st0" d="M1558.2,1038.6c-341.3,0-669.3-55.9-948.4-161.6C488,830.8,379,776.6,286,716
		c-86.4-56.3-157.4-117.8-205.5-177.9C21.3,464.1-3,393.8,10.3,334.8c18.8-83.7,113.1-160.2,265.6-215.3
		C352.7,91.8,442,70.1,541.2,55.1c103.4-15.6,215.2-23.5,332.5-23.5c237.6,0,612.6,32.9,1050.3,189.8
		c374.5,134.2,738.2,222.2,1030.4,292.8c212,51.3,395.1,95.5,519.4,142.6c65.4,24.7,111.9,49.1,142.2,74.6
		c32.7,27.5,46.9,56.5,43.4,88.5c-3.9,35.4-27.9,63.3-73.2,85.4c-41.9,20.4-102.4,35.9-185,47.3c-156.9,21.7-379.5,26.6-637.4,32.4
		c-277.3,6.2-591.7,13.1-928.3,41.7C1742.6,1034.6,1649.3,1038.6,1558.2,1038.6z"/>
	<path class="st0" d="M873.8,32.2c161.5,0,329.6,14.9,499.5,44.3c185.3,32,370.5,81,550.5,145.5
		c374.5,134.2,738.2,222.2,1030.5,292.9c212,51.3,395.1,95.5,519.4,142.5c65.3,24.7,111.8,49.1,142,74.5
		c32.6,27.4,46.7,56.2,43.2,88.1c-3.9,35.2-27.7,63-73,85c-41.9,20.4-102.3,35.8-184.9,47.3c-156.8,21.7-379.5,26.6-637.3,32.3
		c-277.3,6.2-591.7,13.1-928.4,41.7c-92.8,7.9-186,11.8-277.1,11.8c-178.4,0-353.2-15.1-519.7-45C886.6,965.9,742.5,926.7,610,876.5
		c-121.8-46.1-230.7-100.3-323.8-160.9c-43.8-28.5-83.6-58.3-118.3-88.5c-34-29.5-63.3-59.6-87.1-89.3
		c-29.3-36.6-50.1-72.5-62-106.8c-11.9-34.4-14.6-66.7-8.1-96c9.4-41.9,37.4-81.9,83.1-118.7c45.3-36.5,106.6-68.9,182.1-96.2
		c76.8-27.8,166.1-49.4,265.2-64.4C644.6,40.1,756.4,32.2,873.8,32.2L873.8,32.2L873.8,32.2 M873.7,31.2
		C392.5,31.2,48.1,164.4,9.8,334.7c-56.4,250.7,568.3,704.3,1548.4,704.3c89.5,0,182-3.8,277.2-11.9
		c978.1-82.9,1800,15.4,1824.5-207.2c24.5-222.6-814.8-269-1735.7-599C1547.4,86,1182.4,31.2,873.7,31.2L873.7,31.2z"/>
</g>
</svg>
