<?xml version="1.0" encoding="utf-8"?>
<!-- Generator: Adobe Illustrator 22.0.1, SVG Export Plug-In . SVG Version: 6.00 Build 0)  -->
<svg version="1.1" id="Layer_1" xmlns="http://www.w3.org/2000/svg" xmlns:xlink="http://www.w3.org/1999/xlink" x="0px" y="0px"
	 viewBox="0 0 1920 1080" style="enable-background:new 0 0 1920 1080;" xml:space="preserve">
<style type="text/css">
	.st0{fill:#9B9D9F;}
</style>
<g>
	<g>
		<path class="st0" d="M1783.9,1079c-90.4,0-195.7-21.4-313-63.7c-105.7-38.1-217.9-91.7-333.5-159.5
			C927.6,732.8,726,573,611.3,438.7c-66-77.2-97.5-139.3-91.1-179.5c5.3-33.7,22.2-64.4,50.2-91.1c27.4-26.2,65.5-48.7,113.2-66.9
			c94.7-36.1,227.9-55.2,385.4-55.2c312,0,696.2,72,1081.7,202.7l0.5,0.2l0.1-0.6c10.1-53.3,20.3-87.8,25.9-87.8
			c0.4,0,0.7,0.2,1.1,0.6c3.4,3.5,7,23.4,4.4,98.2l0,0.4l2.7,0.9c35.7,12.4,61.9,40.4,75.8,80.9c11.5,33.4,14.2,75.4,7.5,115.2
			c-8.8,52.3-31.5,88.8-55,88.8c-15.9,0-31.6-16.3-45.2-47.1l-0.8-1.8l-0.2,2c-5,62.9-11.3,135.1-18.7,214.4
			c-11.7,126.6-51.7,221.7-118.8,282.9C1969.8,1051.1,1886.9,1079,1783.9,1079C1784,1079,1783.9,1079,1783.9,1079z"/>
		<path class="st0" d="M1069.1,46.6c73.3,0,152,4.1,234,12.1c84,8.2,172.2,20.7,262.1,37.1c190.2,34.7,386.9,86.2,584.5,153.1
			c-9.5,50.5-17.8,111.7-15.1,127.6c8.8,52.3,19.7,93.4,32.5,122.4c-5,62.9-11.3,134.9-18.7,214.2c-6,64.7-19.5,121.7-40.1,169.4
			c-19.6,45.4-46,83.4-78.5,113.1c-60.4,55-143.1,82.9-245.9,82.9c-90.4,0-195.7-21.4-312.9-63.7
			c-105.7-38.1-217.9-91.7-333.4-159.5c-209.8-123-411.3-282.8-526-417c-65.8-77.1-97.3-139-90.9-179c5.3-33.6,22.2-64.2,50-90.8
			c27.3-26.1,65.4-48.6,113-66.8c47.2-18,104-31.9,168.6-41.1C917.3,51.3,990.2,46.6,1069.1,46.6L1069.1,46.6 M2177.3,161.1
			c0.1,0,0.4,0,0.8,0.4c3.3,3.4,6.8,23,4.4,96.5c-10.1-3.5-20.3-7-30.3-10.4c4.7-24.6,9.4-45.5,13.8-60.7
			C2172.7,163,2176.3,161.1,2177.3,161.1 M2184.3,260.8l1.1,0.4c18.7,6.5,34.8,17.2,47.8,31.8c11.8,13.2,21.2,29.7,27.7,48.8
			c11.4,33.3,14.2,75.2,7.4,115c-8.8,52.1-31.2,88.4-54.5,88.4c-15.7,0-31.1-16.1-44.6-46.6C2177.3,397.4,2182.4,317.4,2184.3,260.8
			 M1069.1,45.6c-317.6,0-527.6,76.1-549.3,213.6C489.9,447.7,1293,1079.5,1784,1079.5c195,0,340.7-99.7,365.5-366.4
			c7.6-82.3,13.8-153.3,18.7-214.4c-11.9-27-23.1-66.7-32.5-122.4c-2.6-15.2,5.2-75.2,15.3-128.1
			C1741.2,109.4,1360,45.6,1069.1,45.6L1069.1,45.6z M2177.3,160.1c-6.8,0-17.5,41.3-26.4,88.2c10.8,3.6,21.6,7.4,32.4,11.1
			C2185.8,187,2182.8,160.1,2177.3,160.1L2177.3,160.1z M2183.3,259.4c-1.8,53-6.5,130.3-15.2,239.3c14.8,33.6,30.8,47.4,45.6,47.4
			c61.9,0,105-239.6-28.1-285.9C2184.9,260,2184.1,259.7,2183.3,259.4L2183.3,259.4z"/>
	</g>
</g>
</svg>
