<svg xmlns="http://www.w3.org/2000/svg" width="65.01" height="66.015" viewBox="0 0 65.01 66.015">
  <g id="Group_1221" data-name="Group 1221" transform="translate(-928 -1601)">
    <path id="Path_63" data-name="Path 63" d="M48.98,10.8c-3.273-2.1-9.42-5.02-15.325-2.32a.856.856,0,0,1-1.216-.775V2.281A2.12,2.12,0,0,0,30.547,0h-2.84a2.121,2.121,0,0,0-1.893,2.281v5.75a.855.855,0,0,1-1.024.844,20.819,20.819,0,0,0-14.578,2.293.866.866,0,0,0,.593,1.593c2.772-.507,6.42-.856,8.886.118a.861.861,0,0,1,.158,1.519A19.636,19.636,0,0,0,12.75,23a.859.859,0,0,0,1.345.989c2.7-2.228,7.153-5.246,10.927-4.76a.869.869,0,0,1,.775.869c-.038,2.532-.006,11.134,2.085,14.39a.863.863,0,0,0,1.427.045,23.6,23.6,0,0,0,4.1-14.265.864.864,0,0,1,.89-.887,15.155,15.155,0,0,1,9.961,4.08.859.859,0,0,0,1.449-.732c-.28-2.216-1.5-5.568-5.916-8.168a.86.86,0,0,1,.2-1.584,32.108,32.108,0,0,1,8.487-.588A.863.863,0,0,0,48.98,10.8Z" transform="translate(930.215 1601)" fill="#88c057"/>
    <path id="Path_64" data-name="Path 64" d="M52.581,10.077a.891.891,0,0,0-.4-.153c-.511-.063-1.023-.121-1.534-.19-.183-.018-.367-.032-.548-.05a30.23,30.23,0,0,0-7.468.605.862.862,0,0,0-.224,1.589c4.416,2.6,5.635,5.951,5.914,8.166a.859.859,0,0,1-1.449.732,15.169,15.169,0,0,0-9.961-4.08.864.864,0,0,0-.89.887,23.61,23.61,0,0,1-4.1,14.265.863.863,0,0,1-1.427-.045c-2.091-3.256-2.123-11.858-2.085-14.39a.87.87,0,0,0-.775-.869c-3.773-.488-8.223,2.532-10.927,4.76a.859.859,0,0,1-1.345-.989,19.641,19.641,0,0,1,7.092-8.6.861.861,0,0,0-.164-1.52,8.254,8.254,0,0,0-1.537-.414.938.938,0,0,0-.3-.005,73.259,73.259,0,0,0-9.094,1.8.917.917,0,0,0-.355.184A28.486,28.486,0,0,0,.393,33.677c0,16.378,14.553,29.654,32.5,29.654S65.4,50.055,65.4,33.677C65.4,24.049,60.374,15.493,52.581,10.077Z" transform="translate(927.607 1603.684)" fill="#d13834"/>
    <path id="Path_65" data-name="Path 65" d="M6.437,36.24a1.275,1.275,0,0,1-1.1-.626,14.471,14.471,0,0,1-1.861-5.3A1.278,1.278,0,0,1,6,29.946a12.08,12.08,0,0,0,1.532,4.366,1.276,1.276,0,0,1-1.1,1.928Z" transform="translate(928.458 1609.004)" fill="#ed7161"/>
    <path id="Path_66" data-name="Path 66" d="M4.866,28.22c-.029,0-.06,0-.089,0A1.277,1.277,0,0,1,3.59,26.855a17.955,17.955,0,0,1,1.036-4.9,1.278,1.278,0,0,1,2.4.878,15.325,15.325,0,0,0-.887,4.2A1.278,1.278,0,0,1,4.866,28.22Z" transform="translate(928.493 1606.859)" fill="#ed7161"/>
  </g>
</svg>
