<svg xmlns="http://www.w3.org/2000/svg" width="86.436" height="83.566" viewBox="0 0 86.436 83.566">
  <g id="Group_1234" data-name="Group 1234" transform="translate(-1309 -1786)">
    <path id="Path_685" data-name="Path 685" d="M91,0h5.065V12.661H91Zm0,0" transform="translate(1233.363 1786)" fill="#cbd7f1"/>
    <path id="Path_686" data-name="Path 686" d="M31,0h5.065V12.661H31Zm0,0" transform="translate(1283.233 1786)" fill="#cbd7f1"/>
    <path id="Path_687" data-name="Path 687" d="M101.517,60a27.046,27.046,0,0,0-7.6,1.114A25.39,25.39,0,0,0,76.194,85.323v2.532A17.746,17.746,0,0,0,93.92,105.581a16.982,16.982,0,0,0,7.344-1.672,20.488,20.488,0,0,1-7.344,5.217,19.935,19.935,0,0,1-7.6,1.519A20.253,20.253,0,0,1,66.065,90.388V87.855H61v2.532A25.332,25.332,0,0,0,86.323,115.71a27.045,27.045,0,0,0,7.6-1.114,25.39,25.39,0,0,0,17.726-24.209V87.855A17.746,17.746,0,0,0,93.92,70.129,16.982,16.982,0,0,0,86.576,71.8a20.488,20.488,0,0,1,7.344-5.217,19.935,19.935,0,0,1,7.6-1.519,20.253,20.253,0,0,1,20.258,20.258V95.452h5.065V85.323A25.332,25.332,0,0,0,101.517,60Zm-7.6,15.194A12.661,12.661,0,1,1,81.258,87.855,12.666,12.666,0,0,1,93.92,75.194Zm0,0" transform="translate(1258.298 1736.129)" fill="#575f64"/>
    <path id="Path_688" data-name="Path 688" d="M20.427,90.388H5.233V79.665L0,70.8V60H25.492V70.8l-5.065,8.863Zm0,0" transform="translate(1309 1736.129)" fill="#fdbf00"/>
    <path id="Path_689" data-name="Path 689" d="M273.726,137.726v2.532A25.39,25.39,0,0,1,256,164.467V159a20.488,20.488,0,0,0,7.344-5.217A16.982,16.982,0,0,1,256,155.452v-5.065a12.661,12.661,0,1,0,0-25.323V120A17.746,17.746,0,0,1,273.726,137.726Zm0,0" transform="translate(1096.218 1686.258)" fill="#474f54"/>
    <path id="Path_690" data-name="Path 690" d="M288.92,85.323V95.452h-5.065V85.323A20.253,20.253,0,0,0,263.6,65.065a19.935,19.935,0,0,0-7.6,1.519v-5.47A27.022,27.022,0,0,1,263.6,60,25.332,25.332,0,0,1,288.92,85.323Zm0,0" transform="translate(1096.218 1736.129)" fill="#474f54"/>
    <path id="Path_691" data-name="Path 691" d="M451,420h5.065v12.661H451Zm0,0" transform="translate(934.138 1436.904)" fill="#b1bbe8"/>
    <path id="Path_692" data-name="Path 692" d="M391,420h5.065v12.661H391Zm0,0" transform="translate(984.008 1436.904)" fill="#b1bbe8"/>
    <path id="Path_693" data-name="Path 693" d="M386.492,285.388H361v-10.8l5.065-8.863V255h15.194v10.723l5.233,8.863Zm0,0" transform="translate(1008.944 1574.049)" fill="#ff9100"/>
  </g>
</svg>
