<svg xmlns="http://www.w3.org/2000/svg" width="83.697" height="83.929" viewBox="0 0 83.697 83.929">
  <g id="Group_1219" data-name="Group 1219" transform="translate(-534.639 -1592)">
    <circle id="Ellipse_1" data-name="Ellipse 1" cx="41.848" cy="41.848" r="41.848" transform="translate(534.639 1592.022)" fill="#cdd6e0"/>
    <ellipse id="Ellipse_2" data-name="Ellipse 2" cx="30.166" cy="30.166" rx="30.166" ry="30.166" transform="translate(546.322 1603.705)" fill="#acb3ba"/>
    <path id="Path_50" data-name="Path 50" d="M160.671.022a1.527,1.527,0,0,0-1.395,1.569V17.459a1.569,1.569,0,0,1-3.139,0V1.591A1.424,1.424,0,0,0,154.742.022,1.6,1.6,0,0,0,153,1.591V17.459a1.563,1.563,0,0,1-1.569,1.569h0a1.563,1.563,0,0,1-1.569-1.569V1.591A1.424,1.424,0,0,0,148.465.022a1.6,1.6,0,0,0-1.744,1.569V17.459a1.563,1.563,0,0,1-1.569,1.569h0a1.563,1.563,0,0,1-1.569-1.569V1.591A1.424,1.424,0,0,0,142.188.022a1.6,1.6,0,0,0-1.744,1.569V19.2a11.274,11.274,0,0,0,3.139,7.672,15.235,15.235,0,0,1,4.534,11.857L144.629,76.4v1.221a6.709,6.709,0,0,0,7.847,5.929,6.894,6.894,0,0,0,5.406-7.5l-3.313-37.489A15.007,15.007,0,0,1,159.1,26.7a10.951,10.951,0,0,0,3.139-7.672V1.591A1.563,1.563,0,0,0,160.671.022Z" transform="translate(417.038 1592)" fill="#f2f2f2"/>
    <path id="Path_51" data-name="Path 51" d="M177.049,240.137h-6.626l-3.313,37.141V278.5a6.709,6.709,0,0,0,7.847,5.929,6.894,6.894,0,0,0,5.405-7.5Z" transform="translate(394.731 1391.118)" fill="#40596b"/>
    <path id="Path_52" data-name="Path 52" d="M299.594.137S292.1,3.1,288.957,25.595c-1.221,9.241.7,18.309,4.185,26.853a8.145,8.145,0,0,1,.523,2.964l-2.092,22.494v1.046a5.514,5.514,0,0,0,6.1,4.882c2.79-.349,4.708-3.313,4.533-6.1Z" transform="translate(293.11 1591.885)" fill="#f2f2f2"/>
    <path id="Path_53" data-name="Path 53" d="M308.936,337.2v.349l-2.092,22.493v1.046a5.514,5.514,0,0,0,6.1,4.882c2.79-.349,4.708-3.313,4.533-6.1l-.7-22.493h-7.846V337.2Z" transform="translate(277.839 1309.919)" fill="#ff7058"/>
  </g>
</svg>
