<svg xmlns="http://www.w3.org/2000/svg" width="48.866" height="70.404" viewBox="0 0 48.866 70.404">
  <g id="Group_1222" data-name="Group 1222" transform="translate(-1128 -1592)">
    <g id="Group_8" data-name="Group 8" transform="translate(1130.93 1617.649)">
      <path id="Path_67" data-name="Path 67" d="M207.978,132.681c.148-.063.3-.121.468-.173Q208.2,132.586,207.978,132.681Z" transform="translate(-181.163 -132.344)" fill="#ef8829"/>
      <path id="Path_68" data-name="Path 68" d="M201.54,136.351c.09-.073.19-.148.3-.222C201.73,136.2,201.631,136.278,201.54,136.351Z" transform="translate(-175.979 -135.26)" fill="#ef8829"/>
      <path id="Path_69" data-name="Path 69" d="M210.908,131.8a5.272,5.272,0,0,1,.55-.134A5.311,5.311,0,0,0,210.908,131.8Z" transform="translate(-183.522 -131.667)" fill="#ef8829"/>
      <path id="Path_70" data-name="Path 70" d="M200.1,137.695c.069-.064.146-.132.228-.2C200.244,137.563,200.167,137.63,200.1,137.695Z" transform="translate(-174.818 -136.359)" fill="#ef8829"/>
      <path id="Path_71" data-name="Path 71" d="M213.73,131.668c.213.308.366.545.483.746A5.178,5.178,0,0,0,213.73,131.668Z" transform="translate(-185.794 -131.668)" fill="#ef8829"/>
      <path id="Path_72" data-name="Path 72" d="M244.686,146.127q.2.139.388.283Q244.882,146.266,244.686,146.127Z" transform="translate(-210.72 -143.31)" fill="#ef8829"/>
      <path id="Path_73" data-name="Path 73" d="M250.133,150.286c.119.1.239.19.356.289C250.372,150.477,250.252,150.382,250.133,150.286Z" transform="translate(-215.106 -146.659)" fill="#ef8829"/>
      <path id="Path_74" data-name="Path 74" d="M205.5,133.795c.124-.068.256-.134.395-.2C205.754,133.661,205.622,133.726,205.5,133.795Z" transform="translate(-179.166 -133.223)" fill="#ef8829"/>
      <path id="Path_75" data-name="Path 75" d="M239.134,142.393c.118.074.233.152.349.228C239.367,142.545,239.252,142.467,239.134,142.393Z" transform="translate(-206.249 -140.304)" fill="#ef8829"/>
      <path id="Path_76" data-name="Path 76" d="M261.269,160.645c.131.14.259.285.386.429C261.527,160.93,261.4,160.785,261.269,160.645Z" transform="translate(-224.072 -155)" fill="#ef8829"/>
      <path id="Path_77" data-name="Path 77" d="M265.616,165.595c.128.154.254.309.378.466C265.87,165.9,265.744,165.749,265.616,165.595Z" transform="translate(-227.573 -158.986)" fill="#ef8829"/>
      <path id="Path_78" data-name="Path 78" d="M203.453,134.928c.113-.076.232-.153.362-.226C203.685,134.775,203.566,134.851,203.453,134.928Z" transform="translate(-177.519 -134.111)" fill="#ef8829"/>
      <path id="Path_79" data-name="Path 79" d="M256.969,156.283c-.1-.1-.192-.2-.292-.292C256.777,156.086,256.871,156.186,256.969,156.283Z" transform="translate(-220.375 -151.253)" fill="#ef8829"/>
      <path id="Path_80" data-name="Path 80" d="M183.72,136.161a1.487,1.487,0,0,1,.022-.242A1.49,1.49,0,0,0,183.72,136.161Z" transform="translate(-161.63 -135.091)" fill="#ef8829"/>
      <path id="Path_81" data-name="Path 81" d="M199.14,138.654c-.075.071-.14.137-.2.2C199,138.792,199.065,138.725,199.14,138.654Z" transform="translate(-173.887 -137.293)" fill="#ef8829"/>
      <path id="Path_82" data-name="Path 82" d="M184.34,133.284a1.474,1.474,0,0,1,.124-.234A1.491,1.491,0,0,0,184.34,133.284Z" transform="translate(-162.129 -132.781)" fill="#ef8829"/>
      <path id="Path_83" data-name="Path 83" d="M183.912,134.8a1.476,1.476,0,0,1,.056-.19A1.452,1.452,0,0,0,183.912,134.8Z" transform="translate(-161.785 -134.041)" fill="#ef8829"/>
      <path id="Path_84" data-name="Path 84" d="M70.69,244.526c-.027-.252-.044-.506-.062-.761C70.646,244.019,70.663,244.274,70.69,244.526Z" transform="translate(-70.569 -221.928)" fill="#ef8829"/>
      <path id="Path_85" data-name="Path 85" d="M89.238,297.666c-.149-.208-.3-.416-.439-.629C88.941,297.25,89.089,297.458,89.238,297.666Z" transform="translate(-85.2 -264.823)" fill="#ef8829"/>
      <path id="Path_86" data-name="Path 86" d="M103.78,315.039q-.385-.347-.752-.711Q103.4,314.692,103.78,315.039Z" transform="translate(-96.657 -278.745)" fill="#ef8829"/>
      <path id="Path_87" data-name="Path 87" d="M92.513,302.252c-.188-.233-.372-.468-.55-.708C92.141,301.785,92.326,302.02,92.513,302.252Z" transform="translate(-87.748 -268.452)" fill="#ef8829"/>
      <path id="Path_88" data-name="Path 88" d="M83.475,288.14c-.111-.194-.221-.389-.326-.588C83.254,287.75,83.364,287.945,83.475,288.14Z" transform="translate(-80.65 -257.185)" fill="#ef8829"/>
      <path id="Path_89" data-name="Path 89" d="M86.233,292.97c-.127-.2-.253-.4-.374-.6C85.98,292.573,86.106,292.772,86.233,292.97Z" transform="translate(-82.833 -261.066)" fill="#ef8829"/>
      <path id="Path_90" data-name="Path 90" d="M183.968,139.1a1.469,1.469,0,0,1-.051-.173A1.508,1.508,0,0,0,183.968,139.1Z" transform="translate(-161.789 -137.51)" fill="#ef8829"/>
      <path id="Path_91" data-name="Path 91" d="M120.025,145.451c-1.261-1.127-4.571-3.742-6.558-4.289a6.017,6.017,0,0,0-.089-.876,7.229,7.229,0,0,1,.051,1.876,1.465,1.465,0,0,1-2.9-.4,4.833,4.833,0,0,0-.193-1.768c.028.112.057.23.092.37a9.034,9.034,0,0,0-4.04-.378c.037-.045.086-.1.141-.161a3.43,3.43,0,0,0-.261.315,1.453,1.453,0,0,1-1.213.649,1.467,1.467,0,0,1-.815-.247,1.445,1.445,0,0,1-.515-.612,1.438,1.438,0,0,0,.064.131,21.416,21.416,0,0,0-12.124,5.145,1.45,1.45,0,0,0-.191.158,1.464,1.464,0,1,1-.43,1.035,1.479,1.479,0,0,1,.43-1.035c-.017.017-.033.036-.049.054a21.464,21.464,0,0,0-2.778,29.131,21.485,21.485,0,0,0,31.38-29.1ZM85.8,159.723a1.465,1.465,0,1,1,1.035.43A1.48,1.48,0,0,1,85.8,159.723Zm3.749,7.144a1.462,1.462,0,1,1,.43-1.035A1.471,1.471,0,0,1,89.544,166.867Zm0-14.32a1.465,1.465,0,1,1,.43-1.037A1.474,1.474,0,0,1,89.544,152.546Zm4,19.208a1.469,1.469,0,1,1,.428-1.037A1.482,1.482,0,0,1,93.544,171.754Zm1.289-8.368a1.465,1.465,0,1,1,.43-1.035A1.468,1.468,0,0,1,94.834,163.386Zm0-7.581a1.464,1.464,0,1,1,.43-1.035A1.466,1.466,0,0,1,94.834,155.8Z" transform="translate(-81.499 -138.237)" fill="#ef8829"/>
      <path id="Path_92" data-name="Path 92" d="M183.757,137.735a1.446,1.446,0,0,1-.017-.169A1.5,1.5,0,0,0,183.757,137.735Z" transform="translate(-161.646 -136.417)" fill="#ef8829"/>
      <path id="Path_93" data-name="Path 93" d="M72.248,256.363c-.045-.212-.084-.427-.123-.642C72.164,255.936,72.2,256.151,72.248,256.363Z" transform="translate(-71.774 -231.555)" fill="#ef8829"/>
      <path id="Path_94" data-name="Path 94" d="M73.454,261.982c-.055-.206-.105-.413-.154-.622C73.349,261.568,73.4,261.776,73.454,261.982Z" transform="translate(-72.72 -236.096)" fill="#ef8829"/>
      <path id="Path_95" data-name="Path 95" d="M71.325,250.584c-.036-.225-.064-.452-.093-.679C71.261,250.132,71.289,250.359,71.325,250.584Z" transform="translate(-71.055 -226.872)" fill="#ef8829"/>
      <path id="Path_96" data-name="Path 96" d="M95.343,305.887a21.666,21.666,0,0,0,1.471,1.619A21.727,21.727,0,0,1,95.343,305.887Z" transform="translate(-90.469 -271.949)" fill="#ef8829"/>
      <path id="Path_97" data-name="Path 97" d="M80.96,283.171c-.1-.193-.194-.388-.286-.585C80.766,282.783,80.862,282.977,80.96,283.171Z" transform="translate(-78.658 -253.187)" fill="#ef8829"/>
      <path id="Path_98" data-name="Path 98" d="M70.354,237.135c-.02-.379-.031-.761-.031-1.146C70.323,236.373,70.334,236.755,70.354,237.135Z" transform="translate(-70.323 -215.667)" fill="#ef8829"/>
      <path id="Path_99" data-name="Path 99" d="M78.7,278.068q-.129-.292-.25-.588Q78.566,277.776,78.7,278.068Z" transform="translate(-76.863 -249.075)" fill="#ef8829"/>
      <path id="Path_100" data-name="Path 100" d="M76.684,272.832q-.113-.3-.217-.6Q76.572,272.536,76.684,272.832Z" transform="translate(-75.27 -244.853)" fill="#ef8829"/>
      <path id="Path_101" data-name="Path 101" d="M74.935,267.469c-.065-.2-.126-.4-.186-.607C74.808,267.065,74.869,267.268,74.935,267.469Z" transform="translate(-73.887 -240.526)" fill="#ef8829"/>
    </g>
    <path id="Path_102" data-name="Path 102" d="M127.4,209.011a1.464,1.464,0,1,0,1.035.428A1.476,1.476,0,0,0,127.4,209.011Z" transform="translate(1015.824 1423.705)" fill="#3f2d20"/>
    <path id="Path_103" data-name="Path 103" d="M127.4,247.928a1.464,1.464,0,1,0,1.035.428A1.477,1.477,0,0,0,127.4,247.928Z" transform="translate(1015.824 1392.369)" fill="#3f2d20"/>
    <path id="Path_104" data-name="Path 104" d="M120.777,290.876a1.464,1.464,0,1,0,1.037.43A1.474,1.474,0,0,0,120.777,290.876Z" transform="translate(1021.161 1357.787)" fill="#3f2d20"/>
    <path id="Path_105" data-name="Path 105" d="M120.777,168.991a1.464,1.464,0,1,0-1.035-.428A1.481,1.481,0,0,0,120.777,168.991Z" transform="translate(1021.161 1458.286)" fill="#3f2d20"/>
    <path id="Path_106" data-name="Path 106" d="M100.249,192.274a1.467,1.467,0,1,0,1.035.43A1.472,1.472,0,0,0,100.249,192.274Z" transform="translate(1037.69 1437.181)" fill="#3f2d20"/>
    <path id="Path_107" data-name="Path 107" d="M93.112,230.584a1.467,1.467,0,1,0-.43,1.035A1.476,1.476,0,0,0,93.112,230.584Z" transform="translate(1044.617 1407.515)" fill="#3f2d20"/>
    <path id="Path_108" data-name="Path 108" d="M100.249,265.8a1.467,1.467,0,1,0,1.035.43A1.471,1.471,0,0,0,100.249,265.8Z" transform="translate(1037.69 1377.98)" fill="#3f2d20"/>
    <path id="Path_109" data-name="Path 109" d="M89.05,23.393c2.011-2.657,6.616-8.193,11.558-10.412a1.529,1.529,0,0,0,.944-1.844,1.465,1.465,0,0,0-1.844-.944,17.7,17.7,0,0,0-5.279,2.922,17.7,17.7,0,0,0-4.38-8.163,18.068,18.068,0,0,0-6.837-4.2c-2.645-.912-4.372-.989-5.135-.228a1.365,1.365,0,0,0-.326.5c-.367.913-.2,2.461.552,4.636a18.065,18.065,0,0,0,4.2,6.837,17.587,17.587,0,0,0,7.946,4.325,46.826,46.826,0,0,0-4.359,5.57,24.455,24.455,0,1,0,2.955,1.008ZM87.978,7.024a15.009,15.009,0,0,1,3.669,7.063,15,15,0,0,1-7.065-3.669A15.282,15.282,0,0,1,80.618,3.06,15.284,15.284,0,0,1,87.978,7.024ZM58.212,45.971a21.528,21.528,0,0,1,21.5-21.5c.706,0,1.4.035,2.093.1a7.119,7.119,0,0,0-1.261,1.348A1.468,1.468,0,0,0,81.765,28.2a1.452,1.452,0,0,0,1.213-.649,5.156,5.156,0,0,1,3.17-1.9,5.141,5.141,0,0,1,1.091,3.526,1.465,1.465,0,0,0,2.9.4,7.544,7.544,0,0,0-.163-2.495A21.5,21.5,0,1,1,58.212,45.971Z" transform="translate(1072.718 1592)" fill="#3f2d20"/>
    <path id="Path_110" data-name="Path 110" d="M196.37,26.735a15.009,15.009,0,0,0-3.669-7.063,15.283,15.283,0,0,0-7.36-3.964,15.282,15.282,0,0,0,3.963,7.358A15,15,0,0,0,196.37,26.735Z" transform="translate(967.994 1579.352)" fill="#84bd93"/>
  </g>
</svg>
