<svg id="Group_199" data-name="Group 199" xmlns="http://www.w3.org/2000/svg" width="137.083" height="108.734" viewBox="0 0 137.083 108.734">
  <g id="Group_169" data-name="Group 169" transform="translate(0 50.965)">
    <path id="Path_634" data-name="Path 634" d="M100.119,884.962l76.311,34.22,52.517-23.552-76.309-34.217Z" transform="translate(-100.119 -861.413)" fill="#e3e3e2"/>
  </g>
  <g id="Group_173" data-name="Group 173" transform="translate(15.364)">
    <g id="Group_170" data-name="Group 170">
      <path id="Path_635" data-name="Path 635" d="M213.6,839.683l-10.68-4.786-24.375-10.929-60.2,27,24.417,10.953,10.636,4.773,26.466,11.869,60.173-26.994.028-.012Z" transform="translate(-118.349 -823.968)" fill="#ffd495"/>
    </g>
    <g id="Group_171" data-name="Group 171" transform="translate(1.63 0.724)">
      <path id="Path_636" data-name="Path 636" d="M177.848,824.5l-58.569,26.271L152,865.444l12.253,5.487,14.917,6.5,12.252-5.3,46.318-20.774Z" transform="translate(-119.279 -824.5)" fill="#fff"/>
    </g>
    <path id="Path_637" data-name="Path 637" d="M179.868,871.386v46.493l-26.409-11.75-10.692-4.752-24.417-10.866V843.8l24.417,10.954,10.692,4.782Z" transform="translate(-118.349 -816.806)" fill="#fff"/>
    <g id="Group_172" data-name="Group 172" transform="translate(61.524 27.596)">
      <path id="Path_638" data-name="Path 638" d="M153.456,871.234v46.482L213.625,890.9V844.243Z" transform="translate(-153.456 -844.243)" fill="#fff"/>
    </g>
  </g>
  <g id="Group_184" data-name="Group 184" transform="translate(106.972 44.02)">
    <g id="Group_180" data-name="Group 180" transform="translate(1.153 2.075)">
      <g id="Group_176" data-name="Group 176" transform="translate(0 1.441)">
        <g id="Group_174" data-name="Group 174" transform="translate(1.155 0.242)">
          <path id="Path_639" data-name="Path 639" d="M172.261,863.413l-.321.146v-4.345l.321-.144Z" transform="translate(-171.94 -859.071)" fill="#3f2212"/>
        </g>
        <g id="Group_175" data-name="Group 175">
          <path id="Path_640" data-name="Path 640" d="M173.911,859.571l-.236.3-1.077-.557-1.078,1.526-.238-.092,1.316-1.858Z" transform="translate(-171.281 -858.893)" fill="#3f2212"/>
        </g>
      </g>
      <g id="Group_179" data-name="Group 179" transform="translate(3.216)">
        <g id="Group_177" data-name="Group 177" transform="translate(1.153 0.242)">
          <path id="Path_641" data-name="Path 641" d="M174.1,862.355l-.321.145v-4.344l.321-.144Z" transform="translate(-173.774 -858.013)" fill="#3f2212"/>
        </g>
        <g id="Group_178" data-name="Group 178">
          <path id="Path_642" data-name="Path 642" d="M175.746,858.511l-.235.3-1.078-.555-1.081,1.524-.235-.09,1.316-1.858Z" transform="translate(-173.116 -857.835)" fill="#3f2212"/>
        </g>
      </g>
    </g>
    <g id="Group_181" data-name="Group 181" transform="translate(0.917 5.946)">
      <path id="Path_643" data-name="Path 643" d="M177.308,860.984l-6,2.691c-.089.041-.159.007-.159-.075a.264.264,0,0,1,.159-.212l6-2.691c.086-.041.158-.01.158.072A.271.271,0,0,1,177.308,860.984Z" transform="translate(-171.146 -860.679)" fill="#3f2212"/>
    </g>
    <g id="Group_183" data-name="Group 183">
      <g id="Group_182" data-name="Group 182">
        <path id="Path_644" data-name="Path 644" d="M177.649,863.737l-5.9,2.647c-.622.278-1.127.053-1.127-.5V860.59a1.906,1.906,0,0,1,1.127-1.516l5.9-2.646c.62-.276,1.127-.052,1.127.505v5.295A1.9,1.9,0,0,1,177.649,863.737Zm-5.9-4.372a1.368,1.368,0,0,0-.8,1.079v5.289c0,.4.363.559.806.362l5.9-2.646a1.361,1.361,0,0,0,.8-1.079l0-5.291c0-.4-.363-.559-.806-.362Z" transform="translate(-170.623 -856.31)" fill="#3f2212"/>
      </g>
    </g>
  </g>
  <g id="Group_192" data-name="Group 192" transform="translate(115.794 40.048)">
    <g id="Group_185" data-name="Group 185" transform="translate(3.915 3.945)">
      <path id="Path_645" data-name="Path 645" d="M178.052,860.384c-.089.041-.161.01-.161-.072v-3.786a.268.268,0,0,1,.161-.216c.088-.042.161-.007.161.071v3.789A.274.274,0,0,1,178.052,860.384Z" transform="translate(-177.891 -856.291)" fill="#3f2212"/>
    </g>
    <g id="Group_187" data-name="Group 187">
      <g id="Group_186" data-name="Group 186">
        <path id="Path_646" data-name="Path 646" d="M182.683,860.822l-5.9,2.647c-.624.278-1.129.05-1.129-.5v-5.292a1.911,1.911,0,0,1,1.129-1.515l5.9-2.647c.62-.278,1.125-.05,1.125.508v5.292A1.9,1.9,0,0,1,182.683,860.822Zm-5.9-4.375a1.362,1.362,0,0,0-.8,1.079v5.292c0,.4.361.559.806.359l5.9-2.643a1.357,1.357,0,0,0,.8-1.081l0-5.292c0-.4-.359-.558-.8-.361Z" transform="translate(-175.657 -853.392)" fill="#3f2212"/>
      </g>
    </g>
    <path id="Path_647" data-name="Path 647" d="M181.465,856.66c-.231-.7-1.234-.855-2.436-.314a4.406,4.406,0,0,0-2.436,2.5Z" transform="translate(-174.953 -852.442)" fill="#3f2212"/>
    <g id="Group_191" data-name="Group 191" transform="translate(3.067 1.814)">
      <g id="Group_188" data-name="Group 188" transform="translate(0 0.762)">
        <path id="Path_648" data-name="Path 648" d="M177.566,856.513c-.088.042-.159.007-.159-.072v-.923a.26.26,0,0,1,.159-.214c.089-.044.161-.009.161.068v.924A.27.27,0,0,1,177.566,856.513Z" transform="translate(-177.407 -855.285)" fill="#3f2212"/>
      </g>
      <g id="Group_189" data-name="Group 189" transform="translate(0.848 0.381)">
        <path id="Path_649" data-name="Path 649" d="M178.052,856.233c-.089.042-.161.008-.161-.072v-.923a.278.278,0,0,1,.161-.216c.088-.038.159-.008.159.072v.924A.268.268,0,0,1,178.052,856.233Z" transform="translate(-177.891 -855.005)" fill="#3f2212"/>
      </g>
      <g id="Group_190" data-name="Group 190" transform="translate(1.698)">
        <path id="Path_650" data-name="Path 650" d="M178.534,855.955c-.088.038-.158.008-.158-.072v-.926a.273.273,0,0,1,.158-.216c.091-.039.161,0,.161.072v.927A.272.272,0,0,1,178.534,855.955Z" transform="translate(-178.376 -854.725)" fill="#3f2212"/>
      </g>
    </g>
  </g>
  <g id="Group_198" data-name="Group 198" transform="translate(124.541 36.142)">
    <g id="Group_194" data-name="Group 194">
      <g id="Group_193" data-name="Group 193">
        <path id="Path_651" data-name="Path 651" d="M187.675,857.951l-5.9,2.646c-.62.278-1.127.05-1.125-.505l0-5.292a1.91,1.91,0,0,1,1.127-1.514l5.9-2.645c.62-.279,1.127-.052,1.127.5v5.293A1.913,1.913,0,0,1,187.675,857.951Zm-5.9-4.376a1.361,1.361,0,0,0-.8,1.083v5.289c0,.4.361.558.8.362l5.9-2.646a1.355,1.355,0,0,0,.8-1.083l0-5.289c0-.4-.361-.561-.8-.362Z" transform="translate(-180.648 -850.522)" fill="#3f2212"/>
      </g>
    </g>
    <g id="Group_197" data-name="Group 197" transform="translate(2.522 2.187)">
      <g id="Group_195" data-name="Group 195" transform="translate(1.393 1.027)">
        <path id="Path_652" data-name="Path 652" d="M183.043,856.978c-.088.041-.161.008-.161-.071v-3.789a.284.284,0,0,1,.161-.218c.088-.039.161-.005.161.073v3.789A.274.274,0,0,1,183.043,856.978Z" transform="translate(-182.882 -852.884)" fill="#3f2212"/>
      </g>
      <g id="Group_196" data-name="Group 196" transform="translate(0.661 4.488)">
        <path id="Path_653" data-name="Path 653" d="M184.089,855.732l-1.463.656c-.088.039-.161.008-.161-.07a.272.272,0,0,1,.161-.218l1.463-.657c.091-.039.161-.007.161.072A.266.266,0,0,1,184.089,855.732Z" transform="translate(-182.464 -855.427)" fill="#3f2212"/>
      </g>
      <path id="Path_654" data-name="Path 654" d="M185.2,852.129V853.9a1.63,1.63,0,0,1-.964,1.3l-1.181.528c-.533.241-.964.045-.964-.433v-1.768l.585-.263v1.895c0,.08.07.112.159.073a.275.275,0,0,0,.161-.219v-1.895Z" transform="translate(-182.087 -852.129)" fill="#3f2212"/>
    </g>
  </g>
  <path id="Path_655" data-name="Path 655" d="M142.974,848.293v56.215l-10.692-4.752V853.088Z" transform="translate(-82.454 -815.185)" fill="#4bc25a"/>
  <path id="Path_656" data-name="Path 656" d="M203.119,836.783l-60.144,26.974-.056.033-10.636-4.773v-.045l10.692-4.8L192.439,832Z" transform="translate(-87.202 -821.068)" fill="#4bc25a"/>
</svg>
