<svg xmlns="http://www.w3.org/2000/svg" width="68.916" height="56.72" viewBox="0 0 68.916 56.72">
  <g id="Group_1225" data-name="Group 1225" transform="translate(-1503 -1606)">
    <path id="Path_144" data-name="Path 144" d="M68.616,17.42a1.489,1.489,0,0,0-.687-2.526c-2.744-1-1.619-4.31-3.912-4.135-2.631.2-4.563-1.376-4.315-3.524S58.017,3.51,55.386,3.712,55.319.573,51.071.188c0,0-2.968-.936-3.25,1.384l-.044,9.044h-17.1c-16.843,0-30.5,11.15-30.5,24.9v21.2H25.93c16.959,0,30.708-11.227,30.708-25.076V17.74l11.054.083A1.692,1.692,0,0,0,68.616,17.42Z" transform="translate(1502.822 1605.999)" fill="#698b9e"/>
    <path id="Path_145" data-name="Path 145" d="M31.959,49.907H28.708A22.782,22.782,0,0,0,5.951,27.15V23.9A26.037,26.037,0,0,1,31.959,49.907Z" transform="translate(1506.433 1603.677)" fill="#5d7989"/>
    <path id="Path_146" data-name="Path 146" d="M35.214,46.652H31.963A22.782,22.782,0,0,0,9.206,23.895V20.644A26.038,26.038,0,0,1,35.214,46.652Z" transform="translate(1507.077 1606.834)" fill="#5d7989"/>
    <path id="Path_147" data-name="Path 147" d="M38.323,43.542H35.072A22.782,22.782,0,0,0,12.315,20.785V17.534A26.038,26.038,0,0,1,38.323,43.542Z" transform="translate(1508.542 1606.708)" fill="#5d7989"/>
    <path id="Path_148" data-name="Path 148" d="M41.578,40.288H38.327A22.782,22.782,0,0,0,15.57,17.531V14.28A26.037,26.037,0,0,1,41.578,40.288Z" transform="translate(1510.076 1606.576)" fill="#5d7989"/>
    <path id="Path_149" data-name="Path 149" d="M20.1,13.194A25.832,25.832,0,0,0,15.6,2.978S2.228,9.607,7.711,19.771A32.39,32.39,0,0,1,20.1,13.194Z" transform="translate(1506.708 1607.861)" fill="#546a79"/>
    <path id="Path_150" data-name="Path 150" d="M39.272,29.131A32.527,32.527,0,0,1,32.9,43.187a25.672,25.672,0,0,0,18.267-4.844S46.613,29.164,39.272,29.131Z" transform="translate(1518.791 1610.536)" fill="#546a79"/>
    <circle id="Ellipse_3" data-name="Ellipse 3" cx="3.251" cy="3.251" r="3.251" transform="translate(1509.133 1643.959)" fill="#38454f"/>
  </g>
</svg>
