<svg xmlns="http://www.w3.org/2000/svg" width="67.052" height="78.43" viewBox="0 0 67.052 78.43">
  <g id="Group_1231" data-name="Group 1231" transform="translate(-733.985 -1788)">
    <path id="Path_299" data-name="Path 299" d="M94.132,69.09H84.264A20.355,20.355,0,0,1,63.909,48.735V25.289A25.289,25.289,0,0,1,89.2,0h0a25.289,25.289,0,0,1,25.289,25.289V48.735A20.355,20.355,0,0,1,94.132,69.09Z" transform="translate(674.177 1788)" fill="#606572"/>
    <path id="Path_301" data-name="Path 301" d="M130.517,301.208H87.125l.366-5.805a9.888,9.888,0,0,1,7.5-8.977l6.306-1.558a.7.7,0,0,0,.53-.676V270.077h14.065v14.131a.7.7,0,0,0,.53.676l6.234,1.541a9.888,9.888,0,0,1,7.5,8.978Z" transform="translate(654.518 1559.294)" fill="#f9c295"/>
    <path id="Path_304" data-name="Path 304" d="M149.351,121.573c-2.183,11.189-11.225,17.629-18.137,17.629-6.51,0-14.913-5.712-17.688-15.729,12.371-1.762,22.8-13.232,25.409-19.888C138.935,103.585,138.935,118.243,149.351,121.573Z" transform="translate(632.161 1700.282)" fill="#f9c295"/>
    <g id="Group_49" data-name="Group 49" transform="translate(778.681 1792.929)">
      <path id="Path_306" data-name="Path 306" d="M334.628,32.668c-.859,3.164-2.054,4.358-5.217,5.217a.668.668,0,0,0,0,1.289c3.164.859,4.358,2.054,5.217,5.217a.668.668,0,0,0,1.289,0c.859-3.164,2.054-4.358,5.217-5.217a.668.668,0,0,0,0-1.289c-3.164-.859-4.358-2.054-5.217-5.217A.668.668,0,0,0,334.628,32.668Z" transform="translate(-328.918 -32.176)" fill="#fee9a1"/>
    </g>
    <g id="Group_51" data-name="Group 51" transform="translate(780.929 1826.839)">
      <path id="Path_307" data-name="Path 307" d="M352.769,269.873l-8.255-7.629a2.877,2.877,0,0,1,.969-4.816l10.175-3.7a2.877,2.877,0,0,1,3.837,3.066l-1.42,11.15Z" transform="translate(-343.589 -253.548)" fill="#fee9a1"/>
      <path id="Path_308" data-name="Path 308" d="M408.119,253.725l-2.579.939c1.619-.589,3.443,1.173,3.356,3.242l-.451,10.8,2.092-.761,1.42-11.15A2.877,2.877,0,0,0,408.119,253.725Z" transform="translate(-396.05 -253.548)" fill="#fdca67"/>
      <g id="Group_50" data-name="Group 50" transform="translate(2.817 0.513)">
        <path id="Path_309" data-name="Path 309" d="M405.443,260.508a10.767,10.767,0,0,0-1.368-3.611l-2.221.808a7.948,7.948,0,0,1,1.325,3.2l.52,2.981a1.149,1.149,0,1,0,2.264-.4Z" transform="translate(-395.746 -256.897)" fill="#dda84a"/>
        <path id="Path_310" data-name="Path 310" d="M363.253,275.865l1.517,2.618a1.149,1.149,0,0,0,1.988-1.152l-1.518-2.618a7.95,7.95,0,0,1-1.04-3.3l-2.22.808A10.772,10.772,0,0,0,363.253,275.865Z" transform="translate(-361.981 -269.188)" fill="#dda84a"/>
      </g>
      <path id="Path_311" data-name="Path 311" d="M400.39,347.853l4.581,12.587a3.488,3.488,0,0,0,4.471,2.085h0a3.488,3.488,0,0,0,2.085-4.471l-4.581-12.587a1.167,1.167,0,0,0-1.5-.7l-4.363,1.588A1.167,1.167,0,0,0,400.39,347.853Z" transform="translate(-391.629 -330.736)" fill="#fd7ba2"/>
      <path id="Path_312" data-name="Path 312" d="M427.312,358.054l-4.581-12.587a1.167,1.167,0,0,0-1.5-.7l-2.276.828c.353-.129.818.258,1.038.864l4.581,12.587c.551,1.514.414,3-.262,3.675a3.5,3.5,0,0,0,.91-.2h0A3.488,3.488,0,0,0,427.312,358.054Z" transform="translate(-407.415 -330.736)" fill="#e9488e"/>
      <path id="Path_313" data-name="Path 313" d="M414.652,369.813l-.786-2.159h0l-6.555,2.386h0l.786,2.159h0Z" transform="translate(-397.55 -350.175)" fill="#606572"/>
      <path id="Path_314" data-name="Path 314" d="M435,367.654l-2.732.995.786,2.159,2.733-.995L435,367.654Z" transform="translate(-418.684 -350.175)" fill="#3b4254"/>
    </g>
    <g id="Group_52" data-name="Group 52" transform="translate(733.985 1832.049)">
      <path id="Path_315" data-name="Path 315" d="M57.755,293.523v11.314H47.331V288.725a1.055,1.055,0,0,1,.134-.531c.648-1.12,3.444-.715,6.248.9C56.122,290.489,57.755,292.323,57.755,293.523Z" transform="translate(-45.77 -287.56)" fill="#ff7870"/>
      <path id="Path_316" data-name="Path 316" d="M92.573,299.772v15.407h3.493V303.865C96.066,302.758,94.678,301.113,92.573,299.772Z" transform="translate(-84.081 -297.901)" fill="#d7352e"/>
      <path id="Path_317" data-name="Path 317" d="M49.133,400.351H38.689a1.551,1.551,0,0,0-1.551,1.551v14a1.551,1.551,0,0,0,1.551,1.551H49.133a1.551,1.551,0,0,0,1.551-1.551v-14A1.551,1.551,0,0,0,49.133,400.351Z" transform="translate(-37.138 -383.073)" fill="#78baf6"/>
      <path id="Path_318" data-name="Path 318" d="M96.133,400.351H92.64a1.551,1.551,0,0,1,1.551,1.551v14a1.551,1.551,0,0,1-1.551,1.551h3.493a1.551,1.551,0,0,0,1.551-1.551v-14A1.551,1.551,0,0,0,96.133,400.351Z" transform="translate(-84.138 -383.073)" fill="#1885da"/>
      <path id="Path_319" data-name="Path 319" d="M57.756,293.523a1.039,1.039,0,0,1-.136.533c-.646,1.12-3.444.715-6.248-.9-2.41-1.391-4.04-3.228-4.04-4.428a1.055,1.055,0,0,1,.134-.531c.648-1.12,3.444-.715,6.248.9C56.123,290.489,57.756,292.323,57.756,293.523Z" transform="translate(-45.77 -287.56)" fill="#ff9794"/>
      <rect id="Rectangle_45" data-name="Rectangle 45" width="13.546" height="2.298" transform="translate(0 20.808)" fill="#606572"/>
      <rect id="Rectangle_46" data-name="Rectangle 46" width="3.493" height="2.298" transform="translate(10.053 20.808)" fill="#3b4254"/>
    </g>
  </g>
</svg>
