<svg xmlns="http://www.w3.org/2000/svg" width="78.203" height="79.253" viewBox="0 0 78.203 79.253">
  <g id="Group_1220" data-name="Group 1220" transform="translate(-729 -1595)">
    <path id="Path_54" data-name="Path 54" d="M25.451,235.988V262.86H58.544l0,0,15.179-11.187V235.988Z" transform="translate(705.118 1394.841)" fill="#e3f2ff"/>
    <path id="Path_55" data-name="Path 55" d="M347.523,297.608a11.263,11.263,0,0,1-4.123,15.386l-9.381,5.416L322.756,298.9l9.381-5.416A11.264,11.264,0,0,1,347.523,297.608Z" transform="translate(456.521 1346.872)" fill="#fe73b1"/>
    <path id="Path_56" data-name="Path 56" d="M240.57,335.023l11.264,19.509-10.128,5.848a11.263,11.263,0,1,1-11.264-19.509Z" transform="translate(538.42 1310.751)" fill="#fec459"/>
    <path id="Path_57" data-name="Path 57" d="M64.07,102.431l8.367,11.156a6.443,6.443,0,0,1,1.287,3.862v1.073H25.451v-1.073a6.443,6.443,0,0,1,1.287-3.862l8.367-11.156V96H64.07Z" transform="translate(705.118 1513.643)" fill="#ed5151"/>
    <path id="Path_58" data-name="Path 58" d="M100.849,13.217v7.4a3.217,3.217,0,0,1-3.218,3.218H68.667a3.217,3.217,0,0,1-3.218-3.218v-7.4A3.217,3.217,0,0,1,68.667,10H97.631A3.217,3.217,0,0,1,100.849,13.217Z" transform="translate(671.556 1586.61)" fill="#57555c"/>
    <path id="Path_59" data-name="Path 59" d="M58.545,402.982l0,0H25.451V406.2a6.437,6.437,0,0,0,6.436,6.437H58.7l0,0Z" transform="translate(705.118 1253.729)" fill="#ed5151"/>
    <path id="Path_60" data-name="Path 60" d="M117.306,129.213A1.609,1.609,0,1,0,115.7,127.6,1.61,1.61,0,0,0,117.306,129.213Z" transform="translate(629.582 1488.476)"/>
    <path id="Path_61" data-name="Path 61" d="M140.18,279.423h-4.827V274.6a1.609,1.609,0,1,0-3.218,0v4.827h-4.827a1.609,1.609,0,0,0,0,3.218h4.827v4.827a1.609,1.609,0,0,0,3.218,0v-4.827h4.827a1.609,1.609,0,1,0,0-3.218Z" transform="translate(621.253 1363.863)"/>
    <path id="Path_62" data-name="Path 62" d="M74.379,45.308l-6.609,3.63V35.5a7.547,7.547,0,0,0-1.627-4.643L58.007,20.535V16.141a4.673,4.673,0,0,0,3.254-4.377V4.643A4.772,4.772,0,0,0,56.38,0H27.092A4.772,4.772,0,0,0,22.21,4.643v7.12a4.673,4.673,0,0,0,3.254,4.377v4.394L17.328,30.854A7.546,7.546,0,0,0,15.7,35.5V65.473a7.954,7.954,0,0,0,8.136,7.739h26.15A13.382,13.382,0,0,0,67.669,77.59L87.4,66.755A12.068,12.068,0,0,0,92.161,49.84,13.379,13.379,0,0,0,74.379,45.308ZM49.795,60.83H18.956V38.077h45.56V50.725l-9.864,5.418A12.61,12.61,0,0,0,49.795,60.83ZM25.465,4.643A1.591,1.591,0,0,1,27.092,3.1H56.38a1.591,1.591,0,0,1,1.627,1.548v7.12a1.591,1.591,0,0,1-1.627,1.548H27.092a1.591,1.591,0,0,1-1.627-1.548S25.465,4.643,25.465,4.643Zm2.929,17.336a1.5,1.5,0,0,0,.325-.929V16.407H54.753v3.1H40.109a1.55,1.55,0,1,0,0,3.1H55.567l7.972,10.111a4.556,4.556,0,0,1,.942,2.271H18.991a4.553,4.553,0,0,1,.942-2.271ZM18.956,65.473V63.91H48.518a11.818,11.818,0,0,0,.078,6.207H23.838A4.773,4.773,0,0,1,18.956,65.473Zm47.086,9.435a10.035,10.035,0,0,1-13.335-3.4,9.044,9.044,0,0,1,3.572-12.688l8.832-4.851,9.763,16.085ZM85.769,64.074,77.692,68.51,67.93,52.425l8.077-4.436a10.034,10.034,0,0,1,13.336,3.4A9.051,9.051,0,0,1,85.769,64.074Z" transform="translate(713.298 1595)"/>
  </g>
</svg>
