<?xml version="1.0" encoding="utf-8"?>
<!-- Generator: Adobe Illustrator 22.0.1, SVG Export Plug-In . SVG Version: 6.00 Build 0)  -->
<svg version="1.1" id="Layer_1" xmlns="http://www.w3.org/2000/svg" xmlns:xlink="http://www.w3.org/1999/xlink" x="0px" y="0px"
	 viewBox="0 0 1920 1080" style="enable-background:new 0 0 1920 1080;" xml:space="preserve">
<style type="text/css">
	.st0{fill:url(#SVGID_1_);stroke:#FFFFFF;stroke-width:3;stroke-miterlimit:10;}
	.st1{fill:url(#SVGID_2_);stroke:#FFFFFF;stroke-width:3;stroke-miterlimit:10;}
	.st2{fill:url(#SVGID_3_);stroke:#FFFFFF;stroke-width:3;stroke-miterlimit:10;}
	.st3{fill:url(#SVGID_4_);stroke:#FFFFFF;stroke-width:3;stroke-miterlimit:10;}
	.st4{fill:url(#SVGID_5_);stroke:#FFFFFF;stroke-width:3;stroke-miterlimit:10;}
	.st5{fill:url(#SVGID_6_);stroke:#FFFFFF;stroke-width:3;stroke-miterlimit:10;}
	.st6{fill:url(#SVGID_7_);stroke:#FFFFFF;stroke-width:3;stroke-miterlimit:10;}
	.st7{fill:url(#SVGID_8_);stroke:#FFFFFF;stroke-width:3;stroke-miterlimit:10;}
	.st8{fill:url(#SVGID_9_);stroke:#FFFFFF;stroke-width:3;stroke-miterlimit:10;}
	.st9{fill:url(#SVGID_10_);stroke:#FFFFFF;stroke-miterlimit:10;}
	.st10{fill:#F2F4F2;stroke:#4BC25A;stroke-width:3;stroke-miterlimit:10;}
	.st11{fill:#FAFFFA;stroke:#FFFFFF;stroke-width:3;stroke-miterlimit:10;}
	.st12{fill:#F7F9F7;stroke:#4BC25A;stroke-width:3;stroke-miterlimit:10;}
	.st13{fill:#F4F4F4;stroke:#4BC25A;stroke-width:3;stroke-miterlimit:10;}
	.st14{fill:#F5F7F5;stroke:#4BC25A;stroke-width:3;stroke-miterlimit:10;}
</style>
<g>
	<g>
		<g>
			
				<linearGradient id="SVGID_1_" gradientUnits="userSpaceOnUse" x1="751.9769" y1="493.2737" x2="872.3434" y2="493.2737" gradientTransform="matrix(0.924 -0.3824 0.3824 0.924 -145.5181 384.1404)">
				<stop  offset="0" style="stop-color:#4BC25A"/>
				<stop  offset="1" style="stop-color:#368C41"/>
			</linearGradient>
			<path class="st0" d="M843.3,513.8L749.5,562c-3.7,2-8.1-0.2-9.6-4.9l0,0c-1.6-4.7,0.2-10.1,3.9-12.1l93.7-48.2
				c3.7-2,8.1,0.2,9.6,4.9l0,0C848.7,506.3,847,511.8,843.3,513.8z"/>
			
				<linearGradient id="SVGID_2_" gradientUnits="userSpaceOnUse" x1="777.5739" y1="802.9055" x2="889.115" y2="802.9055" gradientTransform="matrix(0.924 -0.3824 0.3824 0.924 -145.5181 384.1404)">
				<stop  offset="0" style="stop-color:#4BC25A"/>
				<stop  offset="1" style="stop-color:#368C41"/>
			</linearGradient>
			<path class="st1" d="M978.5,788.2L888.1,837c-2.3,1.2-4.9-0.1-5.9-3l0,0c-1-2.9,0.1-6.2,2.4-7.4l90.4-48.8c2.3-1.2,4.9,0.1,5.9,3
				l0,0C981.8,783.6,980.7,787,978.5,788.2z"/>
			
				<linearGradient id="SVGID_3_" gradientUnits="userSpaceOnUse" x1="596.288" y1="685.1732" x2="698.1574" y2="685.1732" gradientTransform="matrix(0.924 -0.3824 0.3824 0.924 -145.5181 384.1404)">
				<stop  offset="0" style="stop-color:#4BC25A"/>
				<stop  offset="1" style="stop-color:#368C41"/>
			</linearGradient>
			<path class="st2" d="M757.2,752.9l-81.8,44.2c-2.3,1.2-4.9-0.1-5.9-3l0,0c-1-2.9,0.1-6.2,2.4-7.4l81.8-44.2
				c2.3-1.2,4.9,0.1,5.9,3l0,0C760.5,748.3,759.5,751.6,757.2,752.9z"/>
			
				<linearGradient id="SVGID_4_" gradientUnits="userSpaceOnUse" x1="619.7712" y1="667.0429" x2="660.6135" y2="667.0429" gradientTransform="matrix(0.924 -0.3824 0.3824 0.924 -145.5181 384.1404)">
				<stop  offset="0" style="stop-color:#4BC25A"/>
				<stop  offset="1" style="stop-color:#368C41"/>
			</linearGradient>
			<path class="st3" d="M716.7,753.3l-27.8,15.1c-2.3,1.2-4.9-0.1-5.9-3l0,0c-1-2.9,0.1-6.2,2.4-7.4l27.8-15.1
				c2.3-1.2,4.9,0.1,5.9,3l0,0C720.1,748.8,719,752.1,716.7,753.3z"/>
			
				<linearGradient id="SVGID_5_" gradientUnits="userSpaceOnUse" x1="803.8764" y1="832.4227" x2="844.7185" y2="832.4227" gradientTransform="matrix(0.924 -0.3824 0.3824 0.924 -145.5181 384.1404)">
				<stop  offset="0" style="stop-color:#4BC25A"/>
				<stop  offset="1" style="stop-color:#368C41"/>
			</linearGradient>
			<path class="st4" d="M950.1,835.8l-27.8,15.1c-2.3,1.2-4.9-0.1-5.9-3l0,0c-1-2.9,0.1-6.2,2.4-7.4l27.8-15.1
				c2.3-1.2,4.9,0.1,5.9,3l0,0C953.4,831.2,952.4,834.5,950.1,835.8z"/>
			
				<linearGradient id="SVGID_6_" gradientUnits="userSpaceOnUse" x1="824.224" y1="453.0301" x2="864.9879" y2="453.0301" gradientTransform="matrix(0.924 -0.3824 0.3824 0.924 -145.5181 384.1404)">
				<stop  offset="0" style="stop-color:#4BC25A"/>
				<stop  offset="1" style="stop-color:#368C41"/>
			</linearGradient>
			<path class="st5" d="M823.8,478l-28.1,14.1c-2.3,1.1-4.9-0.3-5.8-3.2l0,0c-0.9-2.9,0.2-6.2,2.5-7.3l28.1-14.1
				c2.3-1.1,4.9,0.3,5.8,3.2l0,0C827.3,473.6,826.1,476.9,823.8,478z"/>
			
				<linearGradient id="SVGID_7_" gradientUnits="userSpaceOnUse" x1="686.1362" y1="534.1476" x2="788.0054" y2="534.1476" gradientTransform="matrix(0.924 -0.3824 0.3824 0.924 -145.5181 384.1404)">
				<stop  offset="0" style="stop-color:#4BC25A"/>
				<stop  offset="1" style="stop-color:#368C41"/>
			</linearGradient>
			<path class="st6" d="M782.5,579l-81.8,44.2c-2.3,1.2-4.9-0.1-5.9-3l0,0c-1-2.9,0.1-6.2,2.4-7.4l81.8-44.2c2.3-1.2,4.9,0.1,5.9,3
				l0,0C785.8,574.4,784.7,577.7,782.5,579z"/>
			
				<linearGradient id="SVGID_8_" gradientUnits="userSpaceOnUse" x1="729.9846" y1="785.5485" x2="831.8538" y2="785.5485" gradientTransform="matrix(0.924 -0.3824 0.3824 0.924 -145.5181 384.1404)">
				<stop  offset="0" style="stop-color:#4BC25A"/>
				<stop  offset="1" style="stop-color:#368C41"/>
			</linearGradient>
			<path class="st7" d="M919.1,794.5l-81.8,44.2c-2.3,1.2-4.9-0.1-5.9-3l0,0c-1-2.9,0.1-6.2,2.4-7.4l81.8-44.2
				c2.3-1.2,4.9,0.1,5.9,3l0,0C922.4,789.9,921.4,793.3,919.1,794.5z"/>
			
				<linearGradient id="SVGID_9_" gradientUnits="userSpaceOnUse" x1="781.6777" y1="567.3377" x2="883.5469" y2="567.3377" gradientTransform="matrix(0.924 -0.3824 0.3824 0.924 -145.5181 384.1404)">
				<stop  offset="0" style="stop-color:#4BC25A"/>
				<stop  offset="1" style="stop-color:#368C41"/>
			</linearGradient>
			<path class="st8" d="M883.4,573.1l-81.8,44.2c-2.3,1.2-4.9-0.1-5.9-3l0,0c-1-2.9,0.1-6.2,2.4-7.4l81.8-44.2
				c2.3-1.2,4.9,0.1,5.9,3l0,0C886.8,568.5,885.7,571.9,883.4,573.1z"/>
			<linearGradient id="SVGID_10_" gradientUnits="userSpaceOnUse" x1="1011.5695" y1="319.5612" x2="1131.2155" y2="319.5612">
				<stop  offset="0" style="stop-color:#4BC25A"/>
				<stop  offset="1" style="stop-color:#368C41"/>
			</linearGradient>
			<path class="st9" d="M1077.4,377.9c18.6-9.7,27.5-36.7,19.8-60.2c0,0,32.4-10.1,34-21.7c0.5-3.7-39.5,5-39.5,5l-14.2-43.4
				l-38.8,2.3l-27.1,37.9l15.9,45.8l0,0c0.5,3.1,1.2,6.2,2.2,9.3C1037.4,376.5,1058.7,387.6,1077.4,377.9z"/>
			<path class="st10" d="M926.8,363.1l-41.2-21.5l-36.2,109.9l12.7,6.6C869.3,396.2,896.7,371.1,926.8,363.1z"/>
			<path class="st11" d="M1036.2,425.8l-28.2-15.2c-92.2-22-89.4,60.4-88.5,80.4l82.5,43.1L1036.2,425.8z"/>
			<path class="st12" d="M878.3,524.8c9.1,1.8,13.1,10.8,20.7,7.2c7.6-3.5,7-16.5,7-16.5c4.2-1.5,5.6-8.1,5.6-8.1
				c1-14.2-8-13.4-8-13.4l-35.2,0.7C868.4,494.7,869.1,523,878.3,524.8z"/>
			<path class="st13" d="M1152.2,367.1c-8.7-3.8-11.4-13.5-19.4-11.8c-8,1.8-9.2,14.6-9.2,14.6c-4.3,0.6-6.7,6.7-6.7,6.7
				c-3,13.7,6,15,6,15l34.7,7.2C1157.6,398.9,1160.9,370.9,1152.2,367.1z"/>
			<path class="st14" d="M791.5,706.9l-25.4,8.9l33.1,113.9c0,0,16.7-18.2,17.3-39.9c0.6-21.7-21.1-44.8-21.1-44.8l9.7-5.7
				L791.5,706.9z"/>
			<path class="st12" d="M1099.1,470.2c-9.5,5-28.4-24.5-37-39.1l9.3-16.8l-36.1-43.7l-11.6,0.2l-2.2,6.8
				c-27.3-11.8-152.2-56.4-155.4,110.6l46.8,1c0,0-12.7-114.6,99.6-82.8l32.3,15.6l-40.4,121.5l-57.2-29.9
				c-6.4,6.2-13.2,12.1-20.6,17.3l-2.3,3.4c-9.4,14-14.7,31.8-15,50.2l-0.1,9.3c1.2,85.1-119,97.4-119,97.4l24.6,59
				c89.2-23.6,140.2-98.2,164.4-145.7c29.9,6.8,59,17.2,62.9,32.4c8.4,32.7-40.9,108.3-40.9,108.3l14.2,4.4l30.9,9.6l8.8,2.7
				c-8,8.4-13.9,16.2-13.9,16.2l3.6-13.5l-30.1-9L1006,826l94.7-49.4c0,0-3-20.8-21.1-24.6c-9-1.9-14.7-0.4-23.9,9.2
				c4.9-10.2,77.7-166.1,3.6-188.5c-22.1-6.7-42.4-13-60.2-18.6c13-11.9,39.6-39.9,52.2-79.5c13.1,21.5,35.2,49.4,57.4,38.4
				c34.7-17.1,49.8-108.1,49.8-108.1l-44-11.2C1114.4,393.8,1111.7,463.6,1099.1,470.2z"/>
		</g>
	</g>
</g>
</svg>
