<svg xmlns="http://www.w3.org/2000/svg" width="102.998" height="103.001" viewBox="0 0 102.998 103.001">
  <g id="money" transform="translate(-0.007)">
    <g id="Group_1209" data-name="Group 1209" transform="translate(13.686 90.931)">
      <g id="Group_1208" data-name="Group 1208">
        <path id="Path_3593" data-name="Path 3593" d="M71.437,452.59a2.01,2.01,0,1,0,.59,1.422A2.025,2.025,0,0,0,71.437,452.59Z" transform="translate(-68.003 -452.001)" fill="#fff"/>
      </g>
    </g>
    <g id="Group_1211" data-name="Group 1211" transform="translate(91.027 36.213)">
      <g id="Group_1210" data-name="Group 1210">
        <path id="Path_3594" data-name="Path 3594" d="M455.888,180.6a2.006,2.006,0,1,0,.591,1.422A2.022,2.022,0,0,0,455.888,180.6Z" transform="translate(-452.454 -180.008)" fill="#fff"/>
      </g>
    </g>
    <g id="Group_1213" data-name="Group 1213" transform="translate(0.007)">
      <g id="Group_1212" data-name="Group 1212" transform="translate(0)">
        <path id="Path_3595" data-name="Path 3595" d="M102.416.589A2.013,2.013,0,0,0,100.993,0L51.506,0a2.012,2.012,0,0,0-2.012,2.012V7.767l-19.069,5.11A2.012,2.012,0,0,0,29,15.341l9.883,36.884-8.55,8.55a6.033,6.033,0,0,0-4.982-2.634H6.042A6.042,6.042,0,0,0,.007,64.175v32.79A6.042,6.042,0,0,0,6.042,103H25.354a6.045,6.045,0,0,0,5.857-4.583L33.6,100.5a10.136,10.136,0,0,0,6.662,2.5h60.728a2.012,2.012,0,0,0,2.012-2.012V2.012A2.014,2.014,0,0,0,102.416.589ZM27.366,96.966a2.014,2.014,0,0,1-2.012,2.012H6.042A2.014,2.014,0,0,1,4.03,96.966V64.175a2.014,2.014,0,0,1,2.012-2.012h7.644V85.338a2.012,2.012,0,0,0,4.023,0V62.164h7.644a2.014,2.014,0,0,1,2.012,2.012v32.79Zm6.044-80.723,16.085-4.31v7.454l-1.348.361a2.012,2.012,0,0,0-1.422,2.464,5.423,5.423,0,0,1-3.83,6.634,2.012,2.012,0,0,0-1.421,2.468l7.842,29.037H45.276l-2.081-8.14a2.009,2.009,0,0,0-.337-.706Zm16.085,12.37V45.588L45.825,32A9.425,9.425,0,0,0,49.494,28.613ZM78.4,98.977H40.265a6.113,6.113,0,0,1-4.018-1.506l-4.858-4.237V65.411l8.783-8.783,1.593,6.232a2.012,2.012,0,0,0,1.949,1.513l39.551,0a2.816,2.816,0,0,1,0,5.633H63a2.012,2.012,0,1,0,0,4.023H89.562a2.816,2.816,0,1,1,0,5.633H63a2.012,2.012,0,1,0,0,4.023H85.257a2.816,2.816,0,0,1,0,5.633H63a2.012,2.012,0,1,0,0,4.023H78.4a2.816,2.816,0,1,1,0,5.632Zm20.586,0H84.626a6.815,6.815,0,0,0,0-5.633h.631a6.835,6.835,0,0,0,6.114-9.9,6.834,6.834,0,0,0,3.68-10.67v-25.5a2.012,2.012,0,0,0-4.023,0V70.169a6.841,6.841,0,0,0-1.466-.16H89.5a6.835,6.835,0,0,0-6.231-9.656H80.031a9.628,9.628,0,1,0-7.564,0h-11V22.1a9.47,9.47,0,0,0,7.212-7.213H83.815A9.47,9.47,0,0,0,91.028,22.1v6.254a2.012,2.012,0,0,0,4.023,0V20.305a2.012,2.012,0,0,0-2.012-2.012,5.423,5.423,0,0,1-5.416-5.417,2.012,2.012,0,0,0-2.012-2.012H66.887a2.012,2.012,0,0,0-2.012,2.012,5.423,5.423,0,0,1-5.416,5.417,2.012,2.012,0,0,0-2.012,2.012V60.353H53.518V4.026l45.464,0ZM76.25,57.1a5.6,5.6,0,1,1,5.6-5.6A5.61,5.61,0,0,1,76.25,57.1Z" transform="translate(-0.007)" fill="#fff"/>
      </g>
    </g>
  </g>
</svg>
