<?xml version="1.0" encoding="utf-8"?>
<!-- Generator: Adobe Illustrator 22.0.1, SVG Export Plug-In . SVG Version: 6.00 Build 0)  -->
<svg version="1.1" id="Capa_1" xmlns="http://www.w3.org/2000/svg" xmlns:xlink="http://www.w3.org/1999/xlink" x="0px" y="0px"
	 viewBox="0 0 512 512" style="enable-background:new 0 0 512 512;" xml:space="preserve">
<style type="text/css">
	.st0{fill:#45B252;}
</style>
<g>
	<g>
		<path class="st0" d="M506.4,172.5c-76.2-42.5-162.8-65-250.6-65c-42,0-83.7,5.2-124.2,15.2l-16.2-49.9c-1.2-3.7-4.3-6.5-8.1-7.3
			c-3.8-0.8-7.7,0.5-10.3,3.4L2.8,174.7c-2.9,3.3-3.6,8.1-1.6,12L50.6,287c1.3,2.7,3.7,4.7,6.6,5.6c1,0.3,2.1,0.4,3.1,0.4
			c1.9,0,3.8-0.5,5.5-1.5c36.9-21.9,77.3-37,119.2-45.1c-75.7,33-105.2,83.1-106.8,86c-1.8,3.1-1.9,6.9-0.3,10.2l32.6,66.2
			c1.3,2.6,3.6,4.6,6.3,5.5c1.1,0.4,2.3,0.5,3.4,0.5c1.7,0,3.4-0.4,5-1.2c40.6-21,84.5-31.6,130.6-31.6c19.1,0,37.9,1.9,56.2,5.5
			l-14.4,45.1c-1.3,4-0.1,8.4,2.9,11.3c2,1.9,4.7,2.9,7.4,2.9c1.4,0,2.7-0.3,4-0.8l81.7-32.8c2.4-1,4.5-2.8,5.6-5.2l33.3-66
			c2.4-4.8,0.9-10.8-3.5-13.8c-16-11-32.8-20.3-50.3-28c40.9-11.4,70.2-7.6,70.5-7.5c4.6,0.7,9.2-1.7,11.3-5.8l50.3-99.8
			C513.5,181.7,511.5,175.4,506.4,172.5z M100.7,97.5l10,30.9c-18.7,5.5-37.1,12-55.1,19.6L100.7,97.5z M333.2,392.5
			c9.8,2.8,19.4,6,28.9,9.9l-36.8,14.8L333.2,392.5z M384.8,388.6c-40.5-18.8-83.8-28.3-128.9-28.3c-45.1,0-90.1,10.1-130.6,29.1
			l-23.6-47.9c46-29.7,99.1-45.3,154.2-45.3c54.6,0,107.4,15.4,153.1,44.6L384.8,388.6z M255.9,274.5c-39.2,0-77.4,7.3-113.1,21.5
			c31-23.2,79.5-47.7,150.7-54.5c39.6,4,78.3,14.3,114.5,30.5c-16.6,2.1-36.8,6.6-59.1,15.2c-0.7,0.3-1.3,0.6-1.9,1
			C317.7,279.1,287.1,274.5,255.9,274.5z M446.3,266.8c-46.7-25.7-98.2-41.7-151.3-46.9c-0.2,0-0.4,0-0.7-0.1
			c-12.7-1.2-25.6-1.9-38.4-1.9c-67,0-132.7,17-190.9,49.1l-39.8-80.6c70.6-37.5,150.2-57.2,230.7-57.2
			c80.6,0,160.2,19.8,230.8,57.3L446.3,266.8z"/>
	</g>
</g>
</svg>
