<svg id="shopping" xmlns="http://www.w3.org/2000/svg" width="89" height="89" viewBox="0 0 89 89">
  <path id="Path_3568" data-name="Path 3568" d="M453.738,369.477A1.738,1.738,0,1,0,452,367.738,1.739,1.739,0,0,0,453.738,369.477Zm0,0" transform="translate(-373.43 -302.379)" fill="#fff"/>
  <path id="Path_3569" data-name="Path 3569" d="M5.215,89h78.57A5.221,5.221,0,0,0,89,83.785V19.121a1.738,1.738,0,0,0-1.738-1.738H75.094a17.383,17.383,0,1,0-34.766,0H27.117a1.738,1.738,0,0,0-1.738,1.738V39.285H1.738A1.738,1.738,0,0,0,0,41.023V83.785A5.221,5.221,0,0,0,5.215,89ZM3.477,83.785V77.527H43.8v6.258a1.74,1.74,0,0,1-1.738,1.738H5.215A1.74,1.74,0,0,1,3.477,83.785Zm80.309,1.738h-36.8a5.19,5.19,0,0,0,.3-1.738V77.527H85.523v6.258A1.74,1.74,0,0,1,83.785,85.523ZM57.711,3.477A13.922,13.922,0,0,1,71.617,17.383H43.8A13.9,13.9,0,0,1,57.711,3.477ZM28.855,20.859H40.328v8H38.59a1.738,1.738,0,0,0,0,3.477h6.953a1.738,1.738,0,0,0,0-3.477H43.8v-8H71.617v8H69.879a1.738,1.738,0,1,0,0,3.477h6.953a1.738,1.738,0,0,0,0-3.477H75.094v-8h10.43V74.051H47.281V41.023a1.738,1.738,0,0,0-1.738-1.738H28.855ZM43.8,42.762V74.051H3.477V42.762Zm0,0" fill="#fff"/>
  <path id="Path_3570" data-name="Path 3570" d="M67.738,289.477v3.477a10.43,10.43,0,1,0,20.859,0v-3.477a1.738,1.738,0,0,0,0-3.477H85.121a1.738,1.738,0,0,0,0,3.477v3.477a6.953,6.953,0,0,1-13.906,0v-3.477a1.738,1.738,0,0,0,0-3.477H67.738a1.738,1.738,0,1,0,0,3.477Zm0,0" transform="translate(-54.527 -236.285)" fill="#fff"/>
  <path id="Path_3571" data-name="Path 3571" d="M453.738,263.383a1.738,1.738,0,0,0,1.738-1.738V247.738a1.738,1.738,0,1,0-3.477,0v13.906A1.738,1.738,0,0,0,453.738,263.383Zm0,0" transform="translate(-373.43 -203.238)" fill="#fff"/>
</svg>
